<svg width="446" height="447" viewBox="0 0 446 447" fill="none" xmlns="http://www.w3.org/2000/svg">
<g clip-path="url(#clip0_1898_1128)">
<path d="M89.9297 199.229C87.5914 96.3898 123.098 103.525 129.929 63.9142C138.857 12.1379 201.443 27.5023 225.926 27.5023C301.034 27.5023 363.773 47.7577 363.768 188.896C363.762 330.642 297.051 358.756 221.997 361.607C130.667 365.074 92.084 294.046 89.9297 199.229Z" fill="#E4FAFC"/>
</g>
<g clip-path="url(#clip1_1898_1128)">
<path d="M84.6431 183.684L83.5435 177.716L98.5771 175.039L99.0946 178.947L84.6431 183.684Z" fill="#313439"/>
<path d="M84.6432 184.222C84.5461 184.225 84.4504 184.198 84.3683 184.147C84.3024 184.107 84.2457 184.054 84.2019 183.991C84.1582 183.928 84.1286 183.856 84.1149 183.781L83.0369 177.814C83.0239 177.744 83.0249 177.673 83.0397 177.603C83.0545 177.534 83.0828 177.468 83.1231 177.41C83.1635 177.351 83.2153 177.301 83.2755 177.262C83.3357 177.223 83.4029 177.197 83.4735 177.185L98.5071 174.497C98.5793 174.484 98.6533 174.486 98.7246 174.503C98.796 174.519 98.8632 174.55 98.9222 174.593C98.9811 174.636 99.0306 174.691 99.0677 174.754C99.1047 174.817 99.1286 174.886 99.1378 174.959L99.6768 178.867C99.6931 178.992 99.6654 179.117 99.5985 179.223C99.5316 179.33 99.4296 179.409 99.3103 179.448L84.8588 184.184C84.7911 184.214 84.717 184.227 84.6432 184.222ZM84.1688 178.147L85.0636 182.985L98.5071 178.577L98.1244 175.669L84.1688 178.147Z" fill="#313439"/>
<path d="M144.374 328.211H135.399V386.347H144.374V328.211Z" fill="#E4FAFC"/>
<path d="M144.373 386.891H135.398C135.256 386.891 135.119 386.834 135.017 386.733C134.917 386.632 134.859 386.496 134.859 386.353V328.211C134.859 328.068 134.917 327.932 135.017 327.831C135.119 327.73 135.256 327.674 135.398 327.674H144.373C144.517 327.674 144.654 327.73 144.755 327.831C144.856 327.932 144.912 328.068 144.912 328.211V386.353C144.912 386.496 144.856 386.632 144.755 386.733C144.654 386.834 144.517 386.891 144.373 386.891ZM135.937 385.816H143.834V328.749H135.937V385.816Z" fill="#313439"/>
<path d="M145.085 383.467H134.671L78.8105 404.369C69.5876 406.713 104.377 414.083 139.376 414.481C175.346 414.89 211.532 408.24 200.395 404.369L145.085 383.467Z" fill="#E4FAFC"/>
<path d="M218.173 306.159C218.173 306.159 180.532 339.329 115.109 329.851C58.0797 321.588 58.9044 244.216 97.2082 222.325C146.002 194.44 270.809 265.699 218.173 306.159Z" fill="#E4FAFC"/>
<path d="M70.7575 265.316C70.7575 265.316 66.3536 290.847 81.08 310.335C95.8064 329.823 120.305 330.511 129.113 331.2C112.942 328.866 106.053 325.178 102.62 320.496C99.1861 315.813 97.8008 314.727 94.4965 315.964C91.1922 317.2 86.1091 314.593 83.2145 303.201C80.3199 291.809 79.6354 290.433 76.4712 290.299C73.3071 290.164 69.9381 282.885 70.7575 265.316Z" fill="#313439"/>
<path d="M138.148 332.071C130.414 332.065 122.691 331.5 115.039 330.383C102.642 328.588 92.4001 323.529 84.5625 315.33C77.609 308.083 72.8385 298.476 70.7525 287.547C68.4193 274.929 69.5899 261.916 74.1376 249.915C78.8541 237.55 86.9504 227.577 96.9387 221.868C112.727 212.847 137.673 213.369 165.396 223.309C191.27 232.577 213.968 248.27 224.69 264.258C229.789 271.876 232.015 279.252 231.32 286.182C230.554 293.789 226.253 300.654 218.545 306.584C218.108 306.96 208.556 315.137 191.404 322.066C179.147 327.002 161.035 332.071 138.148 332.071ZM124.887 216.519C114.161 216.519 104.803 218.605 97.4778 222.793C77.6305 234.131 66.8391 261.285 71.8144 287.359C76.2614 310.664 92.0766 325.969 115.217 329.319C148.869 334.195 174.975 327.529 190.951 321.083C208.271 314.094 217.752 305.842 217.844 305.756C236.009 291.778 231.093 275.811 223.773 264.866C213.192 249.06 190.687 233.529 165.019 224.33C150.562 219.121 136.87 216.519 124.887 216.519Z" fill="#313439"/>
<path d="M132.967 384.047C132.967 384.047 99.3856 399.422 100.625 403.675C101.865 407.927 105.439 411.497 114.387 413.147C97.4558 412.072 76.6545 407.519 77.2259 404.911C81.2201 403.535 132.967 384.047 132.967 384.047Z" fill="white"/>
<path d="M142.525 415.035C141.446 415.035 140.417 415.035 139.371 415.035C125.109 414.846 110.879 413.648 96.7875 411.449C89.4404 410.272 77.0696 407.922 76.7732 405.449C76.6438 404.401 78.1153 404.003 78.6436 403.869L134.471 382.983C134.533 382.958 134.599 382.945 134.665 382.945H145.08C145.146 382.947 145.211 382.96 145.274 382.983L200.579 403.88C201.22 404.1 203.204 404.793 202.961 406.175C202.422 409.127 189.846 411.342 182.386 412.395C169.173 414.169 155.856 415.051 142.525 415.035ZM77.8404 405.358C78.8646 407.637 106.695 413.594 139.36 413.96C172.743 414.336 201.349 408.917 201.888 405.987C201.915 405.81 201.597 405.374 200.201 404.912L144.988 384.004H134.746L79.0048 404.869C78.9853 404.874 78.9649 404.874 78.9455 404.869C78.5515 404.934 78.1795 405.095 77.862 405.336L77.8404 405.358Z" fill="#313439"/>
<path d="M135.237 332.168C135.237 332.168 141.463 333.195 144.131 342.667C144.309 337.931 144.67 331.754 144.67 331.754L135.237 332.168Z" fill="#313439"/>
<path d="M100.054 132.621C97.0086 128.235 78.0238 117.832 81.7431 149.921C81.7417 149.947 81.7417 149.972 81.7431 149.997H81.6784C80.7192 149.997 79.7992 150.377 79.1209 151.053C78.4426 151.73 78.0615 152.647 78.0615 153.604C78.0615 154.561 78.4426 155.478 79.1209 156.155C79.7992 156.831 80.7192 157.211 81.6784 157.211C82.2171 157.21 82.7488 157.09 83.2362 156.862C85.7212 163.673 89.2626 187.091 89.2626 187.091L106.194 188.736L100.07 168.453C101.316 168.364 102.549 168.152 103.752 167.818C120.564 162.824 103.105 137.019 100.054 132.621Z" fill="#E4FAFC"/>
<path d="M106.199 189.262H106.145L89.2141 187.612C89.0953 187.6 88.9837 187.549 88.8969 187.468C88.8101 187.386 88.7529 187.277 88.7344 187.16C88.702 186.929 85.3438 164.833 82.9128 157.549C82.5151 157.673 82.1007 157.737 81.6838 157.737C80.6246 157.743 79.6031 157.344 78.8282 156.624C78.0533 155.904 77.5834 154.916 77.5146 153.861C77.4458 152.807 77.7832 151.766 78.458 150.952C79.1327 150.137 80.0937 149.611 81.1448 149.479C79.4037 133.733 83.3494 128.782 86.9879 127.438C92.2758 125.454 98.8466 129.975 100.496 132.346C104.663 138.351 114.015 153.312 110.856 162.269C109.778 165.253 107.466 167.301 103.903 168.36C102.879 168.65 101.831 168.848 100.771 168.951L106.7 188.595C106.725 188.678 106.73 188.764 106.715 188.849C106.699 188.934 106.663 189.013 106.611 189.081C106.558 189.149 106.49 189.204 106.411 189.24C106.333 189.276 106.247 189.293 106.161 189.289L106.199 189.262ZM89.737 186.574L105.45 188.09L99.5528 168.607C99.5305 168.531 99.5252 168.452 99.5373 168.374C99.5494 168.296 99.5787 168.221 99.6229 168.156C99.6675 168.089 99.7265 168.033 99.7955 167.992C99.8645 167.951 99.9418 167.926 100.022 167.919C101.232 167.83 102.431 167.623 103.601 167.301C106.835 166.349 108.91 164.527 109.843 161.887C112.926 153.146 102.819 137.507 99.6121 132.927C98.1567 130.83 92.0656 126.653 87.376 128.416C84.0609 129.663 80.4818 134.394 82.2767 149.856V149.952C82.2823 150.027 82.2722 150.102 82.2471 150.172C82.2221 150.242 82.1826 150.307 82.1312 150.361C82.0236 150.467 81.8784 150.527 81.7269 150.528H81.6676C81.2071 150.531 80.7533 150.638 80.3396 150.84C79.9259 151.042 79.5629 151.333 79.2773 151.694C78.9918 152.054 78.7909 152.474 78.6896 152.922C78.5883 153.37 78.5891 153.835 78.6919 154.283C78.7947 154.73 78.997 155.149 79.2838 155.509C79.5705 155.868 79.9345 156.159 80.3489 156.359C80.7633 156.56 81.2175 156.665 81.678 156.667C82.1385 156.669 82.5936 156.568 83.0098 156.371C83.0786 156.341 83.1529 156.325 83.2281 156.325C83.3033 156.325 83.3777 156.341 83.4464 156.371C83.516 156.398 83.5787 156.44 83.63 156.494C83.6813 156.548 83.7198 156.613 83.7429 156.683C86.0715 163.032 89.2357 183.316 89.737 186.585V186.574Z" fill="#313439"/>
<path d="M104.135 132.106C104.135 132.106 104.75 131.106 105.165 124.074C105.671 115.472 85.9642 126.961 79.9809 127.165C74.1324 127.343 71.5558 141.014 79.3125 149.642C79.4713 149.817 79.6715 149.949 79.8947 150.026C80.118 150.103 80.3571 150.123 80.59 150.083C81.2747 149.99 81.9715 150.041 82.6348 150.235C83.298 150.429 83.9128 150.76 84.4387 151.207C87.0369 153.282 86.638 151.019 86.1582 149.986C85.5707 148.734 85.2473 143.32 86.5841 139.105C89.2685 130.665 101.24 140.546 104.135 132.106Z" fill="#313439"/>
<path d="M86.0393 152.609C85.3979 152.609 84.6594 152.072 84.0988 151.647C83.6325 151.246 83.0864 150.948 82.4964 150.773C81.9065 150.598 81.2861 150.55 80.6759 150.631C80.3537 150.686 80.0228 150.66 79.7137 150.553C79.4046 150.447 79.1274 150.265 78.9079 150.023C73.5984 144.11 72.9785 135.702 75.0646 130.788C76.1426 128.223 77.943 126.718 79.959 126.648C81.8456 126.584 85.3008 125.294 88.9609 123.96C95.2999 121.595 101.855 119.154 104.534 121.127C105.391 121.708 105.784 122.729 105.703 124.116C105.337 130.368 104.803 131.96 104.625 132.325C103.008 136.916 98.8791 136.508 95.2191 136.153C91.559 135.798 88.3033 135.476 87.0958 139.277C85.7698 143.47 86.1363 148.674 86.6484 149.76C86.6862 149.84 87.5378 151.69 86.6484 152.389C86.4769 152.53 86.2617 152.608 86.0393 152.609ZM81.2581 149.491C82.5429 149.505 83.783 149.963 84.7672 150.787C85.1101 151.115 85.5176 151.37 85.9638 151.534C85.9696 151.086 85.868 150.644 85.6674 150.244C85.0044 148.819 84.7241 143.217 86.0717 138.954C87.5432 134.32 91.6776 134.723 95.3269 135.083C99.0731 135.443 102.334 135.761 103.623 131.944C103.632 131.914 103.645 131.885 103.66 131.858C103.698 131.777 104.248 130.503 104.625 124.057C104.684 123.041 104.437 122.347 103.898 121.966C101.687 120.353 94.8417 122.896 89.3436 124.944C85.6027 126.342 82.0666 127.632 80.0075 127.729C78.3904 127.783 77.0051 129.019 76.0672 131.213C74.0997 135.825 74.7088 143.733 79.7218 149.308C79.8207 149.416 79.9452 149.497 80.0836 149.543C80.2221 149.59 80.3701 149.602 80.5142 149.577C80.7596 149.53 81.0083 149.501 81.2581 149.491Z" fill="#313439"/>
<path d="M266.766 264.318C266.766 264.318 296.111 285.113 303.96 285.769C311.808 286.425 308.056 285.441 308.056 285.441L297.815 298.972L256.309 276.715L266.766 264.318Z" fill="#313439"/>
<path d="M297.815 299.509C297.726 299.508 297.639 299.486 297.561 299.444L256.056 277.187C255.986 277.149 255.925 277.096 255.878 277.032C255.831 276.968 255.799 276.894 255.784 276.816C255.769 276.737 255.772 276.657 255.792 276.58C255.812 276.503 255.849 276.431 255.899 276.37L266.357 263.968C266.445 263.864 266.568 263.797 266.703 263.779C266.837 263.763 266.974 263.797 267.084 263.876C267.375 264.086 296.397 284.595 304.008 285.235C305.625 285.37 306.676 285.429 307.377 285.45L307.63 285.117C307.695 285.031 307.782 284.967 307.883 284.931C307.984 284.897 308.094 284.892 308.197 284.918C308.876 285.101 309.593 285.337 309.485 285.939C309.425 286.294 309.382 286.531 307.905 286.536L298.251 299.294C298.201 299.361 298.135 299.416 298.059 299.453C297.983 299.49 297.899 299.51 297.815 299.509ZM257.145 276.558L297.664 298.299L306.574 286.472C305.873 286.439 305 286.375 303.911 286.284C296.419 285.655 270.567 267.629 266.853 265.021L257.145 276.558Z" fill="#313439"/>
<path d="M297.949 300.073L310.687 311.073L319.311 302.272L318.174 298.09C318.174 298.09 333.87 290.133 338.42 274.07C334.108 271.871 331.822 274.29 326.588 277.371C321.354 280.451 309.932 286.219 303.221 285.499C302.116 290.568 300.343 295.468 297.949 300.073Z" fill="#E4FAFC"/>
<path d="M310.671 311.611C310.54 311.612 310.414 311.566 310.315 311.482L297.578 300.477C297.484 300.396 297.421 300.286 297.4 300.165C297.378 300.043 297.399 299.918 297.459 299.81C299.834 295.257 301.595 290.41 302.699 285.397C302.727 285.267 302.803 285.153 302.911 285.075C303.02 284.997 303.153 284.963 303.286 284.978C309.124 285.612 319.344 281.032 326.319 276.914C327.198 276.376 327.974 275.914 328.723 275.441C332.383 273.145 334.803 271.629 338.668 273.597C338.779 273.653 338.867 273.746 338.917 273.86C338.967 273.974 338.977 274.101 338.943 274.22C334.782 288.908 321.279 296.993 318.81 298.37L319.834 302.133C319.863 302.226 319.866 302.326 319.842 302.42C319.818 302.515 319.769 302.602 319.7 302.67L311.075 311.471C311.021 311.52 310.957 311.559 310.888 311.583C310.818 311.607 310.744 311.616 310.671 311.611ZM298.607 299.945L310.639 310.337L318.724 302.117L317.646 298.235C317.613 298.116 317.622 297.988 317.672 297.874C317.722 297.761 317.81 297.668 317.921 297.612C318.077 297.536 333.181 289.709 337.768 274.355C334.685 272.957 332.723 274.188 329.284 276.344C328.561 276.801 327.747 277.312 326.858 277.833C325.311 278.747 311.722 286.58 303.642 286.075C302.534 290.885 300.844 295.542 298.607 299.945Z" fill="#313439"/>
<path d="M235.729 350.779C235.729 350.779 236.72 385.928 240.995 392.379C245.27 398.83 243.771 395.309 243.771 395.309L226.441 395.777L219.563 355.413L235.729 350.779Z" fill="#313439"/>
<path d="M243.933 396.799C243.712 396.799 243.394 396.6 242.806 395.847L226.457 396.288C226.329 396.29 226.204 396.246 226.105 396.164C226.007 396.082 225.941 395.968 225.918 395.842L219.035 355.479C219.013 355.348 219.039 355.214 219.11 355.102C219.18 354.99 219.29 354.908 219.418 354.871L235.589 350.264C235.668 350.241 235.751 350.236 235.833 350.25C235.914 350.264 235.991 350.296 236.058 350.345C236.124 350.393 236.179 350.456 236.217 350.528C236.255 350.602 236.276 350.682 236.279 350.764C236.279 351.113 237.314 385.853 241.453 392.057C242.327 393.369 242.925 394.208 243.335 394.745H243.766C243.872 394.745 243.975 394.776 244.063 394.834C244.152 394.893 244.221 394.976 244.262 395.073C244.531 395.702 244.774 396.401 244.262 396.686C244.164 396.752 244.05 396.79 243.933 396.799ZM220.172 355.764L226.894 395.191L242.014 394.783C241.615 394.245 241.13 393.525 240.542 392.632C236.521 386.601 235.378 356.57 235.211 351.463L220.172 355.764Z" fill="#313439"/>
<path d="M225.611 396.515L224.431 412.992L236.92 414.207L239.615 410.772C239.615 410.772 256.239 418.895 272.151 412.53C271.3 407.875 267.931 407.622 262.206 405.509C256.482 403.396 243.173 396.144 241.351 391.381C236.323 393.698 231.041 395.421 225.611 396.515Z" fill="#E4FAFC"/>
<path d="M259.015 415.496C252.405 415.422 245.876 414.049 239.799 411.454L237.341 414.556C237.284 414.625 237.212 414.68 237.129 414.715C237.046 414.75 236.956 414.764 236.866 414.754L224.382 413.54C224.242 413.527 224.113 413.46 224.021 413.354C223.929 413.248 223.883 413.109 223.892 412.97L225.078 396.487C225.087 396.368 225.135 396.255 225.215 396.167C225.295 396.078 225.402 396.019 225.52 395.998C230.91 394.911 236.156 393.204 241.152 390.912C241.22 390.882 241.293 390.867 241.367 390.867C241.442 390.867 241.515 390.882 241.583 390.912C241.652 390.939 241.714 390.981 241.766 391.034C241.818 391.087 241.858 391.149 241.885 391.218C243.561 395.643 256.32 402.777 262.433 405.029C263.387 405.384 264.26 405.68 265.128 405.965C269.251 407.357 271.979 408.276 272.739 412.459C272.762 412.581 272.742 412.707 272.682 412.816C272.621 412.925 272.526 413.009 272.41 413.056C268.143 414.716 263.596 415.544 259.015 415.496ZM239.637 410.249C239.72 410.25 239.801 410.271 239.874 410.309C240.036 410.384 256.18 418.104 271.553 412.206C270.804 409.018 268.605 408.276 264.745 406.97C263.931 406.696 263.009 406.384 262.05 406.029C256.778 404.083 243.723 397.164 241.108 392.111C236.307 394.257 231.286 395.879 226.134 396.949L225.018 412.497L236.688 413.631L239.227 410.405C239.279 410.349 239.343 410.305 239.414 410.275C239.484 410.246 239.56 410.231 239.637 410.233V410.249Z" fill="#313439"/>
<path d="M117.373 190.52C117.463 190.332 117.593 190.167 117.754 190.035C117.916 189.903 118.104 189.808 118.306 189.757C118.508 189.706 118.719 189.699 118.924 189.738C119.129 189.777 119.322 189.86 119.492 189.982C129.733 197.423 144.729 211.653 171.853 216.094C202.228 221.061 235.222 207.094 235.222 207.094L240.338 216.33C240.338 216.33 185.539 245.13 151.672 237.351C117.804 229.571 94.6475 212.82 94.6475 212.82C106.592 202.121 112.22 200.993 117.373 190.52Z" fill="white"/>
<path d="M149.823 226.61C149.823 226.61 145.144 217.003 144.18 213.567C143.215 210.132 147.484 211.508 151.187 215.901C154.89 220.293 161.644 224.959 164.259 225.647C166.873 226.335 161.644 218.121 165.908 218.922C170.172 219.723 174.716 222.626 178.57 222.352C182.424 222.078 181.05 220.158 188.208 220.019C195.366 219.879 202.934 218.234 206.923 215.218C200.331 216.046 164.269 224.276 132.396 199.192C131.927 198.762 131.48 198.353 131.049 197.971C130.801 197.755 130.486 197.631 130.157 197.62C129.828 197.609 129.505 197.712 129.244 197.912C128.983 198.112 128.799 198.396 128.724 198.715C128.649 199.035 128.688 199.37 128.833 199.665L139.501 219.336L149.823 226.61Z" fill="#E4FAFC"/>
<path d="M164.366 239.222C160.054 239.26 155.75 238.815 151.537 237.895C117.955 230.18 94.5615 213.428 94.3298 213.262C94.2647 213.214 94.211 213.153 94.1728 213.083C94.1345 213.012 94.1127 212.933 94.1088 212.853C94.1042 212.773 94.1179 212.692 94.1486 212.618C94.1794 212.543 94.2266 212.477 94.2866 212.423C98.2054 208.918 101.397 206.472 104.21 204.316C109.789 200.015 113.471 197.214 116.878 190.284C117.004 190.028 117.186 189.802 117.409 189.623C117.632 189.444 117.892 189.315 118.17 189.247C118.449 189.178 118.739 189.171 119.02 189.226C119.301 189.281 119.567 189.396 119.799 189.564C121.249 190.639 122.801 191.817 124.445 193.08C134.687 200.977 148.761 211.789 171.934 215.579C201.802 220.46 234.672 206.757 235.001 206.617C235.125 206.565 235.263 206.56 235.389 206.603C235.516 206.647 235.622 206.736 235.686 206.853L240.812 216.084C240.847 216.147 240.869 216.216 240.877 216.287C240.884 216.358 240.878 216.43 240.857 216.499C240.837 216.567 240.802 216.631 240.757 216.687C240.711 216.742 240.655 216.787 240.591 216.821C240.095 217.079 197.522 239.222 164.366 239.222ZM95.5102 212.772C99.2188 215.321 121.254 229.836 151.78 236.846C183.373 244.098 234.069 218.933 239.588 216.122L234.974 207.789C230.894 209.429 200.018 221.261 171.756 216.638C148.319 212.805 134.143 201.897 123.782 193.929C122.165 192.671 120.597 191.478 119.157 190.435C119.054 190.358 118.934 190.305 118.808 190.28C118.68 190.254 118.549 190.257 118.424 190.288C118.298 190.318 118.181 190.376 118.08 190.458C117.98 190.539 117.899 190.641 117.842 190.758C114.323 197.913 110.56 200.8 104.857 205.165C102.189 207.219 99.1703 209.531 95.5102 212.772Z" fill="#313439"/>
<path d="M167.713 251.109L116.085 293.139C116.085 293.139 73.5012 233.707 74.3097 194.849C74.3156 194.614 74.3785 194.383 74.493 194.177C77.0368 189.426 80.9903 185.575 85.8127 183.151C88.0928 182.038 93.3592 179.189 97.5475 180.742C97.8139 180.847 98.0389 181.036 98.1889 181.28C99.806 183.672 101.353 186.118 102.56 188.065C102.593 188.118 102.625 188.177 102.663 188.231C103.461 186.135 104.409 184.371 104.878 183.043C105.003 182.696 105.259 182.411 105.591 182.249C105.924 182.088 106.306 182.062 106.657 182.178C119.691 186.301 130.984 194.543 139.436 218.396C154.232 227.121 167.713 251.109 167.713 251.109Z" fill="white"/>
<path d="M116.085 293.675H116.015C115.942 293.665 115.872 293.641 115.809 293.603C115.746 293.565 115.691 293.515 115.648 293.455C115.217 292.853 72.9622 233.426 73.7707 194.837C73.7809 194.515 73.8678 194.199 74.0241 193.918C76.626 189.076 80.6566 185.148 85.5702 182.666L86.023 182.445C88.4756 181.23 93.5694 178.682 97.7308 180.236C98.0995 180.378 98.4143 180.631 98.631 180.962C99.9139 182.854 101.288 184.977 102.555 187.02C102.852 186.3 103.159 185.633 103.439 185.015C103.816 184.182 104.145 183.467 104.366 182.865C104.53 182.379 104.88 181.977 105.339 181.748C105.799 181.517 106.331 181.479 106.819 181.639C118.02 185.182 130.703 192.273 139.878 218.008C154.566 226.798 168.042 250.608 168.188 250.845C168.249 250.957 168.268 251.088 168.241 251.212C168.215 251.338 168.144 251.449 168.042 251.527L116.43 293.552C116.333 293.632 116.211 293.675 116.085 293.675ZM94.8847 180.827C91.726 180.827 88.3462 182.504 86.5189 183.408L86.0607 183.633C81.3382 186.016 77.4638 189.788 74.962 194.439C74.8926 194.568 74.8538 194.712 74.8488 194.859C74.0834 231.287 112.22 286.681 116.193 292.353L167.018 250.957C165.202 247.823 152.637 226.765 139.161 218.814C139.05 218.75 138.966 218.649 138.924 218.529C129.906 193.095 117.47 186.117 106.495 182.644C106.281 182.581 106.05 182.601 105.85 182.701C105.65 182.801 105.496 182.973 105.417 183.182C105.186 183.843 104.846 184.58 104.458 185.434C104.07 186.289 103.606 187.311 103.197 188.375C103.16 188.47 103.098 188.552 103.017 188.613C102.936 188.673 102.84 188.711 102.738 188.719C102.638 188.727 102.538 188.708 102.448 188.662C102.359 188.616 102.284 188.547 102.232 188.461L102.151 188.332C100.755 186.053 99.2077 183.65 97.7739 181.537C97.6807 181.394 97.5476 181.282 97.3912 181.214C96.5856 180.937 95.7367 180.806 94.8847 180.827Z" fill="#313439"/>
<path d="M115.724 290.908C115.724 290.908 131.588 314.67 162.296 295.86C193.005 277.049 205.802 262.69 210.411 265.168C215.019 267.646 253.749 295.86 274.232 300.316C278.361 295.65 292.522 279.828 292.522 279.828C292.522 279.828 236.586 244.132 223.768 234.799C200.8 218.079 136.196 262.69 115.724 290.908Z" fill="#E4FAFC"/>
<path d="M142.891 302.912C142.891 302.912 198.854 301.16 205.505 307.595C212.157 314.03 223.719 381.999 223.719 381.999L253.129 372.489C253.129 372.489 240.607 287.177 234.99 276.978C225.676 260.071 171.627 260.339 145.403 261.608C139.42 266.758 132.897 273.113 132.897 273.113L142.891 302.912Z" fill="#E4FAFC"/>
<path d="M208.588 231.551C191.663 236.287 183.61 240.475 161.04 254.953C153.057 260.13 138.266 267.656 138.266 267.656C138.266 267.656 176.591 232.578 208.588 231.551Z" fill="white"/>
<path d="M102.086 175.039L104.463 183.065L113.853 186.259L107.557 176.378L102.086 175.039Z" fill="white"/>
<path d="M113.853 186.795C113.796 186.803 113.738 186.803 113.681 186.795L104.286 183.574C104.205 183.546 104.132 183.5 104.073 183.438C104.014 183.376 103.97 183.301 103.946 183.22L101.569 175.188C101.542 175.097 101.54 175.001 101.563 174.909C101.586 174.817 101.632 174.733 101.698 174.665C101.763 174.597 101.846 174.547 101.936 174.521C102.027 174.495 102.124 174.493 102.216 174.516L107.671 175.854C107.804 175.887 107.92 175.97 107.994 176.086L114.29 185.967C114.355 186.058 114.39 186.167 114.39 186.278C114.39 186.39 114.355 186.499 114.29 186.59C114.238 186.656 114.172 186.709 114.096 186.744C114.02 186.779 113.937 186.797 113.853 186.795ZM104.9 182.644L112.576 185.257L107.218 176.844L102.868 175.768L104.9 182.644Z" fill="#313439"/>
<path d="M141.867 305.008C137.047 305.02 132.29 303.916 127.971 301.782C122.954 299.32 118.602 295.696 115.276 291.213C115.214 291.123 115.18 291.016 115.18 290.907C115.18 290.798 115.214 290.691 115.276 290.6C123.394 279.407 138.207 265.817 154.895 254.248C173.303 241.485 190.833 233.281 204.249 231.174C212.664 229.84 219.342 230.921 224.08 234.399C236.742 243.608 292.247 279.053 292.807 279.407C292.873 279.45 292.929 279.506 292.97 279.572C293.012 279.638 293.039 279.712 293.05 279.789C293.06 279.866 293.055 279.944 293.032 280.019C293.01 280.093 292.972 280.161 292.92 280.219C292.78 280.375 278.711 296.095 274.631 300.707C274.565 300.782 274.48 300.837 274.385 300.867C274.29 300.896 274.188 300.899 274.092 300.874C263.98 298.675 246.138 288.509 236.397 282.595C236.275 282.522 236.188 282.403 236.153 282.265C236.119 282.127 236.141 281.981 236.214 281.859C236.251 281.798 236.299 281.745 236.356 281.702C236.413 281.661 236.479 281.63 236.548 281.613C236.617 281.596 236.689 281.593 236.759 281.604C236.83 281.614 236.897 281.639 236.958 281.676C246.536 287.455 264.001 297.428 274.011 299.734C277.914 295.326 289.33 282.569 291.675 279.95C285.94 276.257 235.475 244.001 223.455 235.233C218.954 231.959 212.556 230.932 204.433 232.227C191.167 234.324 173.799 242.442 155.526 255.124C139.08 266.521 124.488 279.854 116.387 290.907C119.619 295.082 123.756 298.475 128.488 300.831C139.129 306.056 150.89 304.804 163.444 297.116C178.656 287.794 191.048 277.762 200.099 270.456C210.076 262.392 215.574 257.936 218.21 259.355C218.335 259.423 218.427 259.538 218.468 259.674C218.508 259.81 218.493 259.956 218.426 260.081C218.358 260.206 218.244 260.299 218.108 260.341C217.971 260.382 217.824 260.368 217.698 260.301C215.693 259.226 209.111 264.548 200.778 271.29C191.706 278.628 179.287 288.67 164.01 298.03C155.553 303.207 148.098 305.008 141.867 305.008Z" fill="#313439"/>
<path d="M223.719 382.534C223.593 382.537 223.47 382.496 223.371 382.417C223.273 382.338 223.205 382.228 223.18 382.104C223.045 381.443 209.758 315.979 205.721 307.861C203.565 303.561 202.26 303.292 190.089 304.759C182.1 305.722 171.675 304.985 161.59 304.27C154.68 303.781 148.152 303.319 142.913 303.448C142.77 303.448 142.632 303.391 142.531 303.29C142.43 303.19 142.374 303.053 142.374 302.91C142.374 302.768 142.43 302.631 142.531 302.53C142.632 302.43 142.77 302.373 142.913 302.373C148.211 302.244 154.771 302.706 161.693 303.2C171.724 303.91 182.1 304.641 189.986 303.695C202.115 302.233 204.244 302.367 206.74 307.388C210.675 315.313 222.738 374.293 224.167 381.303L252.568 372.105C251.576 365.406 239.852 286.852 234.554 277.234C231.503 271.697 222.819 267.6 208.734 265.047C208.664 265.034 208.598 265.009 208.538 264.971C208.478 264.933 208.427 264.883 208.386 264.825C208.345 264.768 208.317 264.702 208.302 264.633C208.287 264.564 208.285 264.493 208.297 264.423C208.31 264.353 208.336 264.286 208.374 264.226C208.413 264.166 208.463 264.115 208.522 264.074C208.58 264.034 208.646 264.005 208.716 263.99C208.786 263.975 208.858 263.975 208.928 263.988C223.342 266.6 232.284 270.885 235.497 276.718C241.098 286.884 253.188 368.912 253.7 372.411C253.718 372.537 253.69 372.664 253.624 372.771C253.557 372.878 253.454 372.959 253.334 372.997L223.886 382.513C223.832 382.528 223.776 382.536 223.719 382.534Z" fill="#313439"/>
<path d="M137.576 268.338C137.389 273.189 138.844 277.963 141.705 281.891C146.519 288.616 162.965 296.713 178.036 286.934C175.589 292.148 163.191 303.75 163.191 303.75C163.191 303.75 140.757 299.632 131.259 274.924C133.241 272.614 135.351 270.415 137.576 268.338Z" fill="#313439"/>
<path d="M201.366 275.721C198.989 281.586 198.159 289.666 202.395 287.629C204.902 286.424 205.975 285.478 207.834 285.36C211.203 285.193 206.217 291.94 209.279 290.51C216.825 287.01 217.122 283.855 219.186 280.419C221.251 276.984 224.415 282.753 220.291 288.247C216.168 293.741 220.248 295.709 218.809 297.236C215.715 300.531 212.098 308.665 212.098 308.665L189.998 297.166C179.702 285.059 183.335 278.323 201.366 275.721Z" fill="#313439"/>
<path d="M151.408 250.824C151.296 250.825 151.186 250.79 151.094 250.726C151.003 250.661 150.933 250.57 150.896 250.464C150.826 250.265 143.77 230.368 129.459 221.923C129.376 221.875 129.307 221.806 129.259 221.724C122.705 209.896 116.22 199.322 103.197 189.285C102.857 189.028 102.611 188.667 102.496 188.257C102.381 187.847 102.404 187.411 102.561 187.016L106.744 176.377C106.797 176.244 106.901 176.137 107.033 176.08C107.165 176.023 107.314 176.02 107.447 176.073C107.581 176.126 107.688 176.23 107.745 176.361C107.803 176.492 107.805 176.641 107.752 176.775L103.564 187.408C103.495 187.587 103.487 187.783 103.539 187.967C103.592 188.151 103.702 188.314 103.855 188.43C116.996 198.553 123.54 209.203 130.133 221.068C144.686 229.755 151.845 249.905 151.915 250.098C151.939 250.165 151.949 250.235 151.946 250.306C151.942 250.377 151.925 250.447 151.894 250.511C151.864 250.575 151.821 250.632 151.768 250.679C151.715 250.726 151.653 250.763 151.586 250.786C151.529 250.807 151.469 250.819 151.408 250.824Z" fill="#313439"/>
<path d="M187.949 302.1C176.92 303.643 145.451 304.702 135.948 278.445C126.445 252.189 102.323 255.484 92.8254 246.727C92.8254 246.727 76.0614 277.843 107.439 298.707C138.816 319.572 187.949 302.1 187.949 302.1Z" fill="#E4FAFC"/>
<path d="M149.139 296.202C175.837 290.573 195.242 275.472 207.764 265.316C198.266 276.434 202.605 278.697 197.652 281.17C192.698 283.643 189.458 287.896 188.224 291.804C186.99 295.712 202.19 301.863 199.716 303.712C193.523 304.744 183.082 306.846 177.352 306.083C164.965 304.432 153.677 299.492 149.139 296.202Z" fill="#313439"/>
<path d="M182.02 304.778C175.314 304.807 168.638 303.893 162.188 302.063C148.794 298.09 139.549 289.999 135.442 278.661C129.157 261.312 116.187 256.979 105.762 253.496C100.372 251.684 95.6715 250.125 92.4589 247.163C89.6235 244.555 88.1951 241.647 88.2221 238.529C88.2652 232.949 92.9116 228.739 93.1057 228.562C93.2122 228.467 93.3524 228.417 93.4955 228.425C93.6385 228.432 93.7726 228.496 93.8684 228.602C93.9642 228.708 94.0138 228.848 94.0062 228.991C93.9986 229.134 93.9345 229.268 93.828 229.363C93.7795 229.406 89.3325 233.443 89.3001 238.545C89.3001 241.346 90.5884 243.98 93.1866 246.372C96.2321 249.179 100.808 250.706 106.123 252.474C116.769 256.033 130.019 260.458 136.477 278.279C145.64 303.579 178.09 304.864 189.841 303.224C194.738 302.501 199.523 301.163 204.082 299.24C204.212 299.191 204.357 299.194 204.485 299.249C204.613 299.304 204.715 299.405 204.769 299.533C204.824 299.661 204.826 299.805 204.776 299.935C204.727 300.065 204.629 300.17 204.503 300.229C199.857 302.187 194.981 303.551 189.992 304.288C187.348 304.632 184.685 304.796 182.02 304.778Z" fill="#313439"/>
<path d="M135.7 292.774C135.7 292.774 139.36 298.456 144.212 301.268C149.063 304.079 147.069 305.332 143.258 304.402C139.447 303.472 135.016 300.37 132.186 295.8C129.356 291.231 133.356 289.914 135.7 292.774Z" fill="white"/>
<path d="M152.95 304.826C151.791 304.202 149.085 305.562 151.252 307.293C153.419 309.025 155.305 309.229 157.823 309.444C160.34 309.659 160.286 308.245 158.761 307.584C157.235 306.922 154.405 305.6 152.95 304.826Z" fill="white"/>
<path d="M74.838 194.495C74.838 194.495 61.815 208.94 65.0869 244.475C68.3589 280.011 144.029 255.959 144.029 255.959L139.662 247.228C139.662 247.228 100.739 254.883 93.6126 243.4C86.4866 231.917 106.01 221.939 110.377 207.72C89.4566 198.371 87.5323 174.899 74.838 194.495Z" fill="white"/>
<path d="M71.9812 198.644C73.235 196.092 75.3855 194.089 78.0237 193.015C82.5678 191.096 85.1066 196.144 79.4037 202.901C74.9998 208.116 71.3667 205.471 69.9921 209.589C68.6176 213.707 68.2026 219.196 72.4663 215.901C76.7301 212.605 74.6709 214.39 77.0104 212.745C79.3498 211.1 84.0178 211.783 74.6709 221.529C61.8096 234.921 67.9277 243.63 69.9921 239.647C72.0566 235.663 78.2501 231.824 75.7706 236.765C73.291 241.706 69.9921 254.474 75.4957 259.274C67.3886 255.984 64.8767 248.426 64.494 236.905C64.0843 224.411 67.987 207.154 71.9812 198.644Z" fill="#E4FAFC"/>
<path d="M97.2459 264.495C87.953 264.495 79.1937 263.071 73.0433 259.006C67.9979 255.673 65.1464 250.802 64.5481 244.539C61.3139 209.165 73.2751 194.827 73.7872 194.23C73.8808 194.122 74.0138 194.055 74.1568 194.044C74.2998 194.034 74.4412 194.081 74.5499 194.174C74.6585 194.267 74.7255 194.4 74.7361 194.542C74.7468 194.685 74.7001 194.826 74.6065 194.935C74.4825 195.08 62.392 209.595 65.6262 244.426C66.1652 250.34 68.8604 254.963 73.6201 258.108C92.303 270.473 137.506 257.372 143.263 255.63L139.35 247.824C135.091 248.706 102.588 255.049 95.6881 243.91C89.8719 234.545 95.3539 223.428 100.782 214.794C100.817 214.728 100.865 214.671 100.923 214.625C100.981 214.579 101.047 214.545 101.119 214.527C101.19 214.508 101.265 214.503 101.338 214.514C101.411 214.526 101.482 214.551 101.544 214.591C101.607 214.63 101.661 214.681 101.703 214.743C101.745 214.803 101.773 214.872 101.787 214.945C101.801 215.017 101.8 215.092 101.784 215.164C101.768 215.236 101.737 215.304 101.693 215.364C93.8824 227.798 92.3084 236.432 96.6045 243.346C103.45 254.377 139.188 246.765 139.538 246.684C139.656 246.659 139.778 246.673 139.887 246.724C139.995 246.776 140.083 246.862 140.137 246.969L144.524 255.716C144.557 255.787 144.574 255.864 144.574 255.942C144.574 256.02 144.557 256.097 144.524 256.168C144.495 256.238 144.449 256.302 144.393 256.354C144.336 256.405 144.269 256.445 144.196 256.469C142.767 256.904 118.618 264.495 97.2459 264.495Z" fill="#313439"/>
<path d="M138.897 247.297L141.236 256.769L143.818 256.156C146.115 255.619 149.909 256.355 151.834 259.237C153.758 262.118 155.451 266.5 156.001 267.736C156.55 268.973 158.027 268.575 157.752 267.199C157.477 265.822 156.378 260.21 156.378 260.21C156.378 260.21 160.642 267.349 161.472 269.817C162.302 272.284 164.307 270.559 164.307 270.01C165.169 272.311 167.698 271.914 167.541 270.268C168.468 271.295 170.533 271.145 168.932 266.769C165.93 258.554 158.636 250.78 154.567 249.092C151.731 247.893 146.266 245.463 138.897 247.297Z" fill="#E4FAFC"/>
<path d="M166.275 272.145C165.872 272.135 165.478 272.029 165.125 271.835C164.772 271.642 164.471 271.366 164.248 271.032C163.919 271.328 163.517 271.53 163.083 271.618C162.636 271.688 161.526 271.672 160.96 269.978C160.485 268.564 158.804 265.505 157.521 263.242C157.822 264.774 158.151 266.43 158.281 267.097C158.399 267.463 158.37 267.861 158.2 268.207C158.03 268.553 157.732 268.82 157.37 268.952C156.99 269.052 156.586 269.004 156.239 268.818C155.893 268.632 155.631 268.323 155.505 267.952L155.117 267.043C154.362 265.237 152.96 261.877 151.386 259.517C149.548 256.759 145.926 256.183 143.942 256.657L141.366 257.269C141.227 257.304 141.081 257.281 140.958 257.208C140.836 257.134 140.748 257.015 140.714 256.877L138.396 247.426C138.361 247.288 138.384 247.142 138.457 247.019C138.531 246.897 138.651 246.81 138.789 246.775C146.109 244.953 151.607 247.248 154.556 248.48L154.815 248.587C159.316 250.453 166.544 258.544 169.482 266.575C170.592 269.602 170.021 270.726 169.336 271.134C169.124 271.249 168.889 271.313 168.648 271.319C168.407 271.326 168.168 271.275 167.951 271.172C167.833 271.408 167.664 271.614 167.454 271.774C167.245 271.934 167.002 272.044 166.743 272.096C166.589 272.131 166.432 272.147 166.275 272.145ZM164.307 269.457C164.417 269.456 164.525 269.49 164.615 269.553C164.706 269.615 164.775 269.704 164.814 269.806C165.196 270.828 165.94 271.166 166.485 271.043C166.569 271.03 166.651 271 166.724 270.955C166.797 270.911 166.861 270.851 166.911 270.782C166.961 270.712 166.997 270.634 167.017 270.55C167.036 270.466 167.038 270.38 167.024 270.296C167.015 270.184 167.041 270.071 167.099 269.975C167.157 269.879 167.244 269.803 167.348 269.758C167.451 269.714 167.566 269.703 167.676 269.727C167.787 269.751 167.886 269.809 167.962 269.892C168.237 270.199 168.598 270.301 168.759 270.204C169.007 270.054 169.266 269.177 168.447 266.936C165.417 258.646 158.092 251.114 154.378 249.571L154.119 249.463C151.354 248.313 146.271 246.189 139.565 247.689L141.63 256.124L143.689 255.63C146.357 255.001 150.276 255.942 152.281 258.941C153.898 261.366 155.338 264.79 156.108 266.624C156.265 267 156.394 267.306 156.486 267.516C156.642 267.871 156.885 267.973 157.025 267.93C157.165 267.887 157.273 267.629 157.208 267.306C156.933 265.936 155.833 260.318 155.833 260.318C155.81 260.194 155.831 260.065 155.893 259.955C155.955 259.846 156.053 259.761 156.171 259.716C156.289 259.671 156.42 259.669 156.54 259.71C156.659 259.752 156.76 259.833 156.825 259.941C156.998 260.237 161.138 267.156 161.962 269.656C162.108 270.075 162.361 270.575 162.776 270.58C162.974 270.556 163.164 270.489 163.332 270.383C163.501 270.277 163.645 270.135 163.752 269.968C163.763 269.851 163.812 269.741 163.892 269.654C163.972 269.568 164.078 269.51 164.194 269.489L164.307 269.457Z" fill="#313439"/>
<path d="M238.117 287.35C238.117 287.35 237.292 307.934 233.572 317.407C229.853 326.88 236.877 325.439 239.146 321.708C241.415 317.977 239.146 343.75 236.877 350.33C234.607 356.91 239.976 355.889 243.275 345.389C246.574 334.89 246.784 331.18 246.784 331.18L238.117 287.35Z" fill="#313439"/>
<path d="M264.104 296.514C264.104 296.514 256.072 290.159 252.784 283.848C249.496 277.537 249.07 285.907 246.041 283.574C243.011 281.241 238.333 276.848 235.584 270.397C232.835 263.946 228.15 264.484 227.185 265.451C226.221 266.419 222.092 256.807 216.313 259.14C210.535 261.473 207.931 264.768 207.931 264.768C207.931 264.768 221.278 266.688 225.132 269.021C228.986 271.354 233.115 271.628 235.179 277.531C237.244 283.434 236.554 281.649 236.554 281.649C236.554 281.649 255.161 294.863 264.104 296.514Z" fill="#313439"/>
<path d="M92.2812 165.361C92.2812 165.361 95.5586 168.834 100.48 168.453L101.019 172.216C100.21 171.963 94.9387 170.189 92.2812 165.361Z" fill="#313439"/>
<path d="M101.046 172.763C100.996 172.768 100.945 172.768 100.895 172.763C99.8496 172.44 94.5401 170.612 91.8072 165.639C91.7185 165.525 91.6792 165.379 91.6979 165.236C91.7166 165.092 91.7918 164.962 91.9069 164.873C92.022 164.785 92.1675 164.746 92.3116 164.764C92.4556 164.783 92.5864 164.858 92.675 164.973C92.675 165.005 95.8392 168.257 100.437 167.897C100.579 167.893 100.718 167.94 100.828 168.03C100.938 168.12 101.012 168.246 101.035 168.386L101.574 172.15C101.588 172.24 101.578 172.332 101.546 172.418C101.514 172.504 101.461 172.58 101.391 172.639C101.294 172.719 101.172 172.763 101.046 172.763ZM94.7934 167.806C96.3946 169.376 98.2979 170.607 100.389 171.424L100.033 169.021C98.2109 169.07 96.4069 168.651 94.7934 167.806Z" fill="#313439"/>
<path d="M93.3808 146.696C93.2441 146.696 93.1124 146.645 93.0124 146.552C92.9123 146.459 92.8513 146.332 92.8417 146.196C92.8366 146.125 92.8455 146.055 92.868 145.987C92.8904 145.92 92.9259 145.858 92.9725 145.805C93.0191 145.751 93.0758 145.707 93.1394 145.676C93.203 145.644 93.2722 145.626 93.343 145.621C93.343 145.621 96.0813 145.411 97.3103 144.433C97.3655 144.388 97.4289 144.355 97.497 144.335C97.5651 144.315 97.6366 144.308 97.7072 144.316C97.7778 144.323 97.8462 144.344 97.9085 144.378C97.9709 144.412 98.0259 144.458 98.0704 144.513C98.155 144.626 98.1918 144.768 98.1726 144.908C98.1534 145.048 98.08 145.174 97.968 145.261C96.4964 146.449 93.5425 146.696 93.4185 146.696H93.3808Z" fill="#313439"/>
<path d="M100.987 159.597C100.496 159.597 100.184 159.597 100.141 159.565C99.9977 159.551 99.8663 159.48 99.7753 159.369C99.6843 159.259 99.6412 159.116 99.6555 158.974C99.6698 158.831 99.7403 158.7 99.8515 158.609C99.9627 158.518 100.106 158.475 100.248 158.49C100.292 158.49 104.642 158.904 107.256 156.248C107.303 156.191 107.362 156.145 107.429 156.111C107.495 156.078 107.568 156.059 107.642 156.055C107.716 156.052 107.79 156.063 107.859 156.089C107.929 156.115 107.992 156.155 108.046 156.207C108.099 156.258 108.141 156.32 108.169 156.389C108.197 156.457 108.21 156.531 108.209 156.605C108.207 156.679 108.19 156.752 108.159 156.819C108.127 156.886 108.082 156.946 108.027 156.995C105.763 159.318 102.512 159.597 100.987 159.597Z" fill="#313439"/>
<path d="M101.844 143.524C101.707 143.524 101.576 143.473 101.476 143.38C101.376 143.287 101.315 143.16 101.305 143.024C101.295 142.882 101.341 142.742 101.434 142.634C101.527 142.526 101.659 142.46 101.801 142.449C102.496 142.4 104.496 142.11 105.429 141.373C105.541 141.289 105.681 141.252 105.82 141.27C105.959 141.287 106.086 141.358 106.173 141.467C106.261 141.576 106.302 141.715 106.289 141.854C106.276 141.993 106.209 142.121 106.103 142.212C104.717 143.314 101.995 143.518 101.877 143.529L101.844 143.524Z" fill="#313439"/>
<path d="M103.202 153.93C103.059 153.952 102.913 153.917 102.796 153.832C102.679 153.747 102.601 153.619 102.579 153.476C102.557 153.333 102.592 153.188 102.678 153.071C102.763 152.955 102.892 152.877 103.035 152.855C103.46 152.745 103.839 152.499 104.113 152.156C104.113 152.156 104.113 152.102 104.064 152.006L104.032 151.952C103.611 151.183 100.663 146.189 100.625 146.157C100.581 146.096 100.55 146.026 100.534 145.953C100.518 145.879 100.518 145.803 100.534 145.729C100.549 145.656 100.58 145.586 100.624 145.525C100.668 145.464 100.725 145.413 100.79 145.376C100.855 145.338 100.928 145.314 101.003 145.306C101.078 145.298 101.154 145.305 101.225 145.328C101.297 145.351 101.363 145.389 101.42 145.439C101.476 145.489 101.521 145.55 101.552 145.619C101.676 145.823 104.495 150.586 104.97 151.479C105.081 151.632 105.154 151.809 105.182 151.997C105.211 152.184 105.193 152.375 105.131 152.554C104.84 153.414 103.611 153.855 103.369 153.93C103.314 153.941 103.257 153.941 103.202 153.93Z" fill="#313439"/>
<path d="M114.867 249.533C114.867 249.533 105.644 250.608 101.24 242.808C99.774 240.2 94.8256 238.507 99.1756 232.787C101.38 229.905 102.62 229.077 102.07 227.018C100.992 223.024 101.332 222.422 105.509 220.432C114.452 216.175 104.97 205.331 101.105 213.981C99.0139 218.669 92.2976 229.905 93.947 238.276C95.494 246.103 103.03 250.216 114.867 249.533Z" fill="#313439"/>
<path d="M83.5435 177.92L81.479 185.194L93.4509 195.215L97.8549 180.699L83.5435 177.92Z" fill="white"/>
<path d="M93.4511 195.753C93.3275 195.747 93.2095 195.7 93.1169 195.618L81.1288 185.608C81.0529 185.543 80.9965 185.459 80.9661 185.363C80.9356 185.269 80.9322 185.167 80.9563 185.07L83.0208 177.797C83.0575 177.666 83.1424 177.554 83.2583 177.483C83.3743 177.413 83.5128 177.388 83.646 177.415L97.9682 180.173C98.0424 180.186 98.1129 180.215 98.1751 180.258C98.2373 180.301 98.2899 180.356 98.3293 180.42C98.3685 180.485 98.3936 180.557 98.4028 180.632C98.4122 180.707 98.4055 180.783 98.3832 180.856L93.9793 195.371C93.9532 195.456 93.906 195.534 93.8419 195.597C93.7779 195.66 93.6991 195.706 93.6128 195.731C93.5605 195.747 93.5058 195.754 93.4511 195.753ZM82.0882 185L93.1708 194.28L97.165 181.103L83.9533 178.544L82.0882 185Z" fill="#313439"/>
<path d="M223.024 234.158C223.024 234.158 227.568 237.862 229.767 246.786C231.967 255.711 238.44 261.888 238.575 255.985C238.71 250.082 242.704 249.668 247.798 257.904C252.892 266.14 260.923 263.022 265.047 265.629C269.171 268.237 280.463 272.618 280.463 272.618L223.024 234.158Z" fill="#313439"/>
<path d="M143.77 383.772L184.644 411.362L197.856 408.411L145.694 383.498L143.77 383.772Z" fill="#313439"/>
<path d="M142.789 383.703L178.036 412.046L168.129 413.212L141.139 383.703H142.789Z" fill="#313439"/>
<path d="M82.8754 153.926C82.7944 153.925 82.7146 153.907 82.6418 153.871C82.569 153.836 82.5051 153.785 82.4549 153.721C82.3663 153.609 82.2556 153.517 82.1298 153.449C82.0038 153.382 81.8654 153.34 81.7229 153.328C81.5804 153.316 81.437 153.333 81.3015 153.379C81.1659 153.424 81.0411 153.497 80.9348 153.592C80.8786 153.635 80.8144 153.667 80.7458 153.685C80.6773 153.703 80.6059 153.708 80.5355 153.699C80.4652 153.69 80.3974 153.667 80.336 153.631C80.2745 153.596 80.2207 153.549 80.1775 153.493C80.1343 153.437 80.1027 153.373 80.0843 153.304C80.066 153.236 80.0613 153.165 80.0705 153.094C80.0798 153.024 80.1028 152.957 80.1383 152.895C80.1737 152.834 80.2209 152.78 80.2772 152.737C80.4946 152.555 80.7465 152.419 81.0178 152.336C81.2892 152.254 81.5745 152.226 81.8567 152.256C82.139 152.285 82.4123 152.371 82.6605 152.509C82.9087 152.646 83.1266 152.832 83.3012 153.055C83.3642 153.134 83.4033 153.23 83.4142 153.33C83.4251 153.431 83.4073 153.533 83.3628 153.624C83.3183 153.715 83.249 153.791 83.1627 153.845C83.0765 153.898 82.9769 153.926 82.8754 153.926Z" fill="#313439"/>
<path d="M305.706 286.235C304.981 286.248 304.257 286.174 303.55 286.014C303.453 285.99 303.364 285.939 303.295 285.867C303.225 285.795 303.177 285.705 303.156 285.607C303.134 285.51 303.14 285.408 303.174 285.314C303.207 285.219 303.267 285.136 303.345 285.074C304.214 284.338 304.995 283.504 305.674 282.59C306.713 281.279 307.831 280.031 309.021 278.854C309.535 278.313 310.189 277.926 310.911 277.736C311.632 277.546 312.393 277.561 313.107 277.778C313.628 277.925 314.099 278.212 314.468 278.607C314.836 279.002 315.089 279.492 315.199 280.02C315.317 280.757 315.199 282.219 313.161 283.73C311.014 285.348 308.398 286.227 305.706 286.235ZM304.919 285.122C307.635 285.297 310.325 284.498 312.503 282.869C313.684 281.998 314.255 281.052 314.121 280.181C314.047 279.848 313.884 279.54 313.648 279.292C313.413 279.043 313.114 278.864 312.784 278.773C312.256 278.621 311.695 278.618 311.166 278.765C310.637 278.913 310.159 279.203 309.787 279.606C308.623 280.753 307.532 281.97 306.52 283.251C306.021 283.904 305.487 284.528 304.919 285.122Z" fill="#313439"/>
<path d="M303.54 285.398C303.453 285.399 303.368 285.378 303.291 285.339C303.214 285.3 303.148 285.242 303.098 285.173C302.947 284.958 302.23 283.657 302.99 278.883C303.329 276.781 304.375 276.146 304.974 275.953C305.474 275.819 306.001 275.826 306.498 275.973C306.995 276.12 307.441 276.402 307.787 276.786C308.221 277.202 308.53 277.729 308.68 278.311C308.829 278.892 308.813 279.503 308.634 280.076C307.62 283.162 303.955 285.242 303.782 285.328C303.707 285.368 303.624 285.392 303.54 285.398ZM305.696 276.92C305.57 276.919 305.444 276.937 305.324 276.974C304.704 277.178 304.246 277.915 304.079 279.049C303.631 281.861 303.728 283.35 303.858 284.033C304.876 283.355 306.968 281.759 307.631 279.732C307.749 279.347 307.757 278.937 307.653 278.549C307.549 278.16 307.338 277.808 307.043 277.533C306.687 277.153 306.195 276.93 305.674 276.91L305.696 276.92Z" fill="#313439"/>
<path d="M251.372 399.148C250.471 399.129 249.58 398.958 248.736 398.642C242.623 396.492 240.985 392.342 240.92 392.191C240.884 392.097 240.875 391.993 240.895 391.894C240.915 391.794 240.962 391.703 241.032 391.629C241.102 391.556 241.191 391.503 241.29 391.478C241.388 391.453 241.492 391.456 241.588 391.487C242.837 391.852 244.116 392.104 245.41 392.24C246.839 392.438 248.644 392.691 250.989 393.234C252.779 393.648 254.062 394.691 254.412 396.014C254.533 396.43 254.535 396.873 254.418 397.29C254.301 397.708 254.069 398.085 253.749 398.379C253.083 398.926 252.233 399.2 251.372 399.148ZM242.51 392.831C243.373 394.116 245.308 396.293 249.092 397.626C250.838 398.245 252.326 398.223 253.021 397.567C253.198 397.407 253.324 397.2 253.386 396.97C253.448 396.741 253.443 396.498 253.372 396.272C253.178 395.546 252.391 394.659 250.747 394.261C248.423 393.723 246.742 393.492 245.259 393.283C244.24 393.143 243.362 393.019 242.51 392.831Z" fill="#313439"/>
<path d="M248.256 393.636C244.963 393.636 241.222 392.12 241.044 392.023C240.932 391.975 240.839 391.892 240.78 391.786C240.722 391.679 240.702 391.556 240.722 391.436C240.743 391.316 240.803 391.207 240.894 391.127C240.985 391.045 241.1 390.998 241.222 390.991C241.254 390.991 243.103 390.851 247.437 388.539C249.555 387.41 250.768 387.948 251.302 388.372C251.702 388.722 251.991 389.18 252.135 389.691C252.278 390.201 252.27 390.743 252.11 391.249C251.957 391.837 251.632 392.368 251.176 392.773C250.72 393.177 250.154 393.438 249.55 393.523C249.122 393.593 248.69 393.631 248.256 393.636ZM243.152 391.641C244.812 392.179 247.383 392.781 249.388 392.48C249.786 392.429 250.159 392.26 250.458 391.994C250.757 391.729 250.969 391.379 251.065 390.991C251.166 390.688 251.179 390.362 251.103 390.053C251.026 389.742 250.864 389.46 250.633 389.238C250.062 388.786 249.113 388.889 247.938 389.507C246.407 390.352 244.805 391.066 243.152 391.641Z" fill="#313439"/>
<path d="M191.663 304.024C191.663 304.024 200.54 302.584 207.354 298.466C214.167 294.348 217.261 299.288 214.992 302.584C212.723 305.879 208.383 318.642 212.717 316.169C217.051 313.696 219.946 317.201 218.291 323.158C216.636 329.114 216.226 340.452 218.501 339.624C220.776 338.797 220.355 361.666 220.355 361.666C220.355 361.666 209.332 313.819 206.836 308.137C202.912 299.186 191.663 304.024 191.663 304.024Z" fill="#313439"/>
<path d="M219.924 304.214C222.094 300.767 224.049 297.19 225.778 293.504C227.53 289.741 229.013 291.612 228.867 294.128C228.533 299.703 224.296 307.461 223.816 308.364C222.14 311.503 217.828 309.149 219.924 304.214Z" fill="#313439"/>
<path d="M319.225 281.273C319.225 281.273 321.085 285.085 317.16 287.246C313.236 289.407 305.701 291.058 302.299 290.026" fill="#E4FAFC"/>
<path d="M304.957 290.882C304.017 290.901 303.079 290.787 302.17 290.543C302.033 290.502 301.918 290.408 301.85 290.282C301.782 290.156 301.768 290.008 301.809 289.871C301.851 289.734 301.945 289.619 302.071 289.552C302.198 289.484 302.346 289.47 302.483 289.511C305.782 290.511 313.183 288.845 316.929 286.78C317.873 286.324 318.597 285.513 318.942 284.525C319.286 283.537 319.224 282.453 318.767 281.512C318.734 281.448 318.714 281.378 318.709 281.306C318.703 281.235 318.712 281.163 318.734 281.094C318.757 281.026 318.793 280.963 318.841 280.909C318.889 280.855 318.946 280.811 319.012 280.78C319.076 280.749 319.147 280.731 319.218 280.727C319.291 280.724 319.362 280.734 319.43 280.759C319.498 280.784 319.56 280.821 319.613 280.87C319.666 280.919 319.708 280.978 319.738 281.044C319.738 281.087 321.77 285.345 317.447 287.721C313.563 289.668 309.301 290.746 304.957 290.882Z" fill="#313439"/>
<path d="M237.184 393.584C239.329 397.707 242.924 400.896 247.28 402.54C250.584 403.981 253.064 401.411 253.064 401.411" fill="#E4FAFC"/>
<path d="M249.313 403.514C248.544 403.511 247.784 403.348 247.081 403.035C242.587 401.353 238.882 398.062 236.689 393.805C236.631 393.674 236.627 393.526 236.679 393.393C236.731 393.26 236.833 393.153 236.964 393.095C237.095 393.037 237.243 393.034 237.376 393.085C237.51 393.136 237.617 393.239 237.675 393.369C239.779 397.359 243.269 400.448 247.491 402.057C250.418 403.331 252.601 401.148 252.693 401.052C252.792 400.949 252.928 400.89 253.071 400.887C253.214 400.885 253.352 400.939 253.455 401.038C253.558 401.137 253.618 401.273 253.62 401.415C253.623 401.558 253.568 401.696 253.469 401.799C252.341 402.859 250.862 403.469 249.313 403.514Z" fill="#313439"/>
<path d="M224.9 408.512L239.658 410.366L236.92 414.205L224.431 412.99L224.9 408.512Z" fill="#313439"/>
<path d="M307.625 308.542L317.819 297.73L319.317 302.203L310.978 311.552L307.625 308.542Z" fill="#313439"/>
<path d="M164.517 270.882C164.388 270.884 164.262 270.839 164.164 270.756C164.064 270.673 163.999 270.558 163.978 270.431C163.388 267.446 162.4 264.553 161.04 261.829C160.976 261.703 160.963 261.557 161.005 261.423C161.048 261.288 161.142 261.175 161.267 261.109C161.394 261.042 161.541 261.029 161.678 261.071C161.814 261.114 161.928 261.208 161.995 261.335C163.415 264.152 164.44 267.152 165.04 270.248C165.063 270.388 165.03 270.532 164.947 270.648C164.864 270.764 164.739 270.843 164.598 270.866L164.517 270.882Z" fill="#313439"/>
<path d="M128.079 331.092C128.079 331.092 149.688 331.501 168.129 324.227C186.844 316.846 201.845 317.362 190.563 321.754C179.281 326.146 151.753 334.356 128.079 331.092Z" fill="#313439"/>
<path d="M75.5068 259.828C75.5068 259.828 80.3204 267.892 95.602 268.199C115.417 268.613 120.937 263.667 130.693 268.199C127.114 264.22 123.54 260.925 123.54 260.925C123.54 260.925 86.929 267.785 75.5068 259.828Z" fill="#313439"/>
<path d="M154.367 290.299C154.367 290.299 166.479 294.417 175.562 285.353C181.827 279.254 186.096 271.407 187.809 262.844C188.774 258.452 191.798 254.473 191.663 262.57C191.528 270.666 194.002 273.961 197.592 267.946C201.182 261.93 201.581 259.71 201.996 257.925C202.411 256.14 205.85 257.925 204.336 263.688C202.821 269.451 191.938 284.278 183.276 288.67C174.613 293.062 167.579 296.611 154.367 290.299Z" fill="#313439"/>
<path d="M214.27 266.139C214.27 266.139 205.7 264.22 199.716 279.579C199.716 276.01 203.84 267.053 209.209 263.865C211.1 264.051 212.877 264.85 214.27 266.139Z" fill="#313439"/>
<path d="M85.2793 314.029C85.1815 314.03 85.0851 314.004 85.0006 313.955C84.916 313.906 84.8466 313.835 84.7996 313.749C75.9648 297.223 90.7667 266.515 91.3973 265.22C91.4269 265.154 91.4693 265.095 91.5221 265.046C91.5748 264.997 91.6369 264.96 91.7046 264.935C91.7723 264.91 91.8443 264.899 91.9163 264.903C91.9882 264.907 92.0587 264.925 92.1236 264.956C92.1885 264.987 92.2464 265.031 92.294 265.085C92.3415 265.139 92.3777 265.202 92.4005 265.27C92.4232 265.339 92.4321 265.411 92.4264 265.482C92.4207 265.554 92.4007 265.623 92.3676 265.687C92.2167 265.999 77.1776 297.202 85.7537 313.238C85.7876 313.301 85.8088 313.369 85.8161 313.44C85.8233 313.51 85.8165 313.582 85.796 313.65C85.7754 313.718 85.7416 313.781 85.6964 313.836C85.6512 313.891 85.5956 313.936 85.5326 313.97C85.4543 314.009 85.3673 314.03 85.2793 314.029Z" fill="#313439"/>
<path d="M110.323 328.582C110.247 328.581 110.171 328.565 110.102 328.533C93.0092 320.684 103.731 291.847 112.344 268.661L113.422 265.817C113.447 265.75 113.485 265.689 113.533 265.637C113.581 265.585 113.639 265.543 113.704 265.513C113.769 265.484 113.838 265.468 113.909 265.465C113.98 265.463 114.051 265.474 114.118 265.5C114.251 265.549 114.359 265.649 114.419 265.778C114.479 265.907 114.485 266.054 114.436 266.188L113.358 269.037C104.9 291.799 94.373 320.109 110.555 327.555C110.667 327.606 110.758 327.694 110.813 327.804C110.869 327.914 110.884 328.039 110.858 328.159C110.831 328.28 110.764 328.387 110.668 328.464C110.572 328.541 110.452 328.582 110.328 328.582H110.323Z" fill="#313439"/>
<path d="M129.178 331.737C129.102 331.737 129.027 331.72 128.957 331.689C113.967 324.807 123.125 300.932 131.211 279.864C132.208 277.267 133.151 274.81 134.04 272.402C134.091 272.268 134.192 272.159 134.322 272.1C134.453 272.04 134.602 272.035 134.736 272.085C134.87 272.135 134.979 272.236 135.039 272.366C135.099 272.496 135.104 272.644 135.054 272.778C134.159 275.187 133.216 277.649 132.219 280.251C124.305 300.873 115.331 324.248 129.405 330.71C129.469 330.74 129.528 330.782 129.576 330.833C129.624 330.886 129.661 330.946 129.686 331.013C129.71 331.08 129.722 331.15 129.718 331.221C129.716 331.291 129.699 331.361 129.669 331.425C129.626 331.518 129.556 331.597 129.469 331.653C129.383 331.708 129.281 331.737 129.178 331.737Z" fill="#313439"/>
<path d="M149.964 331.056C149.885 331.057 149.807 331.039 149.737 331.003C139.625 326.363 146.401 308.085 151.354 294.736L151.775 293.612C151.795 293.541 151.829 293.474 151.877 293.417C151.924 293.359 151.982 293.312 152.049 293.278C152.115 293.244 152.188 293.224 152.262 293.22C152.337 293.215 152.411 293.226 152.481 293.252C152.551 293.277 152.615 293.318 152.668 293.369C152.722 293.421 152.765 293.483 152.793 293.552C152.821 293.62 152.835 293.694 152.833 293.768C152.831 293.843 152.815 293.916 152.783 293.983L152.368 295.107C147.565 308.063 140.989 325.804 150.212 330.051C150.341 330.111 150.441 330.219 150.49 330.352C150.54 330.484 150.535 330.632 150.476 330.761C150.429 330.854 150.355 330.932 150.264 330.985C150.173 331.038 150.069 331.062 149.964 331.056Z" fill="#313439"/>
<path d="M173.061 325.561C172.983 325.56 172.906 325.543 172.835 325.512C166.528 322.62 170.361 312.303 173.444 304.008L173.816 303.008C173.873 302.886 173.974 302.789 174.1 302.738C174.225 302.686 174.364 302.684 174.492 302.73C174.618 302.777 174.723 302.87 174.785 302.99C174.846 303.11 174.86 303.249 174.824 303.379L174.452 304.384C171.531 312.255 167.887 322.05 173.288 324.528C173.353 324.557 173.41 324.6 173.459 324.652C173.507 324.704 173.544 324.764 173.569 324.831C173.594 324.897 173.604 324.968 173.602 325.039C173.599 325.11 173.582 325.179 173.552 325.243C173.509 325.338 173.44 325.418 173.354 325.474C173.266 325.53 173.165 325.56 173.061 325.561Z" fill="#313439"/>
<path d="M146.864 331.12C146.821 331.125 146.778 331.125 146.735 331.12C116.915 323.738 100.319 305.492 91.651 291.482C82.2556 276.306 79.8838 262.672 79.8623 262.538C79.8506 262.467 79.853 262.395 79.8693 262.325C79.8856 262.255 79.9155 262.19 79.9573 262.132C80.0417 262.014 80.1694 261.935 80.3124 261.911C80.4553 261.888 80.6018 261.922 80.7196 262.007C80.8373 262.09 80.9167 262.218 80.9403 262.36C80.9403 262.495 83.3121 275.951 92.605 290.95C101.154 304.75 117.546 322.771 147.021 330.061C147.091 330.069 147.16 330.092 147.222 330.126C147.284 330.161 147.339 330.208 147.383 330.264C147.427 330.32 147.459 330.384 147.479 330.453C147.498 330.521 147.503 330.592 147.495 330.663C147.486 330.734 147.464 330.802 147.429 330.864C147.394 330.926 147.347 330.98 147.291 331.024C147.235 331.068 147.171 331.1 147.102 331.12C147.033 331.139 146.962 331.144 146.891 331.136L146.864 331.12Z" fill="#313439"/>
<path d="M173.568 323.759C163.326 323.759 153.844 321.91 145.279 318.227C135.388 313.975 126.682 307.282 119.406 298.336C111.814 288.86 106.228 277.948 102.987 266.257C102.954 266.114 102.979 265.965 103.057 265.841C103.135 265.717 103.259 265.629 103.402 265.596C103.545 265.563 103.695 265.588 103.819 265.666C103.944 265.743 104.032 265.867 104.065 266.01C107.267 277.555 112.787 288.331 120.29 297.686C131.55 311.513 152.351 326.883 187.48 321.604C187.623 321.582 187.769 321.618 187.885 321.704C188.001 321.79 188.079 321.918 188.1 322.061C188.122 322.203 188.085 322.348 187.999 322.464C187.913 322.58 187.785 322.657 187.642 322.679C182.984 323.39 178.28 323.75 173.568 323.759Z" fill="#313439"/>
<path d="M265.015 212.675C264.748 212.728 264.472 212.715 264.211 212.638C264.75 212.046 265.219 211.46 265.651 210.96C266.993 209.412 267.408 207.665 265.651 207.047C264.481 206.633 263.495 207.665 261.7 209.536C260.993 210.272 259.328 210.278 257.986 210.143C253.84 208.181 249.437 205.832 249.437 205.832C250.457 205.443 251.456 204.998 252.428 204.498C255.269 202.977 256.8 198.182 252.967 199.52C249.135 200.859 247.065 201.671 243.06 203.364C239.384 204.929 236.71 206.66 232.619 208.203L235.529 218.734C235.529 218.734 236.51 218.32 237.686 217.858C241.281 216.455 248.973 219.938 257.711 221.051C262.508 221.659 265.834 219.406 267.483 216.519C269.133 213.632 267.289 211.923 265.015 212.675Z" fill="#E4FAFC"/>
<path d="M259.231 221.687C258.703 221.687 258.175 221.653 257.652 221.585C254.294 221.098 250.967 220.415 247.69 219.537C243.496 218.494 239.874 217.591 237.896 218.359C236.715 218.822 235.74 219.23 235.74 219.23C235.67 219.261 235.595 219.278 235.519 219.278C235.443 219.278 235.367 219.261 235.298 219.23C235.228 219.196 235.167 219.149 235.118 219.089C235.068 219.03 235.033 218.96 235.012 218.886L232.101 208.333C232.066 208.204 232.08 208.066 232.141 207.947C232.202 207.828 232.305 207.735 232.43 207.688C234.5 206.884 236.522 205.965 238.489 204.935C239.858 204.247 241.276 203.532 242.855 202.86C246.865 201.156 248.817 200.398 252.795 199.006C254.816 198.296 255.49 199.21 255.657 199.629C256.304 201.102 254.784 203.844 252.692 204.962C252.029 205.317 251.302 205.645 250.72 205.892C252.245 206.699 255.258 208.263 258.137 209.629C259.754 209.785 260.886 209.629 261.306 209.177C263.187 207.209 264.325 206.021 265.829 206.554C266.176 206.647 266.492 206.828 266.748 207.08C267.004 207.332 267.191 207.644 267.289 207.989C267.537 208.919 267.09 210.139 266.06 211.322L265.521 211.93L265.441 212.026C265.918 211.917 266.416 211.937 266.883 212.086C267.35 212.234 267.768 212.505 268.093 212.87C268.88 213.827 268.826 215.257 267.942 216.8C267.067 218.323 265.796 219.581 264.262 220.442C262.729 221.302 260.99 221.732 259.231 221.687ZM239.777 216.994C241.933 216.994 244.699 217.682 247.954 218.494C251.19 219.365 254.475 220.042 257.792 220.521C263.5 221.246 266.152 217.779 267.025 216.257C267.672 215.123 267.769 214.134 267.284 213.569C266.799 213.005 266.06 212.924 265.187 213.215C264.834 213.308 264.463 213.308 264.109 213.215C264.016 213.195 263.93 213.152 263.859 213.089C263.788 213.026 263.736 212.945 263.706 212.855C263.676 212.765 263.671 212.669 263.691 212.576C263.711 212.483 263.754 212.398 263.818 212.327C264.141 211.967 264.443 211.612 264.724 211.252C264.907 211.032 265.079 210.822 265.263 210.629C266.028 209.747 266.416 208.844 266.265 208.274C266.206 208.101 266.104 207.947 265.968 207.825C265.832 207.702 265.667 207.616 265.489 207.575C264.67 207.285 263.872 208.113 262.104 209.93C261.414 210.656 260.012 210.914 257.948 210.699C257.888 210.693 257.83 210.677 257.775 210.65C253.663 208.704 249.253 206.349 249.205 206.306C249.114 206.257 249.038 206.183 248.988 206.092C248.938 206.001 248.915 205.898 248.922 205.795C248.93 205.691 248.967 205.592 249.03 205.509C249.092 205.426 249.177 205.363 249.275 205.328C250.274 204.949 251.252 204.514 252.202 204.027C253.932 203.102 255.032 200.855 254.687 200.076C254.487 199.624 253.56 199.893 253.167 200.033C249.221 201.414 247.28 202.183 243.292 203.86C241.745 204.521 240.343 205.226 238.979 205.909C237.238 206.779 235.449 207.683 233.276 208.527L235.896 218.026C236.295 217.865 236.872 217.628 237.513 217.381C238.237 217.112 239.005 216.98 239.777 216.994Z" fill="#313439"/>
<path d="M245.82 211.874H245.664C245.521 211.874 245.383 211.817 245.282 211.716C245.181 211.616 245.125 211.479 245.125 211.336C245.125 211.194 245.181 211.057 245.282 210.956C245.383 210.855 245.521 210.799 245.664 210.799H245.717C246.31 210.799 247.76 210.75 248.58 209.723C249.243 208.912 249.372 207.632 248.962 205.917C248.94 205.847 248.932 205.772 248.939 205.698C248.947 205.625 248.969 205.553 249.006 205.489C249.042 205.424 249.092 205.368 249.151 205.323C249.211 205.278 249.279 205.246 249.351 205.229C249.423 205.212 249.499 205.21 249.572 205.224C249.645 205.237 249.714 205.265 249.776 205.306C249.838 205.348 249.891 205.402 249.931 205.464C249.97 205.526 249.997 205.597 250.008 205.67C250.504 207.723 250.305 209.315 249.415 210.401C248.359 211.702 246.65 211.874 245.82 211.874Z" fill="#313439"/>
<path d="M256.843 216.047C256.707 216.047 256.574 215.996 256.475 215.903C256.375 215.81 256.314 215.683 256.304 215.547L255.964 211.155C255.954 211.013 256 210.873 256.093 210.765C256.186 210.657 256.318 210.59 256.46 210.58C256.603 210.569 256.743 210.615 256.851 210.708C256.959 210.801 257.026 210.932 257.037 211.074L257.382 215.466C257.392 215.608 257.346 215.748 257.253 215.856C257.16 215.964 257.028 216.03 256.886 216.042L256.843 216.047Z" fill="#313439"/>
<path d="M260.918 214.133C259.473 214.036 258.047 213.753 256.676 213.289C256.608 213.266 256.546 213.231 256.493 213.185C256.439 213.139 256.395 213.082 256.364 213.019C256.332 212.956 256.313 212.887 256.308 212.817C256.302 212.746 256.311 212.676 256.334 212.608C256.356 212.541 256.391 212.479 256.438 212.426C256.484 212.372 256.541 212.328 256.604 212.297C256.667 212.265 256.736 212.246 256.806 212.241C256.877 212.236 256.948 212.245 257.015 212.267C257.894 212.557 260.411 213.262 261.468 213.009C262.352 212.792 263.217 212.504 264.055 212.149C264.186 212.09 264.335 212.086 264.469 212.137C264.603 212.188 264.711 212.29 264.769 212.42C264.828 212.55 264.832 212.699 264.781 212.833C264.73 212.966 264.628 213.074 264.497 213.133C263.596 213.513 262.666 213.822 261.716 214.057C261.453 214.112 261.186 214.137 260.918 214.133Z" fill="#313439"/>
<path d="M260.384 216.674C259.155 216.594 257.943 216.353 256.778 215.954C256.642 215.91 256.53 215.813 256.465 215.686C256.4 215.559 256.389 215.412 256.433 215.276C256.455 215.209 256.49 215.146 256.537 215.092C256.583 215.038 256.64 214.993 256.703 214.962C256.767 214.93 256.836 214.911 256.908 214.905C256.979 214.9 257.05 214.91 257.118 214.932C258.137 215.271 260.05 215.744 260.821 215.556C261.559 215.378 262.28 215.137 262.977 214.835C263.042 214.807 263.111 214.791 263.183 214.789C263.253 214.788 263.324 214.8 263.39 214.825C263.456 214.851 263.516 214.889 263.567 214.938C263.619 214.987 263.66 215.045 263.689 215.11C263.747 215.239 263.751 215.387 263.701 215.52C263.65 215.653 263.549 215.761 263.419 215.819C262.657 216.146 261.869 216.409 261.064 216.604C260.84 216.653 260.612 216.676 260.384 216.674Z" fill="#313439"/>
</g>
<g clip-path="url(#clip2_1898_1128)">
<path d="M302.902 59.2871H376.02C379.123 59.2871 382.099 60.5204 384.294 62.7155C386.488 64.9107 387.721 67.888 387.721 70.9925V215.452C387.726 218.567 386.499 221.557 384.308 223.769C382.116 225.981 379.139 227.236 376.026 227.259H309.332V226.984L303.19 226.966C296.727 226.966 291.202 221.917 291.202 215.452V70.9925C291.202 67.888 292.434 64.9107 294.629 62.7155C296.823 60.5204 299.799 59.2871 302.902 59.2871Z" fill="#E4FAFC"/>
<path d="M290.319 77.7246H382.168V206.957H290.319V77.7246Z" fill="white"/>
<path d="M380.999 73.0418C373.705 74.5049 367.71 70.9448 363.644 67.4817C356.427 61.3364 350.229 65.7259 342.264 66.0186C334.298 66.3112 330.194 64.6543 323.148 61.9217C317.111 59.5806 316.124 59.7012 311.964 59.4946C321.252 59.0814 372.028 59.288 372.028 59.288C372.028 59.288 378.887 60.1589 380.614 68.4708C380.913 69.9753 381.042 71.5085 380.999 73.0418Z" fill="white"/>
<path d="M377.634 223.896C377.634 223.896 362.277 224.627 355.842 222.871C349.407 221.116 344.726 216.433 337.706 218.775C330.686 221.116 320.155 225.213 311.38 220.53C302.604 215.848 296.765 212.922 291.202 213.8C291.19 217.897 292.074 226.968 304.359 226.968C319.57 226.968 371.111 227.16 371.111 227.16C373.562 226.745 375.833 225.609 377.634 223.896Z" fill="white"/>
<path d="M326.883 67.7734H345.604C346.735 67.7734 347.652 68.6906 347.652 69.8219C347.652 70.9532 346.735 71.8703 345.604 71.8703H326.883C325.753 71.8703 324.836 70.9532 324.836 69.8219C324.836 68.6906 325.753 67.7734 326.883 67.7734Z" fill="#313439"/>
<path d="M315.768 71.8703C314.637 71.8703 313.72 70.9532 313.72 69.8219C313.72 68.6906 314.637 67.7734 315.768 67.7734C316.899 67.7734 317.815 68.6906 317.815 69.8219C317.815 70.9532 316.899 71.8703 315.768 71.8703Z" fill="#313439"/>
<path d="M290.325 206.717V70.9934C290.328 67.6573 291.654 64.4588 294.013 62.0998C296.371 59.7408 299.568 58.4139 302.903 58.4102H376.02C379.355 58.414 382.552 59.741 384.91 62.1C387.268 64.459 388.594 67.6573 388.598 70.9934V215.453C388.608 218.802 387.29 222.018 384.934 224.396C382.577 226.774 379.373 228.12 376.026 228.138H302.897C302.68 228.138 302.465 228.132 302.253 228.122C299.023 227.937 295.987 226.521 293.768 224.165C291.55 221.809 290.318 218.692 290.327 215.456L290.321 206.776C290.319 206.756 290.323 206.738 290.325 206.717ZM309.338 60.166H302.903C300.033 60.1691 297.282 61.3108 295.253 63.3407C293.224 65.3705 292.083 68.1227 292.08 70.9934V77.724H380.408V70.9934C380.404 68.1228 379.263 65.3707 377.234 63.3408C375.205 61.311 372.454 60.1692 369.585 60.166H309.338ZM292.08 205.898H380.408V79.4798H292.08V205.898ZM376.026 226.382C378.908 226.365 381.666 225.205 383.694 223.156C385.722 221.107 386.854 218.337 386.843 215.453V70.9934C386.84 68.1228 385.698 65.3707 383.669 63.3408C381.64 61.311 378.889 60.1692 376.02 60.166H375.961C377.847 61.2749 379.411 62.8571 380.499 64.756C381.587 66.6549 382.16 68.8049 382.163 70.9934V206.717C382.163 206.736 382.169 206.755 382.169 206.776L382.163 215.455C382.165 217.658 381.594 219.824 380.507 221.739C379.42 223.655 377.853 225.255 375.961 226.382H376.026ZM292.08 215.453C292.068 218.337 293.201 221.107 295.229 223.156C297.257 225.205 300.015 226.365 302.897 226.382H369.59C372.473 226.365 375.23 225.205 377.258 223.156C379.286 221.107 380.419 218.337 380.408 215.453V207.654H292.08V215.453Z" fill="#313439"/>
</g>
<g clip-path="url(#clip3_1898_1128)">
<path d="M338.831 136.339C338.831 136.339 346.742 131.313 347.535 124.452C348.329 117.591 342.952 117.731 343.481 112.339C343.964 107.353 341.722 102.201 335.723 100.187C327.032 97.2616 324.241 100.732 318.639 98.7375C313.036 96.743 304.22 91.5376 301.442 100.512C299.65 106.31 302.348 113.696 310.126 116.435C316.344 118.629 324.366 131.519 328.335 133.055C331.765 134.358 335.271 135.455 338.831 136.339Z" fill="#313439"/>
<path d="M338.831 137.003C338.781 137.01 338.729 137.01 338.679 137.003C335.089 136.108 331.555 134.998 328.097 133.679C326.212 132.941 323.692 130.089 320.781 126.785C317.243 122.796 313.235 118.229 309.908 117.059C301.548 114.114 298.982 106.229 300.807 100.306C301.561 97.8661 302.791 96.2107 304.557 95.3797C307.983 93.7443 312.441 95.5459 316.377 97.1415C317.256 97.4938 318.083 97.8063 318.85 98.1054C321.231 98.9564 323.077 98.7702 325.206 98.5243C328.814 97.9753 332.502 98.3293 335.941 99.5547C342.7 101.815 344.612 107.672 344.149 112.392C343.931 114.646 344.85 115.796 345.908 117.126C347.231 118.748 348.673 120.583 348.203 124.525C347.357 131.632 339.506 136.684 339.175 136.897C339.073 136.964 338.954 137.001 338.831 137.003ZM307.653 96.0778C306.787 96.0585 305.928 96.2358 305.139 96.5963C303.73 97.2611 302.732 98.5907 302.084 100.711C300.443 106.03 302.785 113.143 310.358 115.816C314.015 117.106 318.142 121.799 321.787 125.921C324.465 128.959 326.999 131.838 328.593 132.456C331.902 133.706 335.277 134.767 338.705 135.634C339.989 134.75 346.212 130.202 346.874 124.372C347.277 120.988 346.107 119.519 344.89 117.963C343.752 116.534 342.575 115.058 342.846 112.272C343.263 108.058 341.556 102.839 335.57 100.818C332.309 99.6642 328.816 99.3332 325.398 99.8539C323.196 100.093 321.119 100.313 318.453 99.3619C317.66 99.0827 316.82 98.737 315.927 98.378C313.182 97.2811 310.199 96.0778 307.653 96.0778Z" fill="#313439"/>
<path d="M355.406 166.621C351.914 162.525 349.01 160.637 343.263 158.55L338.071 128.773C344.076 129.165 344.327 118.056 336.086 120.051C334.261 120.456 334.433 124.704 334.433 124.704C334.334 128.74 331.252 128.108 330.292 122.304C328.791 113.203 315.98 119.599 310.649 116.248C309.445 128.481 309.987 136.678 311.8 141.358C314.353 147.959 321.688 149.096 327.131 145.825C327.038 149.555 327.052 156.981 327.071 161.116C323.943 164.327 319.082 170.111 319.082 170.111C329.538 172.584 342.052 170.536 355.406 166.621Z" fill="#E4FAFC"/>
<path d="M313.017 116.954C313.017 116.954 310.319 133.926 314.558 141.678C318.262 148.439 325.511 146.405 325.511 146.405C325.511 146.405 318.573 151.364 312.481 142.762C308.235 135.323 310.861 115.943 310.861 115.943L313.017 116.954Z" fill="white"/>
<path d="M322.594 127.078C324.336 127.078 325.749 126.304 325.749 125.35C325.749 124.395 324.336 123.621 322.594 123.621C320.852 123.621 319.439 124.395 319.439 125.35C319.439 126.304 320.852 127.078 322.594 127.078Z" fill="white"/>
<path d="M322.594 127.743C320.418 127.743 318.777 126.712 318.777 125.35C318.777 123.987 320.418 122.963 322.594 122.963C324.77 122.963 326.41 124 326.41 125.33C326.41 126.659 324.77 127.743 322.594 127.743ZM322.594 124.293C321.099 124.293 320.1 124.957 320.1 125.35C320.1 125.742 321.099 126.413 322.594 126.413C324.088 126.413 325.087 125.748 325.087 125.35C325.087 124.951 324.095 124.293 322.594 124.293Z" fill="#313439"/>
<path d="M320.874 126.818C321.502 126.818 322.012 126.306 322.012 125.675C322.012 125.043 321.502 124.531 320.874 124.531C320.246 124.531 319.736 125.043 319.736 125.675C319.736 126.306 320.246 126.818 320.874 126.818Z" fill="#313439"/>
<path d="M312.997 127.078C314.633 127.078 315.96 126.304 315.96 125.35C315.96 124.395 314.633 123.621 312.997 123.621C311.36 123.621 310.034 124.395 310.034 125.35C310.034 126.304 311.36 127.078 312.997 127.078Z" fill="white"/>
<path d="M312.997 127.743C310.967 127.743 309.373 126.692 309.373 125.35C309.373 124.007 310.967 122.963 312.997 122.963C315.028 122.963 316.622 124 316.622 125.33C316.622 126.659 315.028 127.743 312.997 127.743ZM312.997 124.293C311.595 124.293 310.695 124.917 310.695 125.35C310.695 125.782 311.595 126.413 312.997 126.413C314.399 126.413 315.299 125.748 315.299 125.35C315.299 124.951 314.399 124.293 312.997 124.293Z" fill="#313439"/>
<path d="M311.548 126.818C312.177 126.818 312.686 126.306 312.686 125.675C312.686 125.043 312.177 124.531 311.548 124.531C310.92 124.531 310.411 125.043 310.411 125.675C310.411 126.306 310.92 126.818 311.548 126.818Z" fill="#313439"/>
<path d="M317.369 135.122H317.283C316.932 135.082 315.18 134.803 314.677 133.753C314.569 133.519 314.525 133.26 314.548 133.003C314.571 132.747 314.661 132.501 314.809 132.29C315.412 131.159 315.91 129.975 316.297 128.753C316.324 128.67 316.366 128.592 316.422 128.525C316.479 128.458 316.547 128.403 316.625 128.363C316.702 128.323 316.787 128.299 316.873 128.291C316.96 128.284 317.047 128.294 317.131 128.321C317.213 128.348 317.291 128.39 317.358 128.447C317.424 128.503 317.479 128.572 317.519 128.65C317.559 128.728 317.583 128.813 317.59 128.9C317.598 128.988 317.587 129.075 317.561 129.159C317.143 130.482 316.6 131.762 315.94 132.981C315.894 133.054 315.854 133.141 315.874 133.181C316.323 133.546 316.872 133.764 317.448 133.806C317.623 133.816 317.788 133.897 317.904 134.029C318.021 134.161 318.081 134.334 318.07 134.51C318.059 134.687 317.979 134.852 317.848 134.969C317.717 135.086 317.544 135.146 317.369 135.135V135.122Z" fill="#313439"/>
<path d="M318.612 140.62C317.598 140.62 316.61 140.299 315.788 139.703C315.646 139.598 315.551 139.442 315.524 139.267C315.496 139.093 315.539 138.915 315.643 138.772C315.746 138.629 315.902 138.533 316.075 138.506C316.249 138.478 316.426 138.522 316.569 138.626C318.745 140.135 320.974 138.586 321.066 138.519C321.136 138.464 321.217 138.423 321.303 138.4C321.389 138.377 321.479 138.371 321.567 138.383C321.655 138.396 321.74 138.426 321.816 138.472C321.893 138.519 321.959 138.58 322.011 138.653C322.064 138.725 322.101 138.808 322.12 138.895C322.14 138.982 322.142 139.073 322.126 139.161C322.11 139.249 322.076 139.333 322.027 139.408C321.978 139.483 321.914 139.547 321.84 139.596C320.886 140.244 319.764 140.6 318.612 140.62Z" fill="#313439"/>
<path d="M326.973 145.941C328.975 144.836 330.755 143.363 332.218 141.6C331.212 145.01 329.056 148.726 327.052 149.577C327.088 148.365 327.062 147.151 326.973 145.941Z" fill="#313439"/>
<path d="M327.032 150.247C326.896 150.245 326.765 150.201 326.655 150.121C326.564 150.057 326.49 149.972 326.44 149.872C326.39 149.772 326.366 149.661 326.371 149.549C326.443 148.053 326.298 146.006 326.298 145.986C326.283 145.852 326.309 145.716 326.373 145.598C326.437 145.479 326.535 145.382 326.655 145.321C328.568 144.25 330.272 142.837 331.682 141.153C331.778 141.032 331.912 140.949 332.062 140.917C332.213 140.885 332.369 140.907 332.505 140.978C332.641 141.05 332.749 141.167 332.808 141.309C332.868 141.451 332.876 141.61 332.833 141.758C331.821 145.195 329.592 149.184 327.29 150.168C327.209 150.21 327.122 150.237 327.032 150.247ZM327.641 146.318C327.641 146.77 327.707 147.535 327.713 148.313C328.863 147.165 329.791 145.812 330.452 144.324C329.589 145.065 328.666 145.732 327.693 146.318H327.641Z" fill="#313439"/>
<path d="M328.917 171.867C325.555 171.896 322.202 171.532 318.923 170.783C318.814 170.758 318.713 170.705 318.63 170.629C318.546 170.554 318.483 170.458 318.447 170.351C318.406 170.24 318.395 170.12 318.417 170.003C318.437 169.886 318.489 169.777 318.566 169.686C318.619 169.626 323.289 164.075 326.397 160.844C326.397 157.075 326.397 150.806 326.437 146.943C323.609 148.372 320.339 148.632 317.323 147.668C315.907 147.189 314.618 146.395 313.551 145.345C312.483 144.295 311.666 143.017 311.158 141.605C309.207 136.552 308.804 128.003 309.961 116.189C309.972 116.077 310.011 115.969 310.074 115.876C310.139 115.783 310.225 115.708 310.325 115.657C310.428 115.604 310.544 115.579 310.66 115.585C310.776 115.591 310.889 115.627 310.986 115.691C312.865 116.874 316 116.714 319.029 116.568C324.135 116.316 329.909 116.03 330.934 122.206C331.457 125.397 332.608 126.687 333.097 126.627C333.355 126.627 333.725 125.962 333.759 124.699C333.759 124.247 333.633 119.912 335.928 119.38C339.506 118.516 341.285 120.045 342.033 120.983C342.65 121.842 343.014 122.859 343.086 123.916C343.157 124.974 342.932 126.03 342.436 126.966C342.097 127.648 341.589 128.232 340.962 128.662C340.334 129.091 339.607 129.352 338.851 129.419L343.838 158.046C349.493 160.133 352.437 162.141 355.902 166.183C355.974 166.266 356.023 166.367 356.047 166.475C356.07 166.583 356.066 166.695 356.035 166.801C356.004 166.909 355.946 167.006 355.867 167.085C355.789 167.164 355.691 167.222 355.585 167.253C345.049 170.338 336.331 171.867 328.917 171.867ZM320.319 169.726C329.036 171.494 339.877 170.391 354.249 166.282C351.153 162.845 348.382 161.11 343.065 159.189C342.954 159.15 342.856 159.081 342.781 158.991C342.705 158.901 342.655 158.793 342.635 158.677L337.449 128.9C337.432 128.801 337.437 128.7 337.465 128.603C337.492 128.506 337.541 128.417 337.608 128.342C337.675 128.267 337.758 128.208 337.851 128.17C337.943 128.132 338.044 128.116 338.144 128.123C338.787 128.187 339.433 128.053 339.998 127.738C340.563 127.423 341.019 126.943 341.305 126.361C341.675 125.651 341.844 124.853 341.793 124.054C341.743 123.255 341.476 122.484 341.021 121.827C340.068 120.597 338.375 120.198 336.259 120.71C335.379 120.909 335.055 123.21 335.114 124.699C335.042 127.611 333.646 127.936 333.223 127.963C331.642 128.076 330.233 125.902 329.658 122.432C328.831 117.426 324.115 117.658 319.128 117.911C316.311 118.051 313.407 118.19 311.231 117.299C310.213 128.402 310.616 136.419 312.442 141.139C312.877 142.372 313.582 143.49 314.506 144.411C315.43 145.332 316.549 146.032 317.779 146.458C319.276 146.919 320.855 147.051 322.408 146.847C323.961 146.643 325.451 146.107 326.781 145.275C326.881 145.216 326.996 145.186 327.111 145.186C327.228 145.186 327.342 145.216 327.442 145.275C327.545 145.334 327.63 145.421 327.688 145.525C327.746 145.629 327.776 145.747 327.773 145.866C327.68 149.576 327.694 157.035 327.713 161.157C327.713 161.332 327.644 161.498 327.522 161.622C325.174 164.022 321.741 167.991 320.292 169.713L320.319 169.726Z" fill="#313439"/>
<path d="M278.154 316.522C278.154 316.522 320.332 353.977 393.628 343.281C457.56 333.973 456.614 246.571 413.695 221.853C359.03 190.362 219.183 270.836 278.154 316.522Z" fill="#E4FAFC"/>
<path d="M347.959 190.27C350.161 215.998 343.005 237.604 336.47 250.328C326.093 270.552 275.727 271.948 267.023 271.655C258.319 271.363 243.04 278.15 240.725 280.298C238.411 282.445 235.924 281.315 238.186 277.193C243.12 268.205 255.455 264.489 264.397 263.232C274.629 261.816 302.758 256.697 305.338 246.18C307.917 235.663 311.581 222.16 312.818 193.328" fill="#E4FAFC"/>
<path d="M238.489 282.09C238.071 282.099 237.662 281.963 237.332 281.704C236.829 281.312 235.85 280.056 237.583 276.898C243.258 266.56 258.146 263.462 264.284 262.611C270.561 261.74 301.984 256.854 304.676 246.057L305.007 244.728C307.52 234.669 310.96 220.901 312.137 193.325C312.143 193.149 312.22 192.982 312.349 192.863C312.478 192.743 312.649 192.68 312.825 192.687C313 192.694 313.165 192.77 313.284 192.9C313.403 193.03 313.466 193.202 313.46 193.378C312.276 221.087 308.83 234.942 306.29 245.054L305.959 246.383C303.142 257.685 273.491 262.678 264.47 263.927C258.517 264.752 244.131 267.73 238.741 277.543C237.729 279.378 237.828 280.415 238.139 280.661C238.45 280.907 239.263 280.767 240.255 279.836C242.636 277.596 258.001 270.682 267.029 270.994C279.087 271.393 326.132 269 335.881 250.026C345.067 231.555 349.017 210.898 347.297 190.32C347.283 190.144 347.337 189.971 347.45 189.836C347.563 189.702 347.724 189.617 347.899 189.602C348.074 189.587 348.246 189.642 348.38 189.756C348.514 189.87 348.598 190.032 348.613 190.207C350.353 211.033 346.356 231.938 337.059 250.631C332.568 259.387 320.523 265.683 301.237 269.339C289.94 271.431 278.469 272.428 266.983 272.317C258.437 272.031 243.377 278.726 241.188 280.807C240.477 281.555 239.516 282.013 238.489 282.09Z" fill="#313439"/>
<path d="M323.129 217.858C323.129 217.858 310.331 217.698 305.701 216.462C308.347 207.474 313.182 184.318 313.182 184.318" fill="white"/>
<path d="M323.13 218.524C322.6 218.524 310.193 218.352 305.543 217.108C305.457 217.086 305.376 217.046 305.305 216.991C305.235 216.936 305.176 216.867 305.133 216.789C305.09 216.712 305.062 216.627 305.052 216.539C305.042 216.452 305.049 216.362 305.073 216.277C307.659 207.415 312.494 184.413 312.54 184.18C312.578 184.004 312.683 183.849 312.833 183.751C312.982 183.653 313.166 183.618 313.341 183.655C313.516 183.692 313.67 183.798 313.768 183.948C313.866 184.099 313.9 184.283 313.863 184.46C313.817 184.686 309.233 206.638 306.588 215.978C311.535 217.042 323.07 217.195 323.189 217.195C323.364 217.195 323.533 217.265 323.657 217.39C323.781 217.514 323.85 217.683 323.85 217.86C323.85 218.036 323.781 218.205 323.657 218.33C323.533 218.454 323.364 218.524 323.189 218.524H323.13Z" fill="#313439"/>
<path d="M312.825 187.948C313.184 180.829 315.805 174.012 320.306 168.502C320.426 168.74 320.601 168.944 320.815 169.101C323.461 171.002 335.796 170.683 342.74 167.286C346.775 165.291 347.714 163.104 348.356 160.811C355.334 164.427 364.143 173.708 367.384 182.516C383.079 225.171 376.77 297.209 376.77 297.209C367.179 279.678 331.133 271.208 318.93 270.038C315.665 256.968 314.68 243.426 316.02 230.017C317.481 216.408 312.243 201.384 312.825 187.948Z" fill="white"/>
<path d="M376.769 297.875C376.65 297.875 376.534 297.843 376.431 297.783C376.329 297.722 376.245 297.635 376.187 297.53C366.789 280.351 330.881 271.855 318.864 270.705C318.732 270.691 318.608 270.638 318.506 270.553C318.405 270.467 318.331 270.354 318.295 270.226C315.027 257.067 314.035 243.441 315.365 229.945C315.92 224.786 315.781 219.428 315.636 213.75C315.596 212.188 315.557 210.613 315.53 209.037C315.49 206.763 315.57 202.196 315.762 195.076C315.762 194.9 315.832 194.73 315.955 194.606C316.08 194.481 316.248 194.411 316.423 194.411C316.598 194.411 316.767 194.481 316.891 194.606C317.015 194.73 317.084 194.9 317.084 195.076C316.893 202.196 316.813 206.75 316.853 208.997C316.853 210.573 316.919 212.142 316.959 213.704C317.104 219.428 317.243 224.826 316.681 230.071C315.393 243.249 316.327 256.55 319.446 269.415C328.976 270.445 364.686 277.672 376.267 295.09C377.133 283.043 380.758 220.758 366.769 182.737C363.568 174.041 355.247 165.452 348.746 161.762C347.82 164.289 345.869 166.257 342.793 167.746C335.855 171.136 325.233 172.054 320.51 169.674L320.299 169.541C317.316 173.341 315.239 177.778 314.227 182.511C314.055 183.342 313.89 184.067 313.711 184.871C313.42 186.148 313.096 187.59 312.613 189.95C312.597 190.038 312.564 190.123 312.515 190.198C312.467 190.272 312.404 190.337 312.33 190.386C312.256 190.436 312.172 190.47 312.084 190.486C311.997 190.503 311.907 190.501 311.82 190.482C311.734 190.464 311.654 190.429 311.582 190.379C311.51 190.33 311.449 190.266 311.402 190.193C311.354 190.119 311.322 190.037 311.306 189.951C311.291 189.865 311.292 189.777 311.31 189.691C311.8 187.324 312.124 185.868 312.415 184.592C312.593 183.794 312.752 183.07 312.931 182.252C314.043 177.038 316.394 172.173 319.783 168.071C319.853 167.986 319.942 167.921 320.044 167.879C320.145 167.837 320.255 167.822 320.364 167.834C320.473 167.846 320.577 167.885 320.667 167.947C320.758 168.01 320.831 168.093 320.881 168.191C320.929 168.309 321.004 168.413 321.099 168.497C325.517 170.724 335.577 169.827 342.205 166.562C346.226 164.568 347.271 162.234 347.707 160.626C347.733 160.53 347.78 160.442 347.844 160.368C347.908 160.293 347.988 160.233 348.078 160.193C348.167 160.151 348.264 160.129 348.362 160.129C348.461 160.129 348.558 160.151 348.647 160.193C355.472 163.757 364.58 172.978 368.039 182.285C383.608 224.593 377.523 296.546 377.457 297.297C377.445 297.438 377.387 297.573 377.293 297.679C377.199 297.785 377.074 297.859 376.935 297.889L376.769 297.875Z" fill="#313439"/>
<path d="M369.699 199.123C371.908 224.851 366.445 245.061 359.91 257.792C349.533 278.009 291.124 280.496 282.44 280.203C273.756 279.91 267.188 282.776 264.053 283.633C259.946 284.757 260.984 281.233 260.984 281.233C259.304 282.045 255.475 282.197 256.434 279.797C254.913 280.529 253.061 280.908 252.154 279.758C251.579 279.02 252.531 277.584 256.745 275.536C262.477 272.749 269.492 271.186 277.79 270.849C288.108 270.417 330.266 261.296 332.879 250.779C335.491 240.261 335.928 228.567 334.387 200.36" fill="#E4FAFC"/>
<path d="M262.638 284.498C262.327 284.527 262.013 284.49 261.718 284.388C261.422 284.287 261.151 284.122 260.924 283.908C260.696 283.692 260.516 283.431 260.397 283.141C260.277 282.851 260.221 282.538 260.23 282.224C258.828 282.583 257.049 282.577 256.183 281.759C255.921 281.518 255.745 281.198 255.68 280.848C253.901 281.44 252.472 281.214 251.665 280.183C251.534 280.016 251.443 279.82 251.398 279.612C251.353 279.404 251.356 279.187 251.407 278.98C251.679 277.797 253.339 276.474 256.487 274.951C262.241 272.152 269.411 270.557 277.784 270.198C288.267 269.759 329.77 260.651 332.264 250.633C334.909 239.936 335.273 228.202 333.752 200.413C333.747 200.326 333.76 200.238 333.788 200.156C333.817 200.073 333.862 199.998 333.92 199.932C333.978 199.867 334.048 199.814 334.127 199.776C334.205 199.738 334.29 199.716 334.377 199.712C334.464 199.707 334.551 199.72 334.633 199.748C334.715 199.777 334.79 199.822 334.855 199.881C334.92 199.939 334.973 200.01 335.011 200.089C335.048 200.167 335.07 200.253 335.075 200.34C336.603 228.262 336.245 240.109 333.547 250.952C330.796 262.014 287.732 271.109 277.844 271.561C269.649 271.913 262.631 273.462 257.056 276.181C253.16 278.076 252.743 279.126 252.697 279.312V279.392C253.358 280.203 254.913 279.851 256.169 279.246C256.29 279.187 256.425 279.168 256.558 279.187C256.69 279.208 256.813 279.269 256.91 279.36C257.008 279.453 257.075 279.572 257.103 279.704C257.132 279.836 257.12 279.973 257.069 280.097C256.857 280.615 257.016 280.762 257.069 280.822C257.605 281.32 259.543 281.247 260.713 280.682C260.828 280.627 260.957 280.607 261.083 280.623C261.209 280.64 261.328 280.693 261.425 280.776C261.522 280.859 261.593 280.968 261.63 281.09C261.667 281.213 261.668 281.343 261.633 281.466C261.553 281.739 261.414 282.597 261.791 282.976C262.168 283.354 262.856 283.321 263.895 283.042C264.47 282.882 265.171 282.65 265.985 282.377C269.464 281.24 275.284 279.339 282.473 279.578C290.939 279.858 349.229 277.225 359.335 257.527C364.044 248.346 371.571 228.574 369.051 199.216C369.044 199.129 369.054 199.041 369.081 198.958C369.107 198.874 369.15 198.797 369.207 198.73C369.263 198.663 369.332 198.609 369.41 198.569C369.488 198.529 369.573 198.505 369.66 198.498C369.834 198.484 370.007 198.539 370.141 198.653C370.275 198.766 370.359 198.928 370.374 199.103C372.92 228.794 365.288 248.831 360.512 258.132C350.062 278.488 292.56 281.247 282.427 280.908C275.469 280.682 270.006 282.457 266.395 283.64C265.568 283.913 264.847 284.152 264.239 284.305C263.716 284.439 263.178 284.505 262.638 284.498Z" fill="#313439"/>
<path d="M370.777 193.053C370.777 193.053 372.94 201.423 375.559 217.857C365.228 221.885 343.025 223.587 330.994 219.718C331.305 212.405 331.146 194.914 331.146 194.914" fill="white"/>
<path d="M348.494 222.558C341.913 222.558 335.57 221.893 330.788 220.35C330.65 220.305 330.53 220.216 330.448 220.096C330.366 219.975 330.325 219.831 330.332 219.686C330.636 212.506 330.491 195.088 330.484 194.921C330.484 194.745 330.553 194.576 330.678 194.451C330.801 194.326 330.97 194.257 331.145 194.257C331.321 194.257 331.489 194.326 331.613 194.451C331.737 194.576 331.807 194.745 331.807 194.921C331.807 195.094 331.952 211.748 331.675 219.247C343.527 222.843 364.546 221.241 374.818 217.439C372.271 201.583 370.188 193.319 370.142 193.233C370.113 193.068 370.147 192.898 370.237 192.758C370.327 192.617 370.466 192.516 370.627 192.474C370.789 192.432 370.959 192.453 371.105 192.532C371.252 192.611 371.364 192.742 371.418 192.9C371.418 192.987 373.614 201.49 376.213 217.764C376.237 217.915 376.209 218.069 376.133 218.201C376.057 218.333 375.938 218.434 375.797 218.489C369.467 220.942 358.699 222.558 348.494 222.558Z" fill="#313439"/>
<path d="M328.718 176.673C321.132 176.673 316.985 174.12 316.754 173.974C316.674 173.93 316.603 173.872 316.547 173.8C316.49 173.729 316.449 173.646 316.426 173.558C316.402 173.47 316.397 173.378 316.41 173.287C316.424 173.197 316.456 173.111 316.504 173.033C316.553 172.956 316.616 172.889 316.691 172.838C316.766 172.786 316.85 172.751 316.94 172.734C317.029 172.716 317.121 172.718 317.209 172.738C317.298 172.758 317.381 172.796 317.455 172.85C317.528 172.897 324.909 177.391 337.958 174.18C348.759 171.487 351.59 167.778 353.038 164.168C353.071 164.087 353.118 164.012 353.178 163.95C353.239 163.887 353.311 163.837 353.391 163.803C353.471 163.768 353.557 163.749 353.644 163.748C353.731 163.747 353.817 163.763 353.898 163.795C353.979 163.828 354.053 163.876 354.115 163.936C354.177 163.997 354.227 164.07 354.261 164.15C354.296 164.231 354.314 164.317 354.315 164.404C354.317 164.491 354.301 164.578 354.268 164.66C352.132 169.978 347.35 173.209 338.276 175.469C335.15 176.257 331.941 176.661 328.718 176.673Z" fill="#313439"/>
</g>
<g clip-path="url(#clip4_1898_1128)">
<path d="M245.668 77.6426H147.061C144.165 77.6426 141.374 78.7851 139.313 80.8363C137.252 82.8876 136.104 85.6659 136.104 88.5481V120.512C136.104 123.394 137.252 126.172 139.313 128.223C141.374 130.275 144.165 131.417 147.061 131.417H159.191C155.695 139.752 147.426 151.125 138.113 153.852C155.382 151.021 175.026 144.634 181.052 131.417H245.694C248.59 131.417 251.381 130.275 253.442 128.223C255.503 126.172 256.65 123.394 256.65 120.512V88.5481C256.65 85.6659 255.503 82.8876 253.442 80.8363C251.355 78.7851 248.564 77.6426 245.668 77.6426Z" fill="white"/>
<path d="M138.113 154.499C137.826 154.499 137.539 154.292 137.487 154.006C137.409 153.669 137.617 153.331 137.93 153.227C146.2 150.786 154.261 140.893 158.2 132.065H147.061C143.956 132.065 141.035 130.871 138.843 128.69C136.652 126.509 135.452 123.6 135.452 120.51V88.5469C135.452 85.457 136.652 82.5488 138.843 80.3677C141.035 78.1866 143.956 76.9922 147.061 76.9922H245.668C248.772 76.9922 251.694 78.1866 253.885 80.3677C256.076 82.5488 257.276 85.457 257.276 88.5469V120.51C257.276 123.6 256.076 126.509 253.885 128.69C251.694 130.871 248.772 132.065 245.668 132.065H181.443C178.573 138.063 172.73 143.126 164.069 147.125C157.052 150.345 148.365 152.838 138.217 154.499C138.165 154.499 138.139 154.499 138.113 154.499ZM147.061 78.2905C144.295 78.2905 141.713 79.3551 139.783 81.3025C137.826 83.2239 136.756 85.7945 136.756 88.5469V120.51C136.756 123.263 137.826 125.833 139.783 127.755C141.739 129.702 144.322 130.767 147.061 130.767H159.191C159.4 130.767 159.608 130.871 159.739 131.052C159.869 131.234 159.869 131.468 159.791 131.65C157.86 136.246 154.782 141.179 151.339 145.152C148.704 148.19 145.939 150.579 143.2 152.266C151.026 150.682 157.86 148.553 163.547 145.931C172.104 141.984 177.791 137.025 180.477 131.13C180.582 130.897 180.817 130.741 181.077 130.741H245.72C248.485 130.741 251.068 129.676 252.998 127.729C254.955 125.781 256.024 123.211 256.024 120.485V88.5469C256.024 85.7945 254.955 83.2239 252.998 81.3025C251.015 79.3551 248.433 78.2905 245.668 78.2905H147.061Z" fill="#313439"/>
</g>
<g clip-path="url(#clip5_1898_1128)">
<path d="M167.777 109.619C170.348 109.619 172.433 107.493 172.433 104.87C172.433 102.247 170.348 100.121 167.777 100.121C165.205 100.121 163.121 102.247 163.121 104.87C163.121 107.493 165.205 109.619 167.777 109.619Z" fill="#313439"/>
<path d="M196.571 109.619C199.142 109.619 201.227 107.493 201.227 104.87C201.227 102.247 199.142 100.121 196.571 100.121C193.999 100.121 191.915 102.247 191.915 104.87C191.915 107.493 193.999 109.619 196.571 109.619Z" fill="#313439"/>
<path d="M225.365 109.619C227.936 109.619 230.021 107.493 230.021 104.87C230.021 102.247 227.936 100.121 225.365 100.121C222.793 100.121 220.708 102.247 220.708 104.87C220.708 107.493 222.793 109.619 225.365 109.619Z" fill="#313439"/>
</g>
<defs>
<clipPath id="clip0_1898_1128">
<rect width="336.565" height="274.207" fill="white" transform="translate(89.8198 361.729) rotate(-90)"/>
</clipPath>
<clipPath id="clip1_1898_1128">
<rect width="275.446" height="295.681" fill="white" transform="translate(64.0093 120.352)"/>
</clipPath>
<clipPath id="clip2_1898_1128">
<rect width="98.2852" height="169.728" fill="white" transform="matrix(-1 0 0 1 388.598 58.4082)"/>
</clipPath>
<clipPath id="clip3_1898_1128">
<rect width="206.069" height="110.674" fill="white" transform="translate(197.396 94.748)"/>
</clipPath>
<clipPath id="clip4_1898_1128">
<rect width="121.824" height="77.637" fill="white" transform="translate(135.452 76.9922)"/>
</clipPath>
<clipPath id="clip5_1898_1128">
<rect width="66.9" height="9.49815" fill="white" transform="translate(163.12 100.119)"/>
</clipPath>
</defs>
</svg>
