<svg width="149" height="148" viewBox="0 0 149 148" fill="none" xmlns="http://www.w3.org/2000/svg">
<circle cx="74.6014" cy="74.3421" r="73.6468" fill="#E4FAFC"/>
<path fill-rule="evenodd" clip-rule="evenodd" d="M89.3305 62.0682C89.3305 70.203 82.7359 76.7976 74.6011 76.7976C66.4663 76.7976 59.8718 70.203 59.8718 62.0682C59.8718 53.9334 66.4663 47.3389 74.6011 47.3389C82.7359 47.3389 89.3305 53.9334 89.3305 62.0682ZM84.4207 62.0682C84.4207 67.4914 80.0243 71.8878 74.6011 71.8878C69.1779 71.8878 64.7816 67.4914 64.7816 62.0682C64.7816 56.645 69.1779 52.2487 74.6011 52.2487C80.0243 52.2487 84.4207 56.645 84.4207 62.0682Z" fill="#3EC4D5"/>
<path fill-rule="evenodd" clip-rule="evenodd" d="M74.6013 79.2525C67.3959 79.2525 62.2007 80.7471 58.4741 82.9882C54.7325 85.2382 52.631 88.1452 51.4705 90.6876C50.4922 92.8307 50.9375 95.0147 52.2372 96.5707C53.4761 98.0539 55.4024 98.8916 57.417 98.8916H91.7854C93.8 98.8916 95.7263 98.0539 96.9652 96.5707C98.2649 95.0148 98.7101 92.8308 97.732 90.6877C96.5715 88.1453 94.47 85.2382 90.7285 82.9882C87.0019 80.7471 81.8068 79.2525 74.6013 79.2525ZM55.937 92.7264C56.7425 90.9615 58.2223 88.8687 61.0043 87.1957C63.8012 85.5138 68.0718 84.1622 74.6013 84.1622C81.1309 84.1622 85.4014 85.5138 88.1982 87.1958C90.9802 88.8688 92.4599 90.9616 93.2655 92.7264C93.3606 92.9348 93.3564 93.0601 93.3469 93.1241C93.336 93.1971 93.3001 93.2998 93.1971 93.4231C92.9757 93.6881 92.4824 93.9818 91.7854 93.9818H57.417C56.72 93.9818 56.2267 93.6881 56.0053 93.4231C55.9023 93.2998 55.8664 93.1971 55.8555 93.1241C55.846 93.0601 55.8418 92.9348 55.937 92.7264Z" fill="#3EC4D5"/>
<rect x="1.34633" y="1.08705" width="146.51" height="146.51" stroke="#3EC4D5" stroke-opacity="0.1" stroke-width="0.783476"/>
</svg>
