<svg width="23" height="23" viewBox="0 0 23 23" fill="none" xmlns="http://www.w3.org/2000/svg">
<path fill-rule="evenodd" clip-rule="evenodd" d="M7.83691 0.179688H16.0869C19.8833 0.179688 22.9619 3.25831 22.9619 7.05469V15.3047C22.9619 19.1011 19.8833 22.1797 16.0869 22.1797H7.83691C4.04054 22.1797 0.961914 19.1011 0.961914 15.3047V7.05469C0.961914 3.25831 4.04054 0.179688 7.83691 0.179688ZM16.0869 20.1172C18.7407 20.1172 20.8994 17.9584 20.8994 15.3047V7.05469C20.8994 4.40094 18.7407 2.24219 16.0869 2.24219H7.83691C5.18316 2.24219 3.02441 4.40094 3.02441 7.05469V15.3047C3.02441 17.9584 5.18316 20.1172 7.83691 20.1172H16.0869Z" fill="white"/>
<path fill-rule="evenodd" clip-rule="evenodd" d="M6.46191 11.1797C6.46191 8.14231 8.92454 5.67969 11.9619 5.67969C14.9993 5.67969 17.4619 8.14231 17.4619 11.1797C17.4619 14.2171 14.9993 16.6797 11.9619 16.6797C8.92454 16.6797 6.46191 14.2171 6.46191 11.1797ZM8.52441 11.1797C8.52441 13.0744 10.0672 14.6172 11.9619 14.6172C13.8567 14.6172 15.3994 13.0744 15.3994 11.1797C15.3994 9.28356 13.8567 7.74219 11.9619 7.74219C10.0672 7.74219 8.52441 9.28356 8.52441 11.1797Z" fill="white"/>
<circle cx="17.8745" cy="5.26803" r="0.732875" fill="white"/>
</svg>
