<svg width="79" height="66" viewBox="0 0 79 66" fill="none" xmlns="http://www.w3.org/2000/svg">
<path d="M49.4263 40.4172C55.0629 33.9288 53.9648 26.3953 49.0017 20.5601C48.2258 19.6456 48.3136 19.5585 49.4263 19.1086C52.2226 17.9764 55.1214 17.207 58.1081 16.8006C61.7682 16.3506 65.4429 15.9442 69.1323 15.9442C69.879 15.9297 69.9083 15.9442 69.8058 16.699C68.6199 27.6726 61.8707 39.9382 49.4263 40.4172Z" fill="#BBF3F7"/>
<path d="M77.258 38.1811C77.7997 38.7327 79.5565 40.8229 78.8245 41.5487C72.5291 47.9645 62.5736 53.6835 53.6283 49.4305C52.9987 46.8178 51.4761 44.8146 49.8071 42.7825C56.6442 42.3615 63.1007 38.4424 66.6437 32.6798C67.2 31.8088 67.1707 31.8088 68.0784 32.2007C71.475 33.6958 74.5349 35.6699 77.258 38.1811Z" fill="#BBF3F7"/>
<path d="M52.4713 15.058C51.8125 13.4033 51.0805 11.763 50.3338 10.1373C50.1581 9.74539 50.1142 9.52766 50.5974 9.36799C52.9984 8.55513 55.3994 7.74226 57.8005 6.91489C58.1811 6.78425 58.3861 6.90037 58.4593 7.27777C58.8692 9.41638 59.2792 11.555 59.6891 13.6936C59.6744 14.2597 59.3963 14.4339 58.8692 14.521C57.0538 14.8403 55.2384 15.2177 53.4376 15.6096C52.8813 15.7257 52.6763 15.6096 52.4713 15.058Z" fill="#BBF3F7"/>
<path d="M39.4998 42.26V42.2455C31.2572 42.202 25.8842 34.2475 28.7976 26.8737C30.8327 21.7062 34.8881 17.758 39.002 14.1291C39.1338 14.013 39.3095 13.9405 39.4998 13.955C39.6901 13.9405 39.8658 14.013 39.9976 14.1291C44.1116 17.758 48.167 21.7062 50.202 26.8737C53.1154 34.2475 47.7424 42.202 39.4998 42.26Z" fill="#BBF3F7"/>
<path d="M51.4909 51.3012C51.2566 57.8912 45.9275 61.3313 40.9497 64.4376C40.0713 64.9312 39.7785 65.1779 39.5003 65.1779C39.2221 65.1779 38.9293 64.9312 38.0509 64.4376C33.0731 61.3168 27.744 57.8912 27.5098 51.3012C27.5683 48.2965 29.8815 45.0305 32.1215 43.0565C32.2826 42.9113 32.6632 42.8677 32.8682 42.9548C35.0838 43.8645 37.2945 44.3241 39.5003 44.3338C41.7061 44.3241 43.9168 43.8645 46.1324 42.9548C46.3374 42.8677 46.7181 42.9113 46.8791 43.0565C49.1191 45.0305 51.4323 48.2965 51.4909 51.3012Z" fill="#BBF3F7"/>
<path d="M9.19437 16.699C9.09189 15.9442 9.12117 15.9297 9.86783 15.9442C13.5572 15.9442 17.232 16.3506 20.8921 16.8006C23.8788 17.207 26.7776 17.9764 29.5739 19.1086C30.6866 19.5585 30.7744 19.6456 29.9985 20.5601C25.0354 26.3953 23.9373 33.9143 29.5739 40.4172C17.1295 39.9382 10.3803 27.6726 9.19437 16.699Z" fill="#BBF3F7"/>
<path d="M10.9219 32.2007C11.8296 31.8088 11.8003 31.8088 12.3566 32.6798C15.8996 38.4424 22.3561 42.3615 29.1932 42.7825C27.5242 44.8146 26.0015 46.8178 25.372 49.4305C16.4267 53.6835 6.47116 47.9645 0.175765 41.5487C-0.556259 40.8229 1.2006 38.7327 1.74229 38.1811C4.46542 35.6699 7.52528 33.6813 10.9219 32.2007Z" fill="#BBF3F7"/>
<path d="M50.3482 16.4369C49.4698 16.9885 48.3718 17.4095 47.464 17.6998C47.0248 17.8304 46.7906 17.8014 46.4978 17.4966C44.5067 15.2177 42.2081 13.2871 39.9242 11.342C39.7778 11.2114 39.6314 11.1533 39.4996 11.1388C39.3679 11.1533 39.2215 11.2114 39.0751 11.342C36.7912 13.2871 34.4926 15.2177 32.5015 17.4966C32.2087 17.8014 31.9744 17.8304 31.5352 17.6998C30.6275 17.4095 29.5295 16.9885 28.6511 16.4224C28.5339 16.3208 28.3875 16.2192 28.5193 15.8563C30.5104 9.86147 34.4926 4.82462 39.0311 0.469996C39.2068 0.281295 39.3532 0.194203 39.4996 0.179688C39.646 0.194203 39.7924 0.281295 39.9681 0.469996C44.5067 4.82462 48.4889 9.86147 50.48 15.8563C50.6117 16.2192 50.4653 16.3353 50.3482 16.4369Z" fill="#BBF3F7"/>
<path d="M25.562 15.6099C23.7612 15.218 21.9458 14.8406 20.1304 14.5213C19.6034 14.4342 19.3252 14.26 19.3105 13.6939C19.7205 11.5553 20.1304 9.4167 20.5403 7.2781C20.6135 6.88618 20.8185 6.78457 21.1992 6.91521C23.6002 7.74259 26.0012 8.55546 28.4023 9.36832C28.8854 9.52799 28.8415 9.74572 28.6658 10.1376C27.9191 11.7634 27.1871 13.4036 26.5283 15.0584C26.3233 15.6099 26.1184 15.7261 25.562 15.6099Z" fill="#BBF3F7"/>
</svg>
