<svg width="49" height="41" viewBox="0 0 49 41" fill="none" xmlns="http://www.w3.org/2000/svg">
<path d="M30.4268 25.5428C33.8966 21.5212 33.2207 16.8517 30.1654 13.2349C29.6877 12.6681 29.7418 12.6141 30.4268 12.3352C32.1482 11.6334 33.9326 11.1565 35.7712 10.9046C38.0243 10.6257 40.2865 10.3738 42.5576 10.3738C43.0173 10.3648 43.0353 10.3738 42.9722 10.8416C42.2422 17.6434 38.0874 25.2459 30.4268 25.5428Z" fill="#313439"/>
<path d="M47.5592 24.1566C47.8926 24.4985 48.9741 25.7941 48.5235 26.244C44.6481 30.2207 38.5196 33.7655 33.0129 31.1294C32.6254 29.5099 31.6881 28.2683 30.6606 27.0087C34.8695 26.7478 38.844 24.3186 41.0251 20.7468C41.3675 20.2069 41.3495 20.2069 41.9083 20.4498C43.9992 21.3765 45.8828 22.6001 47.5592 24.1566Z" fill="#313439"/>
<path d="M32.3004 9.82446C31.8948 8.79879 31.4442 7.78212 30.9845 6.77445C30.8764 6.53153 30.8493 6.39658 31.1468 6.29761C32.6248 5.79377 34.1029 5.28994 35.5809 4.7771C35.8153 4.69613 35.9414 4.76811 35.9865 5.00203C36.2388 6.3276 36.4912 7.65317 36.7435 8.97873C36.7345 9.32962 36.5633 9.43758 36.2388 9.49157C35.1213 9.6895 34.0037 9.92343 32.8952 10.1663C32.5527 10.2383 32.4265 10.1663 32.3004 9.82446Z" fill="#313439"/>
<path d="M24.3154 26.6851V26.6761C19.2413 26.6491 15.9337 21.7187 17.7272 17.1482C18.9799 13.9452 21.4764 11.498 24.0089 9.24875C24.09 9.17678 24.1982 9.13179 24.3154 9.14079C24.4325 9.13179 24.5407 9.17678 24.6218 9.24875C27.1543 11.498 29.6508 13.9452 30.9035 17.1482C32.697 21.7187 29.3894 26.6491 24.3154 26.6851Z" fill="#3EC4D5"/>
<path d="M31.6961 32.2909C31.5519 36.3755 28.2714 38.5078 25.2071 40.4332C24.6664 40.7391 24.4861 40.892 24.3149 40.892C24.1436 40.892 23.9634 40.7391 23.4226 40.4332C20.3584 38.4988 17.0778 36.3755 16.9336 32.2909C16.9696 30.4285 18.3936 28.4041 19.7725 27.1805C19.8717 27.0906 20.106 27.0636 20.2322 27.1175C21.5961 27.6814 22.957 27.9663 24.3149 27.9723C25.6728 27.9663 27.0336 27.6814 28.3975 27.1175C28.5237 27.0636 28.758 27.0906 28.8572 27.1805C30.2361 28.4041 31.6601 30.4285 31.6961 32.2909Z" fill="#313439"/>
<path d="M5.66026 10.8416C5.59718 10.3738 5.6152 10.3648 6.07484 10.3738C8.346 10.3738 10.6081 10.6257 12.8613 10.9046C14.6998 11.1565 16.4843 11.6334 18.2057 12.3352C18.8907 12.6141 18.9448 12.6681 18.4671 13.2349C15.4118 16.8517 14.7359 21.5122 18.2057 25.5428C10.5451 25.2459 6.39028 17.6434 5.66026 10.8416Z" fill="#313439"/>
<path d="M6.72341 20.4498C7.28218 20.2069 7.26416 20.2069 7.60664 20.7468C9.78767 24.3186 13.7622 26.7478 17.9711 27.0087C16.9436 28.2683 16.0063 29.5099 15.6188 31.1294C10.1121 33.7655 3.98359 30.2207 0.108199 26.244C-0.342428 25.7941 0.739077 24.4985 1.07254 24.1566C2.74887 22.6001 4.6325 21.3675 6.72341 20.4498Z" fill="#313439"/>
<path d="M30.9941 10.6793C30.4534 11.0211 29.7774 11.2821 29.2186 11.462C28.9483 11.543 28.8041 11.525 28.6238 11.336C27.3981 9.9235 25.9831 8.72689 24.5772 7.52128C24.4871 7.44031 24.3969 7.40432 24.3158 7.39532C24.2347 7.40432 24.1446 7.44031 24.0545 7.52128C22.6485 8.72689 21.2335 9.9235 20.0078 11.336C19.8276 11.525 19.6834 11.543 19.413 11.462C18.8542 11.2821 18.1783 11.0211 17.6375 10.6703C17.5654 10.6073 17.4753 10.5443 17.5564 10.3194C18.7821 6.60358 21.2335 3.4816 24.0274 0.78248C24.1356 0.665519 24.2257 0.611536 24.3158 0.602539C24.406 0.611536 24.4961 0.665519 24.6042 0.78248C27.3981 3.4816 29.8495 6.60358 31.0752 10.3194C31.1563 10.5443 31.0662 10.6163 30.9941 10.6793Z" fill="#313439"/>
<path d="M15.7361 10.1668C14.6275 9.92386 13.51 9.68994 12.3924 9.492C12.0679 9.43802 11.8967 9.33006 11.8877 8.97917C12.14 7.6536 12.3924 6.32803 12.6447 5.00247C12.6898 4.75955 12.816 4.69657 13.0503 4.77754C14.5284 5.29037 16.0064 5.79421 17.4845 6.29804C17.7819 6.39701 17.7549 6.53197 17.6467 6.77489C17.1871 7.78256 16.7364 8.79923 16.3309 9.82489C16.2047 10.1668 16.0785 10.2388 15.7361 10.1668Z" fill="#313439"/>
</svg>
