<svg width="96" height="96" viewBox="0 0 96 96" fill="none" xmlns="http://www.w3.org/2000/svg">
<rect width="96" height="96" rx="20" fill="#2A7576"/>
<g filter="url(#filter0_b_1481_3771)">
<mask id="path-2-inside-1_1481_3771" fill="white">
<path d="M71.4849 12C69.9496 12 68.4142 12.5863 67.2427 13.7578L60.0005 21L75.0005 36L82.2427 28.7578C84.5857 26.4148 84.5857 22.6164 82.2427 20.2734L75.727 13.7578C74.5555 12.5863 73.0201 12 71.4849 12ZM54.0005 27L18.7798 62.2207C18.7798 62.2207 21.5331 61.974 22.5591 63C23.5851 64.026 22.7405 70.74 24.0005 72C25.2605 73.26 31.9322 72.3731 32.8892 73.3301C33.8462 74.2871 33.7798 77.2207 33.7798 77.2207L69.0005 42L54.0005 27ZM15.0005 72L12.1704 80.0156C12.0592 80.3319 12.0017 80.6647 12.0005 81C12.0005 81.7956 12.3166 82.5587 12.8792 83.1213C13.4418 83.6839 14.2048 84 15.0005 84C15.3358 83.9988 15.6685 83.9413 15.9849 83.8301C15.9946 83.8262 16.0044 83.8223 16.0142 83.8184L16.0903 83.7949C16.0962 83.791 16.1021 83.7871 16.1079 83.7832L24.0005 81L19.5005 76.5L15.0005 72Z"/>
<path d="M75.0005 36L60.0005 21L54.0005 27L69.0005 42L75.0005 36Z"/>
<path d="M22.5591 63C21.5331 61.974 18.7798 62.2207 18.7798 62.2207L15.0005 72L19.5005 76.5L24.0005 81L33.7798 77.2207C33.7798 77.2207 33.8462 74.2871 32.8892 73.3301C31.9322 72.3731 25.2605 73.26 24.0005 72C22.7405 70.74 23.5851 64.026 22.5591 63Z"/>
</mask>
<path d="M71.4849 12C69.9496 12 68.4142 12.5863 67.2427 13.7578L60.0005 21L75.0005 36L82.2427 28.7578C84.5857 26.4148 84.5857 22.6164 82.2427 20.2734L75.727 13.7578C74.5555 12.5863 73.0201 12 71.4849 12ZM54.0005 27L18.7798 62.2207C18.7798 62.2207 21.5331 61.974 22.5591 63C23.5851 64.026 22.7405 70.74 24.0005 72C25.2605 73.26 31.9322 72.3731 32.8892 73.3301C33.8462 74.2871 33.7798 77.2207 33.7798 77.2207L69.0005 42L54.0005 27ZM15.0005 72L12.1704 80.0156C12.0592 80.3319 12.0017 80.6647 12.0005 81C12.0005 81.7956 12.3166 82.5587 12.8792 83.1213C13.4418 83.6839 14.2048 84 15.0005 84C15.3358 83.9988 15.6685 83.9413 15.9849 83.8301C15.9946 83.8262 16.0044 83.8223 16.0142 83.8184L16.0903 83.7949C16.0962 83.791 16.1021 83.7871 16.1079 83.7832L24.0005 81L19.5005 76.5L15.0005 72Z" fill="url(#paint0_radial_1481_3771)" fill-opacity="0.4"/>
<path d="M75.0005 36L60.0005 21L54.0005 27L69.0005 42L75.0005 36Z" fill="url(#paint1_radial_1481_3771)" fill-opacity="0.4"/>
<path d="M75.0005 36L60.0005 21L54.0005 27L69.0005 42L75.0005 36Z" fill="white"/>
<path d="M22.5591 63C21.5331 61.974 18.7798 62.2207 18.7798 62.2207L15.0005 72L19.5005 76.5L24.0005 81L33.7798 77.2207C33.7798 77.2207 33.8462 74.2871 32.8892 73.3301C31.9322 72.3731 25.2605 73.26 24.0005 72C22.7405 70.74 23.5851 64.026 22.5591 63Z" fill="white"/>
<path d="M60.4506 20.5499C60.202 20.3014 59.799 20.3014 59.5504 20.5499C59.3018 20.7985 59.3018 21.2015 59.5504 21.4501L60.4506 20.5499ZM74.5504 36.4501C74.799 36.6986 75.202 36.6986 75.4506 36.4501C75.6991 36.2015 75.6991 35.7985 75.4506 35.5499L74.5504 36.4501ZM54.4506 26.5499C54.202 26.3014 53.799 26.3014 53.5504 26.5499C53.3018 26.7985 53.3018 27.2015 53.5504 27.4501L54.4506 26.5499ZM18.723 61.5867C18.3729 61.6181 18.1145 61.9274 18.1458 62.2775C18.1772 62.6276 18.4865 62.886 18.8366 62.8547L18.723 61.5867ZM22.5591 63L22.109 63.4501L22.5591 63ZM32.8892 73.3301L32.4391 73.7802L32.8892 73.3301ZM33.1434 77.2063C33.1355 77.5577 33.4139 77.8491 33.7654 77.857C34.1168 77.865 34.4082 77.5865 34.4161 77.2351L33.1434 77.2063ZM68.5504 42.4501C68.799 42.6986 69.202 42.6986 69.4506 42.4501C69.6991 42.2015 69.6991 41.7985 69.4506 41.5499L68.5504 42.4501ZM15.4506 71.5499C15.202 71.3014 14.799 71.3014 14.5504 71.5499C14.3018 71.7985 14.3018 72.2015 14.5504 72.4501L15.4506 71.5499ZM23.5504 81.4501C23.799 81.6986 24.202 81.6986 24.4506 81.4501C24.6991 81.2015 24.6991 80.7985 24.4506 80.5499L23.5504 81.4501ZM19.5005 76.5L19.9506 76.0499L19.5005 76.5ZM59.5504 21.4501L74.5504 36.4501L75.4506 35.5499L60.4506 20.5499L59.5504 21.4501ZM18.7798 62.2207C18.8366 62.8547 18.8365 62.8547 18.8364 62.8547C18.8363 62.8547 18.8363 62.8547 18.8362 62.8547C18.8361 62.8547 18.8361 62.8547 18.8361 62.8547C18.8361 62.8547 18.8362 62.8547 18.8366 62.8547C18.8372 62.8546 18.8385 62.8545 18.8404 62.8543C18.8443 62.854 18.8506 62.8535 18.8593 62.8528C18.8768 62.8515 18.9037 62.8496 18.9391 62.8474C19.0098 62.8431 19.1138 62.8378 19.2425 62.8345C19.501 62.8278 19.8535 62.8291 20.233 62.86C20.6151 62.8911 21.0075 62.9511 21.3522 63.0549C21.7039 63.1607 21.9566 63.2976 22.109 63.4501L23.0092 62.5499C22.6486 62.1894 22.1724 61.9724 21.7192 61.8359C21.2592 61.6974 20.7709 61.6266 20.3364 61.5912C19.8993 61.5556 19.4994 61.5544 19.2095 61.5619C19.0641 61.5657 18.945 61.5717 18.8611 61.5768C18.8192 61.5794 18.7859 61.5817 18.7626 61.5835C18.7509 61.5844 18.7417 61.5852 18.735 61.5857C18.7317 61.586 18.729 61.5862 18.727 61.5864C18.726 61.5865 18.7252 61.5866 18.7245 61.5866C18.7242 61.5866 18.7239 61.5867 18.7236 61.5867C18.7235 61.5867 18.7233 61.5867 18.7233 61.5867C18.7231 61.5867 18.723 61.5867 18.7798 62.2207ZM22.109 63.4501C22.1065 63.4476 22.1256 63.4666 22.156 63.5303C22.1855 63.5922 22.2178 63.6796 22.2499 63.7972C22.3145 64.0342 22.3662 64.3473 22.4071 64.7295C22.4889 65.4955 22.5182 66.4422 22.556 67.4364C22.5931 68.414 22.6384 69.4347 22.7575 70.2939C22.8172 70.7241 22.8979 71.1345 23.0135 71.4903C23.1259 71.8362 23.2896 72.1893 23.5504 72.4501L24.4506 71.5499C24.3964 71.4957 24.3108 71.3633 24.2242 71.0969C24.1408 70.8403 24.0729 70.5115 24.0185 70.1191C23.9095 69.3329 23.8655 68.3748 23.8281 67.3881C23.7912 66.418 23.7606 65.4151 23.6729 64.5943C23.6289 64.1831 23.5684 63.7935 23.478 63.4621C23.3928 63.1498 23.2582 62.799 23.0092 62.5499L22.109 63.4501ZM23.5504 72.4501C23.8115 72.7112 24.1643 72.8742 24.5098 72.9855C24.865 73.0999 25.274 73.1786 25.7022 73.2357C26.5574 73.3497 27.5712 73.3873 28.5403 73.4149C29.5262 73.443 30.4617 73.4608 31.2159 73.5296C31.5923 73.5639 31.8987 73.609 32.1283 73.667C32.3811 73.7308 32.4469 73.788 32.4391 73.7802L33.3392 72.88C33.0922 72.6329 32.7401 72.5085 32.4399 72.4327C32.1166 72.3511 31.7349 72.2986 31.3316 72.2618C30.5264 72.1884 29.5357 72.1697 28.5766 72.1424C27.6006 72.1146 26.6504 72.0779 25.8704 71.9739C25.481 71.922 25.1547 71.8558 24.9001 71.7738C24.6358 71.6887 24.5044 71.6038 24.4506 71.5499L23.5504 72.4501ZM32.4391 73.7802C32.5718 73.9129 32.7085 74.1612 32.8247 74.5321C32.9372 74.891 33.0125 75.3056 33.0614 75.7106C33.11 76.1129 33.1307 76.4895 33.139 76.7665C33.1431 76.9045 33.1442 77.0166 33.1443 77.0932C33.1443 77.1315 33.1441 77.1609 33.1438 77.1801C33.1437 77.1898 33.1436 77.1969 33.1435 77.2013C33.1435 77.2035 33.1435 77.205 33.1435 77.2059C33.1434 77.2063 33.1434 77.2065 33.1434 77.2066C33.1434 77.2066 33.1434 77.2066 33.1434 77.2066C33.1434 77.2066 33.1434 77.2065 33.1434 77.2065C33.1434 77.2064 33.1434 77.2063 33.7798 77.2207C34.4161 77.2351 34.4161 77.235 34.4161 77.2349C34.4161 77.2348 34.4161 77.2347 34.4161 77.2346C34.4161 77.2343 34.4161 77.234 34.4161 77.2337C34.4162 77.2331 34.4162 77.2323 34.4162 77.2313C34.4162 77.2293 34.4163 77.2266 34.4163 77.2233C34.4165 77.2165 34.4166 77.207 34.4167 77.1949C34.417 77.1707 34.4173 77.1362 34.4173 77.0924C34.4172 77.0048 34.416 76.8802 34.4114 76.7282C34.4023 76.4253 34.3797 76.0087 34.3253 75.5579C34.2711 75.1099 34.1837 74.6117 34.0394 74.1514C33.8989 73.703 33.685 73.2258 33.3392 72.88L32.4391 73.7802ZM69.4506 41.5499L54.4506 26.5499L53.5504 27.4501L68.5504 42.4501L69.4506 41.5499ZM24.4506 80.5499L19.9506 76.0499L19.0504 76.9501L23.5504 81.4501L24.4506 80.5499ZM19.9506 76.0499L15.4506 71.5499L14.5504 72.4501L19.0504 76.9501L19.9506 76.0499ZM75.0005 36L75.9006 36.9001L75.0005 36ZM82.2427 28.7578L81.3425 27.8577V27.8577L82.2427 28.7578ZM82.2427 20.2734L81.3425 21.1736V21.1736L82.2427 20.2734ZM75.727 13.7578L76.6272 12.8577V12.8577L75.727 13.7578ZM54.0005 27L53.1003 26.0999L54.0005 27ZM18.7798 62.2207L17.8796 61.3206C17.7542 61.446 17.6563 61.5963 17.5924 61.7618L18.7798 62.2207ZM33.7798 77.2207L34.2387 78.4081C34.4042 78.3442 34.5545 78.2463 34.6799 78.1208L33.7798 77.2207ZM69.0005 42L68.1003 41.0999L69.0005 42ZM15.0005 72L13.8131 71.5411C13.8086 71.5527 13.8043 71.5644 13.8001 71.5762L15.0005 72ZM12.1704 80.0156L10.97 79.5918L10.9695 79.5933L12.1704 80.0156ZM12.0005 81L10.7275 80.9953V81H12.0005ZM15.0005 84V85.273L15.0052 85.273L15.0005 84ZM15.9849 83.8301L16.4072 85.031C16.4221 85.0257 16.4368 85.0203 16.4514 85.0145L15.9849 83.8301ZM16.0142 83.8184L15.6398 82.6017C15.6044 82.6125 15.5695 82.625 15.5352 82.6389L16.0142 83.8184ZM16.0903 83.7949L16.4647 85.0116C16.5809 84.9759 16.6914 84.9236 16.7928 84.8565L16.0903 83.7949ZM16.1079 83.7832L15.6846 82.5827C15.5833 82.6184 15.487 82.6667 15.398 82.7266L16.1079 83.7832ZM24.0005 81L24.4238 82.2005C24.4357 82.1963 24.4476 82.192 24.4594 82.1874L24.0005 81ZM71.4849 10.727C69.6255 10.727 67.7621 11.4381 66.3425 12.8577L68.1428 14.658C69.0662 13.7345 70.2738 13.273 71.4849 13.273V10.727ZM66.3425 12.8577L59.1003 20.0999L60.9006 21.9001L68.1428 14.658L66.3425 12.8577ZM75.9006 36.9001L83.1428 29.658L81.3425 27.8577L74.1003 35.0999L75.9006 36.9001ZM83.1428 29.658C85.9829 26.8178 85.9829 22.2134 83.1428 19.3733L81.3425 21.1736C83.1884 23.0194 83.1884 26.0118 81.3425 27.8577L83.1428 29.658ZM83.1428 19.3733L76.6272 12.8577L74.8269 14.658L81.3425 21.1736L83.1428 19.3733ZM76.6272 12.8577C75.2076 11.4381 73.3443 10.727 71.4849 10.727V13.273C72.696 13.273 73.9035 13.7345 74.8269 14.658L76.6272 12.8577ZM53.1003 26.0999L17.8796 61.3206L19.6799 63.1208L54.9006 27.9001L53.1003 26.0999ZM34.6799 78.1208L69.9006 42.9001L68.1003 41.0999L32.8796 76.3206L34.6799 78.1208ZM13.8001 71.5762L10.97 79.5918L13.3708 80.4394L16.2009 72.4238L13.8001 71.5762ZM10.9695 79.5933C10.8111 80.0438 10.7293 80.5177 10.7275 80.9953L13.2735 81.0047C13.2742 80.8116 13.3072 80.6201 13.3713 80.438L10.9695 79.5933ZM10.7275 81C10.7275 82.1333 11.1777 83.2201 11.979 84.0215L13.7793 82.2212C13.4554 81.8973 13.2735 81.458 13.2735 81H10.7275ZM11.979 84.0215C12.7804 84.8228 13.8672 85.273 15.0005 85.273V82.727C14.5425 82.727 14.1032 82.5451 13.7793 82.2212L11.979 84.0215ZM15.0052 85.273C15.4828 85.2712 15.9567 85.1894 16.4072 85.031L15.5625 82.6292C15.3804 82.6932 15.1889 82.7263 14.9958 82.727L15.0052 85.273ZM16.4514 85.0145C16.4654 85.009 16.4793 85.0034 16.4931 84.9978L15.5352 82.6389C15.5295 82.6412 15.5239 82.6435 15.5183 82.6457L16.4514 85.0145ZM16.3885 85.0351L16.4647 85.0116L15.716 82.5782L15.6398 82.6017L16.3885 85.0351ZM16.7928 84.8565C16.801 84.8511 16.8094 84.8456 16.8179 84.8398L15.398 82.7266C15.3948 82.7287 15.3914 82.7309 15.3878 82.7333L16.7928 84.8565ZM16.5313 84.9837L24.4238 82.2005L23.5771 79.7995L15.6846 82.5827L16.5313 84.9837ZM54.9006 27.9001L60.9006 21.9001L59.1003 20.0999L53.1003 26.0999L54.9006 27.9001ZM69.9006 42.9001L75.9006 36.9001L74.1003 35.0999L68.1003 41.0999L69.9006 42.9001ZM33.3209 76.0333L23.5416 79.8126L24.4594 82.1874L34.2387 78.4081L33.3209 76.0333ZM16.1879 72.4589L19.9672 62.6796L17.5924 61.7618L13.8131 71.5411L16.1879 72.4589Z" fill="url(#paint2_linear_1481_3771)" mask="url(#path-2-inside-1_1481_3771)"/>
</g>
<defs>
<filter id="filter0_b_1481_3771" x="-3.27547" y="-3.27595" width="102.551" height="102.552" filterUnits="userSpaceOnUse" color-interpolation-filters="sRGB">
<feFlood flood-opacity="0" result="BackgroundImageFix"/>
<feGaussianBlur in="BackgroundImage" stdDeviation="7.63798"/>
<feComposite in2="SourceAlpha" operator="in" result="effect1_backgroundBlur_1481_3771"/>
<feBlend mode="normal" in="SourceGraphic" in2="effect1_backgroundBlur_1481_3771" result="shape"/>
</filter>
<radialGradient id="paint0_radial_1481_3771" cx="0" cy="0" r="1" gradientUnits="userSpaceOnUse" gradientTransform="translate(29.9915 43.2171) rotate(-17.8965) scale(84.6594 163.996)">
<stop stop-color="#339AA2"/>
<stop offset="0.749777" stop-color="#339AA2" stop-opacity="0"/>
<stop offset="1" stop-color="#339AA2"/>
</radialGradient>
<radialGradient id="paint1_radial_1481_3771" cx="0" cy="0" r="1" gradientUnits="userSpaceOnUse" gradientTransform="translate(29.9915 43.2171) rotate(-17.8965) scale(84.6594 163.996)">
<stop stop-color="#339AA2"/>
<stop offset="0.749777" stop-color="#339AA2" stop-opacity="0"/>
<stop offset="1" stop-color="#339AA2"/>
</radialGradient>
<linearGradient id="paint2_linear_1481_3771" x1="70.0005" y1="12" x2="13.5827" y2="80.3536" gradientUnits="userSpaceOnUse">
<stop stop-color="white" stop-opacity="0.64"/>
<stop offset="1" stop-color="white" stop-opacity="0.24"/>
</linearGradient>
</defs>
</svg>
