<svg width="23" height="19" viewBox="0 0 23 19" fill="none" xmlns="http://www.w3.org/2000/svg">
<path d="M22.9619 2.29581C22.1438 2.65469 21.272 2.89256 20.3632 3.00806C21.2982 2.44981 22.0118 1.57256 22.3473 0.515188C21.4755 1.03494 20.513 1.40206 19.4873 1.60694C18.6595 0.725563 17.4798 0.179688 16.1928 0.179688C13.6958 0.179688 11.6855 2.20644 11.6855 4.69106C11.6855 5.04856 11.7158 5.39231 11.79 5.71956C8.04041 5.53669 4.72254 3.73956 2.49366 1.00194C2.10454 1.67706 1.87629 2.44981 1.87629 3.28169C1.87629 4.84369 2.68066 6.22831 3.87966 7.02994C3.15504 7.01619 2.44416 6.80581 1.84191 6.47444C1.84191 6.48819 1.84191 6.50606 1.84191 6.52394C1.84191 8.71569 3.40529 10.5362 5.45541 10.9556C5.08829 11.0559 4.68816 11.1041 4.27291 11.1041C3.98416 11.1041 3.69266 11.0876 3.41904 11.0271C4.00341 12.8132 5.66166 14.1263 7.63341 14.1689C6.09891 15.3693 4.15054 16.0926 2.04129 16.0926C1.67141 16.0926 1.31666 16.0761 0.961914 16.0307C2.95979 17.3191 5.32754 18.0547 7.88091 18.0547C16.1804 18.0547 20.7179 11.1797 20.7179 5.22044C20.7179 5.02106 20.711 4.82856 20.7014 4.63744C21.5965 4.00219 22.3487 3.20881 22.9619 2.29581Z" fill="white"/>
</svg>
