<svg width="209" height="203" viewBox="0 0 209 203" fill="none" xmlns="http://www.w3.org/2000/svg">
<g clip-path="url(#clip0_1637_2343)">
<path d="M56.1546 176.699C-1.73456 174.445 -8.84022 101.255 21.9397 55.7591C47.9713 17.2628 63.4623 0.942253 91.9186 -0.235518C140.008 -2.2209 177.86 54.5813 188.165 103.274C203.184 174.108 181.632 181.545 56.1546 176.699Z" fill="#E4FAFC"/>
<path d="M99.8637 194.517H65.9036C65.7023 194.517 65.568 194.391 65.568 194.203C65.568 194.014 65.7023 193.889 65.9036 193.889H99.8972C100.099 193.889 100.233 194.014 100.233 194.203C100.233 194.391 100.065 194.517 99.8637 194.517Z" fill="#1A1A1A"/>
<path d="M112.884 194.517H103.152C102.951 194.517 102.817 194.391 102.817 194.203C102.817 194.014 102.951 193.889 103.152 193.889H112.884C113.085 193.889 113.219 194.014 113.219 194.203C113.219 194.391 113.085 194.517 112.884 194.517Z" fill="#1A1A1A"/>
<path d="M59.5277 194.517H17.9502C17.7488 194.517 17.6146 194.391 17.6146 194.203C17.6146 194.014 17.7488 193.889 17.9502 193.889H59.5277C59.7291 193.889 59.8633 194.014 59.8633 194.203C59.8633 194.391 59.7291 194.517 59.5277 194.517Z" fill="#1A1A1A"/>
<path d="M94.997 194.674H61.037C60.8356 194.674 60.7014 194.548 60.7014 194.36C60.7014 194.171 60.8356 194.046 61.037 194.046H95.0306C95.2319 194.046 95.3661 194.171 95.3661 194.36C95.3661 194.548 95.1984 194.674 94.997 194.674Z" fill="#1A1A1A"/>
<path d="M108.017 194.674H98.2856C98.0843 194.674 97.9501 194.548 97.9501 194.36C97.9501 194.171 98.0843 194.046 98.2856 194.046H108.017C108.219 194.046 108.353 194.171 108.353 194.36C108.353 194.548 108.219 194.674 108.017 194.674Z" fill="#1A1A1A"/>
<path d="M54.6611 194.674H13.0835C12.8822 194.674 12.748 194.548 12.748 194.36C12.748 194.171 12.8822 194.046 13.0835 194.046H54.6611C54.8624 194.046 54.9967 194.171 54.9967 194.36C54.9967 194.548 54.8624 194.674 54.6611 194.674Z" fill="#1A1A1A"/>
<path d="M76.3852 190.191L71.4701 195.812C71.4701 195.812 67.2572 200.261 63.8504 200.911C60.4176 201.588 57.0369 200.053 57.0369 200.053C57.0369 200.053 57.2709 201.276 57.4269 201.432C57.583 201.588 60.3916 203.071 63.1222 202.837C65.8529 202.603 68.6875 200.729 71.3141 198.518C73.9407 196.306 76.9314 192.091 76.9314 192.091L76.3852 190.191Z" fill="white"/>
<path d="M36.8043 94.909C36.8043 94.909 43.7739 95.1432 48.2469 96.7043C52.7199 98.2655 57.3489 100.789 57.3489 100.789L57.1929 86.9731L59.6895 71.4397C59.6895 71.4397 66.425 68.8377 70.5859 63.3477C74.7469 57.8576 78.2056 51.4829 74.9029 46.0709C71.6002 40.6589 60.8597 35.6372 54.4363 35.0127C54.4363 35.0127 52.1738 38.7074 51.9917 43.3389L62.186 49.2192C62.186 49.2192 57.0889 54.397 53.9422 54.9434C50.7955 55.4898 44.8401 54.1629 44.8401 54.1629L44.0599 52.6798L39.821 53.4603L36.8563 50.6242L33.3195 52.4976C33.3195 52.4976 30.0948 52.966 28.6125 53.3563C27.1301 53.7466 22.8912 55.4638 20.7587 58.7683C19.6664 60.4075 18.6782 62.1248 17.794 63.868L12.8529 53.6685L11.7606 51.639L8.92601 54.371L6.48146 55.2297L4.68705 55.9322L5.54524 58.6642C5.54524 58.6642 3.67282 58.8984 3.90687 59.0545C4.14093 59.2106 7.44367 71.5437 7.44367 71.5437C7.44367 71.5437 11.9167 81.8994 13.321 83.6947C14.7253 85.4901 18.4181 88.3261 18.4181 88.3261L17.56 96.184C17.56 96.184 20.2386 94.7789 25.3357 94.7009C30.4329 94.6228 33.1895 94.935 33.1895 94.935L35.1659 88.7425L36.8043 94.909Z" fill="white"/>
<path d="M23.9574 75.8114C23.3853 74.4844 22.7871 73.3395 22.7611 73.3395L22.371 72.585L20.1865 79.2199L18.5742 85.9589L17.1699 96.7308L20.3686 95.7681L20.3426 95.4819C20.1085 91.9953 20.3946 88.4827 21.2008 85.0742C21.5649 83.6171 22.397 82.9927 23.2032 82.4202C24.0614 81.7958 24.9456 81.1713 25.0496 79.6362C25.1277 78.9337 24.7636 77.6327 23.9574 75.8114Z" fill="#E4FAFC"/>
<path d="M36.1021 73.1842L35.4 73.0801L35.348 73.3663C35.244 73.7566 35.0879 74.1469 34.8799 74.5111C34.4638 75.3698 33.5796 76.7488 31.8632 78.6222C28.9765 81.7445 28.0143 83.2016 28.0663 84.3204C28.0923 84.7887 28.3264 85.2311 28.6905 85.5433C29.3666 86.1157 30.1468 86.1678 30.7709 86.1678C31.5251 86.1938 31.7852 86.2458 31.8892 86.6882C32.2013 88.0672 29.9127 89.3681 27.9103 90.513L27.8063 90.565C23.9314 92.7767 24.9976 94.8062 25.0496 94.8842L25.1797 95.0924L25.4397 95.0663C27.9623 94.7541 30.5109 94.7801 33.0335 95.0924L33.3195 95.1184L35.452 88.6136L35.0619 83.6699L34.9839 78.5962L36.0501 73.4964C36.0761 73.4183 36.0761 73.2882 36.1021 73.1842Z" fill="#E4FAFC"/>
<path d="M49.5732 36.7567L50.9515 40.3214C50.9515 40.3214 52.5119 40.8157 52.5119 41.4142C52.5119 42.0126 51.1335 42.481 51.1335 42.481C51.1335 42.481 51.5756 46.644 49.3911 48.9337C47.2327 51.1974 45.0482 50.2607 45.0482 50.2607L43.9039 52.9667L39.873 53.4611L36.9083 50.625L38.6507 46.9303L40.2631 42.6111C39.4309 42.2468 38.9108 41.4142 38.9368 40.5035C38.9368 38.8903 39.925 38.7082 40.6272 38.8903C41.3293 39.0985 41.6414 40.3734 41.6414 40.3734C41.6414 40.3734 42.4216 41.4402 42.9417 40.9979C43.4618 40.5555 44.19 36.7828 44.7101 36.3144C45.2302 35.8461 45.9584 36.1843 46.4525 36.3144C46.9466 36.4445 48.897 37.147 49.5732 36.7567Z" fill="#E4FAFC"/>
<path d="M54.4623 35.0393C53.006 37.0428 52.2518 39.4886 52.3558 41.9865L50.0413 41.5962L47.2066 33.4521L54.4623 35.0393Z" fill="#E4FAFC"/>
<path d="M71.1841 177.104C69.5977 177.625 67.9593 178.067 66.321 178.405C63.8504 178.874 62.3161 178.614 62.3161 178.614L67.1271 187.824C67.1271 187.824 68.5835 187.174 69.6237 187.538C70.6639 187.902 72.3543 188.553 72.9525 188.267C73.5506 188.007 74.0707 185.535 74.0707 185.535L71.1841 177.104Z" fill="#E4FAFC"/>
<path d="M43.6178 179.811C42.1875 180.305 40.7312 180.695 39.2489 180.981C37.9226 181.164 36.5442 180.955 35.322 180.383L37.1164 185.118C37.1164 185.118 38.5467 186.732 40.4451 187.122C42.3436 187.512 45.1002 185.743 45.1002 185.743L43.6178 179.811Z" fill="#E4FAFC"/>
<path d="M46.4525 192.195L24.0094 192.95C24.0094 192.95 23.8794 194.329 24.5035 194.667C25.1277 195.005 27.9623 194.875 27.9623 194.875L41.4334 194.433C41.4334 194.433 46.1664 194.433 46.4785 193.861C46.7906 193.288 46.4525 192.195 46.4525 192.195Z" fill="white"/>
<path d="M7.07958 42.6115L9.60215 45.2135L10.7724 48.5179L11.8907 51.8744C11.8907 51.8744 10.3563 53.5917 9.3681 54.1641C8.37988 54.7365 6.53346 55.2829 6.53346 55.2829L3.75083 50.8076L6.87154 47.6593L6.32541 43.21C6.32541 43.236 6.11737 42.5335 7.07958 42.6115Z" fill="#E4FAFC"/>
<path d="M6.61148 55.8282C6.48145 55.8282 6.37743 55.7762 6.29941 55.6721L3.43877 51.0147C3.33474 50.8586 3.38676 50.6244 3.5688 50.5463C3.72483 50.4423 3.93288 50.4943 4.0369 50.6504L6.87154 55.2818C6.97557 55.438 6.92355 55.6461 6.76752 55.7502C6.71551 55.8022 6.66349 55.8282 6.61148 55.8282Z" fill="#1A1A1A"/>
<path d="M13.0349 53.5909V53.5649V53.5389V53.5128V53.4088V53.3827V53.3567V53.3307L12.0987 51.5874C12.0467 51.4833 11.9167 51.4053 11.7867 51.4053C11.6566 51.4053 11.5526 51.4833 11.4746 51.5874C11.4746 51.5874 10.4864 53.3047 8.04181 54.5276C7.62571 54.7357 7.20962 54.9179 6.76752 55.1L6.2214 54.3715C6.14338 54.2414 5.96134 54.1893 5.83131 54.2414C5.57125 54.3454 5.31119 54.4755 5.07714 54.6317C4.55702 55.022 4.32297 55.5163 4.453 56.0367V56.0627V56.0887L4.81708 57.0254C3.46477 57.78 3.49078 58.8468 3.69883 59.3411C3.69883 59.3411 3.69883 59.3672 3.72483 59.3672L3.75084 59.3932C3.75084 59.3932 3.77684 59.4192 3.80285 59.4192C3.80285 59.4192 3.82886 59.4452 3.85486 59.4452H3.88087C3.88087 59.4452 3.90687 59.4452 3.93288 59.4452H3.95889C3.98489 59.4452 3.98489 59.4452 4.0109 59.4452C4.08892 59.4452 5.96134 59.3411 8.53592 57.78C10.3303 56.7392 11.8647 55.3082 13.0349 53.5909C13.0089 53.6169 13.0089 53.6169 13.0349 53.5909ZM8.17184 57.2336C7.49568 57.6499 6.76752 57.9881 6.01335 58.2744L5.23317 56.1928C6.29941 55.9847 7.33965 55.6204 8.32787 55.1C9.65417 54.4495 10.7984 53.5389 11.7346 52.368L12.3068 53.4088C11.1885 54.9699 9.7842 56.2449 8.17184 57.2336Z" fill="#1A1A1A"/>
<path d="M37.8705 82.3682C38.4738 82.3682 38.9628 81.879 38.9628 81.2754C38.9628 80.6719 38.4738 80.1826 37.8705 80.1826C37.2673 80.1826 36.7783 80.6719 36.7783 81.2754C36.7783 81.879 37.2673 82.3682 37.8705 82.3682Z" fill="#1A1A1A"/>
<path d="M7.00157 62.0994C7.4899 62.0994 7.88577 61.7033 7.88577 61.2147C7.88577 60.7261 7.4899 60.3301 7.00157 60.3301C6.51324 60.3301 6.11737 60.7261 6.11737 61.2147C6.11737 61.7033 6.51324 62.0994 7.00157 62.0994Z" fill="#1A1A1A"/>
<path d="M7.88577 64.8836C8.3741 64.8836 8.76997 64.4875 8.76997 63.9989C8.76997 63.5103 8.3741 63.1143 7.88577 63.1143C7.39744 63.1143 7.00157 63.5103 7.00157 63.9989C7.00157 64.4875 7.39744 64.8836 7.88577 64.8836Z" fill="#1A1A1A"/>
<path d="M38.2606 87.4425C38.8639 87.4425 39.3529 86.9532 39.3529 86.3496C39.3529 85.7461 38.8639 85.2568 38.2606 85.2568C37.6574 85.2568 37.1684 85.7461 37.1684 86.3496C37.1684 86.9532 37.6574 87.4425 38.2606 87.4425Z" fill="#1A1A1A"/>
<path d="M77.2174 174.191L76.0212 171.589C72.6924 164.121 63.3823 143.098 60.4436 135.682L58.7273 130.53C58.4672 129.568 58.2331 128.605 57.9991 127.59C57.713 126.029 57.2709 123.713 56.9329 121.554C56.5688 118.874 56.3347 116.168 56.2567 113.462C56.2567 112.889 56.2827 112.369 56.2827 111.901C56.3347 110.548 56.3347 109.117 56.2827 107.712C56.2827 104.407 56.0747 101.519 55.9706 100.296L55.9446 99.8277C55.9446 99.7757 55.9446 99.7497 55.9186 99.6976C55.8926 99.5155 55.7626 99.3854 55.5806 99.3854C54.9564 98.891 53.058 97.6421 48.871 96.3412C44.216 94.8841 38.3387 94.5718 37.0384 94.5198L35.452 88.6655C35.426 88.5094 35.27 88.4053 35.1139 88.4053C34.9579 88.4053 34.8279 88.5094 34.7759 88.6394L32.9034 94.5718C23.3073 93.6351 17.664 95.7947 17.4299 95.8728C17.3259 95.9248 17.2479 96.0029 17.2219 96.133C17.1959 96.185 17.1699 96.2371 17.1699 96.2891C17.1699 96.3411 17.0919 97.434 17.0398 99.3594L16.8838 103.705C16.6498 111.875 18.8342 126.003 18.8603 126.133V126.159L19.0163 126.94C19.4324 129.646 19.9525 132.43 20.5766 135.292C21.1228 137.79 21.7469 140.366 22.3971 142.89L22.8652 145.049V145.075L23.9054 148.432C25.4137 153.688 27.0261 158.787 28.5604 163.315L29.4446 166.125C29.4446 166.125 29.4446 166.125 29.4446 166.151L30.3028 168.362C32.8254 175.492 34.7498 180.253 34.7759 180.383C34.7759 180.383 34.7759 180.383 34.7759 180.409C34.8799 180.618 35.374 181.32 37.5325 181.32C38.9888 181.294 40.4191 181.086 41.8234 180.722C41.8494 180.722 41.8755 180.722 41.9015 180.696C41.9275 180.696 41.9795 180.696 42.0315 180.696C45.4123 180.227 49.8593 177.053 50.0933 176.871L50.1193 176.845L50.1453 176.819C50.1453 176.819 50.1453 176.819 50.1453 176.793C50.1453 176.767 50.1453 176.793 50.1453 176.767C50.1453 176.741 50.1453 176.767 50.1453 176.741C50.1453 176.715 50.1453 176.741 50.1453 176.715C50.1453 176.689 50.1453 176.715 50.1453 176.689V176.663V176.533L47.4147 165.708L44.8921 153.922C43.3578 145.856 42.5256 139.429 42.1355 135.708C42.2655 136.047 42.3956 136.411 42.5516 136.775C43.9299 140.964 45.4903 145.179 47.1807 149.368C54.2282 166.931 61.796 178.51 61.874 178.614C61.9 178.666 61.952 178.692 62.004 178.744L62.03 178.77C62.082 178.874 62.186 178.926 62.3161 178.926C62.3681 178.926 62.9662 178.952 63.8504 178.926C64.0585 178.926 64.3185 178.926 64.5786 178.9C66.399 178.796 68.1934 178.484 69.9098 177.912C70.0398 177.859 70.1698 177.807 70.2999 177.781C72.6924 177.105 75.0069 176.064 77.1134 174.737C77.2174 174.659 77.2694 174.529 77.2694 174.399C77.2694 174.321 77.2694 174.269 77.2174 174.191Z" fill="#1A1A1A"/>
<path d="M17.586 96.0281C17.768 96.0542 17.924 96.2103 17.924 96.3924C17.924 96.5745 16.7278 114.242 21.2528 135.161C25.6998 155.716 35.0099 179.082 35.426 180.096C35.478 180.174 35.9981 180.669 37.8966 180.591C36.2582 175.959 34.8799 172.108 33.6576 168.7C29.3146 156.679 27.1561 150.669 24.2955 137.451C24.3995 134.511 27.1821 139.532 29.1586 138.257C31.187 136.93 27.4942 131.831 24.6076 127.928C23.7494 126.757 22.9952 125.534 22.319 124.233C21.2528 122.099 20.9667 119.654 20.7067 117.286C19.4324 105.629 20.2126 96.3144 20.3686 95.6639L20.6026 95.0654L19.9525 95.1955C17.9761 95.6118 17.508 95.9241 17.4299 95.9501L17.2999 96.0542V96.1843C17.3259 96.0802 17.4559 96.0021 17.586 96.0281Z" fill="#E4FAFC"/>
<path d="M22.5271 143.487L22.8391 145.048L23.9054 148.405C23.4113 146.818 22.9432 145.153 22.5271 143.487Z" fill="#E4FAFC"/>
<path d="M28.5344 163.341L29.4186 166.151L30.2768 168.363C29.7307 166.775 29.1326 165.11 28.5344 163.341Z" fill="#E4FAFC"/>
<path d="M35.66 181.033C35.8941 181.241 36.2062 181.345 36.5182 181.319C36.7003 181.319 36.8823 181.293 37.0384 181.293C36.5702 181.267 36.1021 181.189 35.66 181.033Z" fill="#E4FAFC"/>
<path d="M55.8146 107.399C52.4858 107.347 50.0933 105.5 48.637 101.909C47.9348 100.114 47.5447 98.1885 47.4147 96.2631C47.4147 96.0809 47.2587 95.9248 47.0506 95.9248C46.8686 95.9248 46.7125 96.0809 46.7125 96.2631V96.2891C46.8166 98.2926 47.2327 100.27 47.9608 102.143C49.4952 105.994 52.2258 108.05 55.8146 108.102V107.399Z" fill="#E4FAFC"/>
<path d="M29.5747 71.9084C29.2106 71.6222 28.7685 71.5442 28.3264 71.6743C27.8583 71.8044 27.4682 72.0646 27.1561 72.4288C26.454 73.2875 26.428 74.3542 27.0781 74.9007C27.3122 75.1088 27.6242 75.2129 27.9363 75.1869C28.0663 75.1869 28.1964 75.1608 28.3264 75.1348C28.7945 75.0047 29.1846 74.7445 29.4967 74.3803C30.1988 73.5477 30.2248 72.4548 29.5747 71.9084Z" fill="#E4FAFC"/>
<path d="M77.1394 191.44L76.9054 190.218C76.8533 189.983 76.7753 189.775 76.6713 189.567L74.3568 185.326L71.4961 176.948C71.4441 176.766 71.2361 176.662 71.054 176.714C70.872 176.766 70.768 176.974 70.82 177.156L73.6806 185.482C73.6546 186.731 73.3686 187.486 72.8744 187.798C72.4323 188.058 71.7302 187.954 70.768 187.486C69.4157 186.783 67.8813 187.121 67.2572 187.303L62.4201 178.223C62.3161 178.041 62.108 177.989 61.926 178.093C61.7439 178.197 61.6919 178.405 61.7959 178.587L66.633 187.694C65.2287 188.813 58.2591 194.433 56.9588 196.8C56.0226 198.492 56.4387 199.663 56.5167 199.897L56.7508 200.833C56.8808 201.354 57.1929 201.796 57.661 202.082C59.0133 202.889 60.5737 203.305 62.134 203.279C65.2287 203.279 68.1414 201.796 72.2243 198.127C73.9927 196.566 75.527 194.797 76.8533 192.872C77.1394 192.455 77.2434 191.935 77.1394 191.44ZM76.2812 192.481C75.0069 194.381 73.4986 196.098 71.7822 197.607C67.8553 201.146 65.0727 202.577 62.16 202.577C60.7037 202.603 59.2994 202.212 58.0511 201.484C57.765 201.302 57.557 201.016 57.453 200.677L57.427 200.547C58.8313 201.198 60.3656 201.536 61.926 201.51C62.4201 201.51 62.9142 201.484 63.4083 201.432C68.2454 200.911 74.7209 192.898 76.3072 190.894L76.4372 191.623C76.5153 191.883 76.4373 192.195 76.2812 192.481Z" fill="#1A1A1A"/>
<path d="M68.2194 189.099C68.1674 188.943 68.0113 188.865 67.8553 188.865C67.8033 188.865 67.6733 188.865 67.5432 188.839C62.238 188.449 59.2474 188.813 58.3632 189.932C58.0771 190.296 57.9991 190.764 58.1551 191.181C58.2852 191.649 58.6492 192.013 59.1173 192.195C59.4554 192.325 59.7935 192.378 60.1576 192.352C62.9922 192.352 67.8293 189.646 68.0894 189.541C68.2194 189.437 68.2714 189.255 68.2194 189.099ZM59.3774 191.519C59.1173 191.441 58.9093 191.233 58.8313 190.946C58.7533 190.738 58.7793 190.504 58.9093 190.348C59.2214 189.958 60.2876 189.385 63.9024 189.385C64.6826 189.385 65.5668 189.411 66.607 189.489C64.4485 190.556 60.8337 192.091 59.3774 191.519Z" fill="#E4FAFC"/>
<path d="M66.0609 195.371C65.8789 195.371 65.6708 195.345 65.4888 195.267C64.9686 195.137 64.5786 194.72 64.4745 194.226C64.0845 192.431 67.2832 189.282 67.6473 188.944C67.7513 188.84 67.9073 188.814 68.0113 188.866C68.1414 188.918 68.2194 189.048 68.2454 189.178C68.2714 189.672 68.4274 193.94 66.9191 195.084C66.685 195.267 66.373 195.371 66.0609 195.371ZM67.5432 190.037C66.347 191.312 64.9426 193.133 65.1507 194.07C65.1767 194.226 65.2807 194.434 65.7228 194.59C65.9829 194.694 66.2689 194.668 66.503 194.512C66.9971 194.148 67.3352 193.107 67.4912 191.572C67.5172 190.999 67.5432 190.479 67.5432 190.037Z" fill="#E4FAFC"/>
<path d="M46.9466 192.117C46.9466 192.091 46.9466 192.065 46.9466 192.039L45.5943 186.315L43.9819 179.732C43.9299 179.55 43.7479 179.42 43.5658 179.472C43.3838 179.524 43.2538 179.706 43.3058 179.888C43.3058 179.888 43.3058 179.888 43.3058 179.914L44.6841 185.612C42.8377 186.705 41.1993 187.069 39.795 186.705C38.8328 186.445 38.0006 185.846 37.4544 185.014L35.452 180.122C35.374 179.94 35.1659 179.862 34.9839 179.94C34.8018 180.018 34.7238 180.226 34.8018 180.408L36.2842 183.973C35.1399 182.464 32.6434 179.446 30.7449 179.238C30.2768 179.159 29.7827 179.316 29.4446 179.654C29.1066 179.914 28.9505 180.356 29.0546 180.773C29.2106 181.527 30.1988 182.334 31.4211 183.062C30.1988 182.88 29.2886 182.932 28.6905 183.245C28.2484 183.453 27.9363 183.869 27.8583 184.363C27.7543 184.806 27.8843 185.274 28.1964 185.586C28.6905 186.055 29.6787 186.211 30.7969 186.211H30.901C28.3784 186.861 25.8038 187.642 24.8156 188.37C22.7091 189.957 23.5153 192.611 23.6713 193.08V193.756C23.6713 194.199 23.8534 194.615 24.1654 194.927C24.4775 195.213 24.8676 195.369 25.2837 195.369H25.3357L45.9324 194.615C46.5045 194.589 46.9726 194.121 46.9726 193.548L46.9466 192.117ZM29.7047 180.591C29.6787 180.408 29.7307 180.226 29.8867 180.122C30.0428 179.966 30.2768 179.888 30.5109 179.888C30.5629 179.888 30.6149 179.888 30.6409 179.888C32.0712 180.044 34.2557 182.49 35.556 184.155C35.4 184.103 35.1919 184.025 35.0099 183.947C32.6174 182.984 29.8867 181.579 29.7047 180.591ZM28.6385 185.014C28.4824 184.858 28.4304 184.65 28.5084 184.467C28.5604 184.207 28.7425 183.973 28.9765 183.843C29.3406 183.687 29.7307 183.609 30.1468 183.609C31.4731 183.609 33.2935 184.129 34.7238 184.624C34.9579 184.728 35.1399 184.806 35.348 184.884C32.7994 185.404 29.4706 185.794 28.6385 185.014ZM45.8804 193.886L25.2837 194.641C25.0496 194.641 24.7896 194.563 24.6336 194.381C24.4515 194.225 24.3475 193.99 24.3475 193.73V193.34L46.2184 192.507V193.548C46.2444 193.73 46.0884 193.886 45.9064 193.912C45.9064 193.886 45.8804 193.886 45.8804 193.886Z" fill="#1A1A1A"/>
<path d="M51.9137 39.6712L51.8617 39.1508C51.8617 38.8126 51.7057 38.5004 51.4456 38.2922C51.2116 38.1361 50.9515 38.1101 50.6914 38.1881L50.3274 38.2922L50.1193 38.3703L48.637 38.8646L45.1262 39.9574L42.1355 40.8941C41.9535 40.9462 41.8234 41.1543 41.9015 41.3365C41.9535 41.5186 42.1615 41.6487 42.3436 41.5706C42.3436 41.5706 42.3436 41.5706 42.3696 41.5706L45.1002 40.712L45.2302 40.9202C45.5683 41.5186 46.2184 41.9089 46.8946 41.9089C47.0506 41.9089 47.2067 41.8829 47.3887 41.8568L48.663 41.5186C49.0531 41.4145 49.3651 41.1543 49.5212 40.764C49.6772 40.3998 49.6512 39.9835 49.4692 39.6192L49.3391 39.359L50.1453 39.0988L50.8735 40.5038C50.9255 40.6079 51.0555 40.686 51.1855 40.686C51.2376 40.686 51.2636 40.686 51.3156 40.66L51.4976 40.6079C51.9657 40.5559 51.9137 39.9314 51.9137 39.6712Z" fill="#1A1A1A"/>
<path d="M46.2184 39.4369C45.9584 39.4369 45.7503 39.2028 45.7503 38.9426C45.7503 38.7604 45.8804 38.5783 46.0624 38.5002C46.4005 38.3441 46.6865 38.0839 46.8686 37.7457C46.9726 37.5115 47.2587 37.3814 47.4927 37.4855C47.7268 37.5896 47.8568 37.8758 47.7528 38.11C47.4927 38.6824 46.9986 39.1247 46.4265 39.3589C46.3485 39.4369 46.2704 39.4369 46.2184 39.4369Z" fill="#1A1A1A"/>
<path d="M49.4952 46.1495C49.4692 45.7853 49.2871 45.447 48.975 45.2389C48.663 45.0567 48.2729 45.0047 47.9348 45.1608C47.5967 45.2909 47.2847 45.5511 47.1026 45.8633C46.8946 46.1755 46.7906 46.5398 46.8426 46.9301C46.8686 47.2944 47.0506 47.6326 47.3627 47.8408C47.5447 47.9449 47.7528 47.9969 47.9608 47.9969C48.1169 47.9969 48.2729 47.9709 48.4029 47.9188C48.741 47.7887 49.0531 47.5286 49.2351 47.2163C49.4171 46.8781 49.5212 46.5138 49.4952 46.1495Z" fill="#1A1A1A"/>
<path d="M76.776 48.9442C76.2559 46.5244 75.2937 44.7031 73.6813 43.0899C71.9129 41.3206 69.2343 39.6814 65.2814 37.886C62.3427 36.6111 59.326 35.5443 56.2313 34.7637H56.2053L55.2431 34.5296C55.2171 34.5296 55.2171 34.5296 55.1911 34.5296C53.1106 34.0352 51.4203 33.723 50.406 33.5668C50.0419 32.448 49.5998 31.3812 49.0797 30.3405C48.5856 29.4038 46.037 24.7984 42.5783 25.5789C41.408 25.8391 40.5238 25.5789 39.6916 25.3187C38.5994 25.0065 37.4811 24.6683 36.0248 25.657C34.8545 26.4376 34.5685 27.7385 34.3344 28.8834C34.1524 29.768 33.9963 30.5226 33.4762 30.9129C32.9561 31.3292 31.3177 32.6041 31.8118 35.2841C32.514 38.8748 35.1146 43.272 38.6254 46.8627L37.013 50.2972C36.7269 50.4273 35.9468 50.8176 34.8545 51.4681C34.8545 51.4681 33.2682 52.1186 29.8614 52.7951C27.5989 53.2634 25.4924 54.2261 23.646 55.6312C22.1376 56.802 20.8374 58.2071 19.8231 59.8203C19.251 60.6008 18.7829 61.4855 18.4448 62.4222C18.3668 62.6043 18.2888 62.7604 18.2108 62.9426L13.3737 53.1593C13.2957 52.9772 13.0876 52.8991 12.9056 52.9772C12.7235 53.0553 12.6455 53.2634 12.7235 53.4456L18.0027 64.1915L19.8491 67.9123L22.4237 73.1421C22.4237 73.1421 22.4237 73.1421 22.4237 73.1681C21.8776 74.6773 21.2534 76.5246 20.6553 78.6582C19.5371 78.2419 18.4188 78.9704 17.4826 79.751C17.4306 79.777 17.3786 79.8291 17.3526 79.8811C16.7544 80.4015 16.3123 80.6877 15.6882 80.0632C15.2981 79.673 14.648 78.0858 14.0238 76.5767C13.1396 74.4171 12.2294 72.2054 11.3972 71.4249C10.201 70.332 8.71862 70.6703 8.01646 70.9045C7.7304 70.0458 7.47034 69.1612 7.18427 68.2245C5.67593 63.2028 4.68771 58.9356 4.68771 58.8836C4.6357 58.7014 4.45366 58.5713 4.27162 58.6234C4.08957 58.6754 3.95955 58.8576 4.01156 59.0397C4.16759 59.7422 8.01646 76.2905 12.3594 82.6912C12.7235 83.2116 13.0876 83.7059 13.4257 84.1483C14.3359 85.4753 15.4801 86.6201 16.8585 87.5048C17.3786 87.869 17.9247 88.1813 18.4968 88.3894C18.0807 90.8352 17.7687 93.4371 17.5606 96.1952C17.5606 96.2993 17.5866 96.4033 17.6646 96.4554C17.6906 96.4814 17.6906 96.4814 17.7167 96.5074C17.7687 96.5334 17.8207 96.5334 17.8467 96.5595H17.8727C17.8987 96.5595 17.9247 96.5595 17.9507 96.5595C17.9767 96.5595 18.0027 96.5594 18.0287 96.5334C18.0547 96.5074 21.9296 94.3478 33.5542 95.2065C33.7103 95.2065 33.8663 95.1024 33.9183 94.9463L35.3746 89.7684C35.9988 93.0729 36.805 94.8942 36.857 94.9983C36.857 94.9983 36.857 95.0243 36.883 95.0503L36.909 95.0764L36.935 95.1024C36.961 95.1284 36.961 95.1284 36.987 95.1284C37.013 95.1284 37.013 95.1544 37.039 95.1284C37.065 95.1284 37.091 95.1284 37.091 95.1284C37.2211 95.1284 44.7628 95.1804 50.5881 97.4701C52.2785 98.0946 53.9168 98.8752 55.4772 99.7858L55.7112 103.012C55.7372 103.116 55.7632 103.194 55.8413 103.272C55.8933 103.324 55.9973 103.35 56.0753 103.35H56.1273C57.2456 103.142 58.0518 102.128 58.0257 101.009V100.957C58.0257 100.644 57.9217 98.4849 57.8957 95.7529C57.8957 95.3626 58.0258 91.0694 58.1818 86.3339C58.7279 80.5056 60.0802 72.8299 60.3143 71.581C61.3545 71.0866 66.9978 68.3025 70.8206 63.8793C75.5797 58.5974 77.6862 53.1333 76.776 48.9442ZM61.1985 48.632L61.9526 49.0743C61.9526 49.0743 61.9786 49.0743 62.0047 49.1003C61.0164 50.2192 57.3496 54.096 53.4227 54.4863C50.5361 54.6164 46.3751 53.8879 46.037 53.8358C45.881 53.8098 45.751 53.7838 45.673 53.7578L44.8408 52.4828C44.8668 52.4308 44.8668 52.3788 44.8928 52.3527L45.751 50.4533C45.985 50.4794 46.2191 50.5054 46.4791 50.5054C47.2333 50.5054 47.9615 50.3232 48.6376 50.011C50.5881 49.0483 51.9664 46.8367 52.0704 44.4689C52.0964 44.0266 52.0964 43.5843 52.0444 43.1419L52.9026 43.6623L61.1985 48.632ZM45.2829 60.9391L48.1175 64.4517C46.8172 64.9461 43.0724 66.4812 40.8619 67.9643C39.1975 69.0831 37.8972 70.1759 37.013 71.2427C37.4291 70.0458 37.8712 68.901 38.4173 67.7561C38.6514 67.2618 39.0155 66.5853 39.4576 65.7006C41.0439 62.7084 43.6185 57.8168 44.5547 53.4195L48.7156 59.8723L45.4909 60.3667C45.3609 60.3927 45.2569 60.4707 45.2309 60.6008C45.2049 60.7309 45.2309 60.861 45.2829 60.9391ZM36.7009 59.8203C36.5969 58.6234 36.4929 57.5046 36.4409 56.5939L37.5851 55.7352L38.1833 56.9061L36.7009 59.8203ZM41.33 56.2556L42.3182 58.129C41.6681 59.7422 40.9139 61.3294 40.2117 62.7344L40.0817 57.2704L41.33 56.2556ZM40.7058 53.5756L43.9306 52.9512C43.6185 54.4343 43.2024 55.8914 42.6563 57.2964L41.7461 55.5791L40.7058 53.5756ZM50.6921 36.533C50.8741 35.9346 50.7961 35.128 50.5881 34.2954C51.4723 34.4515 52.7986 34.6857 54.3849 35.0499C53.3447 36.6371 52.6945 38.4585 52.4865 40.3318C52.3565 40.2798 52.2264 40.2538 52.1224 40.2017C51.9924 40.1757 51.8364 40.1237 51.7323 40.0456C51.4203 39.6553 51.1862 39.239 51.0302 38.7707C50.7961 38.0682 50.5361 37.4957 50.354 37.1055C50.5101 36.9493 50.6401 36.7672 50.6921 36.533ZM39.3795 46.9407L40.9139 42.8817C40.9659 42.7256 40.9139 42.5695 40.7839 42.4654C40.7839 42.4654 39.3015 41.3206 39.5616 39.9416C39.6656 39.3952 39.9257 39.0569 40.2637 38.9528C40.4978 38.8748 40.7839 38.9268 40.9919 39.0829C41.356 39.4472 41.59 39.9155 41.6941 40.4099C41.7981 40.8522 41.9281 41.2685 42.4482 41.5027C42.7343 41.6328 43.0464 41.6328 43.3064 41.5027C43.8265 41.2425 44.2166 40.488 44.5287 39.213L44.5807 38.9528C44.8148 37.9121 45.2049 36.1948 45.829 36.2728C46.2191 36.3769 46.6092 36.5591 46.9473 36.7672C47.7534 37.2095 48.7417 37.7559 49.7039 37.4697C49.8859 37.86 50.094 38.4064 50.328 39.0569C50.5101 39.6033 50.7701 40.0977 51.1342 40.54C51.3422 40.7742 51.6283 40.9043 51.9144 40.9563C52.3565 41.0864 52.4605 41.1384 52.4865 41.3986C52.4865 41.6328 52.3045 41.7629 51.8624 41.919C51.5763 42.0491 51.1602 42.1792 51.2122 42.5955C51.2902 43.22 51.3162 43.8444 51.2902 44.4689C51.1862 46.5765 49.9899 48.5539 48.2735 49.4126C46.7652 50.1411 45.0488 49.933 43.4365 48.7881C43.4365 48.7881 43.4105 48.7881 43.4105 48.7621H43.3844H43.3584H43.3324H43.2024H43.1764H43.1504H43.1244H43.0984L43.0724 48.7881C43.0724 48.7881 43.0464 48.7881 43.0464 48.8141L43.0204 48.8401L42.9944 48.8662C42.9944 48.8662 42.9944 48.8922 42.9684 48.9182C42.9684 48.9182 42.9684 48.9182 42.9684 48.9442C42.9684 48.9702 42.9423 48.9702 42.9684 48.9963V49.0223V49.1264V49.1524V49.1784V49.2044V49.2304C42.9684 49.2304 42.9683 49.2565 42.9944 49.2565C42.9944 49.2565 42.9944 49.2565 42.9944 49.2825C43.4104 49.7768 44.4767 51.2339 44.2426 52.1186L44.2166 52.2226L40.3678 52.9772L37.7932 50.5054L39.3795 46.9407ZM37.3251 51.0778L39.6396 53.2894L36.3889 55.7613C36.3629 55.397 36.3629 55.0848 36.3369 54.8506C36.2588 53.4976 36.6229 52.1966 37.3251 51.0778ZM36.3108 51.4421C35.8167 52.5089 35.5827 53.6797 35.6087 54.8506C35.6867 57.4785 36.805 68.3546 36.909 69.4734C36.7269 69.9157 36.5709 70.3841 36.4149 70.8524C36.1288 69.5255 35.3486 68.6148 34.3084 67.4439C34.0223 67.1317 33.7363 66.7934 33.4502 66.4292C31.8118 64.4517 29.4453 62.4742 28.6131 61.8238L31.7858 58.2331C31.8638 58.129 31.8899 57.9989 31.8638 57.8688C31.8118 57.7387 31.7078 57.6607 31.6038 57.6347L28.5091 57.1403C30.8496 54.9286 33.4762 53.0032 36.3108 51.4421ZM33.4242 94.4779C24.0881 93.8274 19.7971 95.0764 18.3408 95.6488C18.6529 91.876 19.199 88.1552 19.9792 84.4605L21.1754 79.5689C22.9698 73.0901 24.8943 69.1352 24.9203 69.0571C24.9983 68.875 24.9463 68.6668 24.7642 68.5888C24.5822 68.5107 24.3742 68.5627 24.2961 68.7449C24.2961 68.7449 24.2961 68.7449 24.2961 68.7709C24.2701 68.7969 23.672 70.0719 22.8138 72.3095L20.7073 67.9903C22.7618 65.3624 22.6838 62.7604 22.6318 60.6789C22.6318 60.3407 22.6318 60.0284 22.6318 59.7162C22.6318 57.7127 24.0101 56.3077 24.1921 56.1516L24.2181 56.1255C24.2181 56.1255 24.2181 56.0995 24.2441 56.0995C25.9605 54.8246 27.937 53.9399 30.0434 53.4976C31.0837 53.2894 31.9679 53.0813 32.67 52.8991C30.8236 54.1481 29.1072 55.5791 27.4949 57.1403C27.3908 57.2444 27.3648 57.3745 27.3908 57.5046C27.4168 57.6347 27.5469 57.7387 27.6769 57.7387L30.8496 58.2591L27.8589 61.6676C27.8069 61.7457 27.7549 61.8498 27.7809 61.9278C27.7809 62.0319 27.8329 62.11 27.9109 62.162C27.937 62.188 31.0056 64.5818 32.9041 66.8975C33.2161 67.2618 33.5022 67.626 33.7883 67.9383C35.2446 69.6035 36.0508 70.5402 35.7907 72.934C35.6867 73.2722 35.6087 73.6105 35.5307 73.9747C35.5047 74.0008 35.5047 74.0528 35.5047 74.1048C34.8805 76.993 34.6205 79.9332 34.7245 82.8993C34.7765 84.6687 34.9325 86.4119 35.1926 88.1552L33.4242 94.4779ZM75.1636 56.0215C74.1754 58.4412 72.537 61.0172 70.4306 63.463C66.3996 68.1464 60.2883 70.9305 60.0282 71.0606C59.7161 71.1907 54.775 73.0901 53.9688 75.7441C53.5007 77.3052 54.2809 78.346 54.9571 79.2827C55.4772 79.9852 55.9193 80.5576 55.7632 81.2601C55.6332 81.8586 54.1249 82.9514 52.7986 83.9141C50.6401 85.5013 48.5856 86.9844 48.9757 88.2593C49.3918 89.5863 50.9261 89.5082 52.4345 89.4042C53.4747 89.3521 54.567 89.2741 55.1911 89.6904C57.0635 90.9393 57.2976 94.2698 57.3496 95.4146V95.8049C57.3756 97.6262 57.4276 99.1874 57.4536 100.124C57.0375 99.8379 56.6214 99.5517 56.1793 99.3175C54.541 98.3548 52.8246 97.5222 51.0302 96.8457C45.647 94.7381 38.8594 94.5039 37.5331 94.4779C37.169 93.5412 35.6607 89.4042 35.4527 82.8213C35.3486 79.9852 35.5827 77.1491 36.1808 74.391V74.365C36.1808 74.339 36.1808 74.313 36.2068 74.261C36.2068 74.1829 36.2328 74.1309 36.2588 74.0528C36.7009 72.3355 38.3913 70.4882 41.304 68.5627C43.9046 66.8455 48.8197 64.9721 48.8717 64.9461C48.9757 64.92 49.0537 64.816 49.0797 64.7119C49.1057 64.6078 49.0797 64.4777 49.0017 64.3997L46.2451 60.9911L49.3918 60.4968C49.5218 60.4707 49.5998 60.3927 49.6519 60.2886C49.7039 60.1845 49.6779 60.0544 49.6259 59.9504L46.9993 55.8653C49.3138 56.698 55.0611 58.7275 57.2976 59.0917C58.0518 59.2218 58.7799 59.2999 59.5341 59.3259C60.2883 59.3259 60.8344 59.1958 61.1465 58.9356C61.3805 58.7275 61.5365 58.4412 61.5365 58.129C61.5625 57.6347 61.1465 57.2704 60.7044 56.8801C60.1322 56.3597 59.5341 55.8393 59.6901 55.0067C59.7941 54.6685 59.9242 54.3562 60.0802 54.07C60.4443 53.4195 60.9124 52.5089 60.2883 51.7283C61.0944 51.0258 61.8746 50.2712 62.5508 49.4646C63.747 50.1931 66.1916 51.6242 67.4139 52.0405C67.6739 52.1186 67.934 52.1706 68.194 52.1706C68.7402 52.1966 69.2343 51.9364 69.5203 51.4681C69.8844 50.8436 69.6764 50.037 69.0002 49.4126C68.2461 48.71 67.0758 48.0335 65.5935 47.1489C64.6052 46.5504 63.461 45.8739 62.2127 45.0674C60.1322 43.7143 59.8462 43.1679 59.17 41.9711C59.014 41.7109 58.8579 41.3986 58.6499 41.0604C58.0518 40.1497 57.3236 39.3171 56.4914 38.6146C55.9973 38.1983 55.6072 37.808 55.4252 37.4697C55.1911 36.9754 55.7112 36.0647 56.1793 35.4923C59.17 36.2728 62.1087 37.2876 64.9433 38.5365C71.2627 41.3726 74.9036 43.8705 76.0478 49.0743C76.5419 51.1038 76.2038 53.4456 75.1636 56.0215Z" fill="#1A1A1A"/>
<path d="M7.67773 45.9409L5.83131 41.0233C5.80531 40.9452 5.72729 40.8932 5.64927 40.8672C5.57125 40.8412 5.46723 40.8672 5.41522 40.9452C5.15516 41.2054 4.92111 41.4656 4.73907 41.7779C4.66105 41.8039 4.58303 41.8559 4.47901 41.8819C4.21895 41.986 4.0109 42.038 3.93288 42.2202C3.80285 42.4804 3.9849 42.6885 4.08892 42.8446C4.11492 42.8707 4.16694 42.9227 4.19294 42.9747C3.88087 44.0675 4.21895 45.0823 5.18117 45.8369C5.23318 45.9409 5.41522 46.2532 5.25918 46.3833C5.05114 46.5394 4.34898 46.5914 3.93288 46.5654C3.82886 46.5654 3.75084 46.6174 3.69883 46.6955C3.64682 46.7736 3.64682 46.8776 3.69883 46.9557C3.77685 47.0858 3.82886 47.2419 3.82886 47.372C3.82886 47.372 3.82886 47.372 3.80285 47.398C3.59481 47.4761 2.73661 47.2939 2.32052 47.2419C1.67037 47.1118 1.51434 47.0858 1.38431 47.2679C1.3323 47.346 1.3323 47.424 1.3583 47.5021C1.3323 47.5021 1.3323 47.5281 1.30629 47.5541C1.15026 47.8924 1.17626 48.2827 1.38431 48.5689L2.86664 50.7805C3.04868 51.0407 3.33475 51.2228 3.64682 51.2489H3.75084C4.03691 51.2489 4.29697 51.1448 4.50501 50.9366L7.41767 47.9444C7.44368 47.8924 7.46968 47.8664 7.49569 47.8143L7.72974 46.071C7.70374 46.045 7.70374 45.993 7.67773 45.9409Z" fill="#1A1A1A"/>
<path d="M3.28274 39.6708L3.46478 39.7229C3.95889 39.931 4.37499 40.2172 4.76507 40.5815C5.62327 41.4662 5.23318 42.0646 5.23318 42.0646L4.19294 42.1167L3.82886 42.559L2.55457 42.1427C2.55457 42.1427 2.11247 40.4254 2.58058 40.0091C3.04869 39.5928 3.28274 39.6708 3.28274 39.6708Z" fill="#E4FAFC"/>
<path d="M2.34652 42.2725C3.20471 42.4286 4.0369 42.7408 4.79107 43.1831C6.16938 43.9377 6.84554 44.9524 6.6895 45.2387C6.53347 45.5249 5.31119 45.5249 5.31119 45.5249C5.31119 45.5249 5.96134 45.8891 5.46723 46.2794C4.97311 46.6697 3.5948 46.6437 3.5948 46.6437C3.5948 46.6437 4.08891 47.1641 3.88087 47.3983C3.33474 48.0748 1.59235 47.3722 1.59235 47.3722L0.708151 47.7105C0.708151 47.7105 0.08401 45.8371 0.682145 45.655C0.682145 45.655 0.630133 44.38 1.59235 43.9637C1.28028 43.3913 1.51433 42.6628 2.11247 42.3765C2.16448 42.3245 2.2425 42.2985 2.34652 42.2725Z" fill="#E4FAFC"/>
<path d="M4.60903 42.6627C4.55702 42.6367 4.50501 42.6107 4.45299 42.5847C3.90687 42.2985 3.33474 42.0903 2.73661 41.9602C2.63258 41.5959 2.47655 40.6332 2.84063 40.1909C2.94465 40.0608 3.07468 40.0088 3.20471 39.9827C3.49078 39.9567 3.93288 40.1909 4.40098 40.6072C4.9211 41.0756 5.10314 41.4398 5.07714 41.622C5.07714 41.674 5.05113 41.7 5.02512 41.726C4.89509 41.8041 4.21894 41.5439 3.62081 41.1276C3.46477 40.9975 3.25672 41.0235 3.1267 41.1796C2.99667 41.3358 3.02267 41.5439 3.17871 41.674L3.20471 41.7C4.58302 42.6888 5.23317 42.4286 5.41521 42.3245C5.64926 42.1944 5.77929 41.9342 5.8053 41.674C5.83131 41.3357 5.70128 40.8154 4.89509 40.0608C4.27095 39.4884 3.67282 39.2022 3.17871 39.2282C2.84063 39.2542 2.52856 39.4103 2.32051 39.6965C2.2425 39.7746 1.67037 40.5292 2.03445 41.9602C1.93043 41.9862 1.8264 42.0383 1.74838 42.1163C1.17626 42.5847 1.20226 43.3132 1.28028 43.7555C1.04623 43.8336 0.838179 43.9637 0.708149 44.1458C0.474097 44.5101 0.370073 44.9784 0.448091 45.4208C0.188032 45.681 0.0319968 46.0452 0.0580027 46.4095C0.110014 47.3982 1.17626 48.2829 1.30628 48.387C1.3583 48.439 1.43631 48.465 1.54034 48.465C1.64436 48.465 1.74838 48.413 1.8004 48.3349C1.87841 48.2309 1.90442 48.1268 1.85241 47.9967C2.52856 48.1528 3.80285 48.3349 4.21894 47.4503C4.29696 47.2942 4.29696 47.138 4.27095 46.9819C4.29696 46.9819 4.32297 46.9819 4.37498 46.9819C4.45299 46.9819 4.53101 47.0079 4.63504 46.9819C5.12915 47.034 5.59725 46.7478 5.83131 46.3054C5.90932 46.1493 5.90932 45.9672 5.85731 45.8111C6.11737 45.8111 6.37743 45.733 6.61148 45.6029C6.84553 45.4468 7.00157 45.2126 7.05358 44.9264C7.15761 44.1718 5.64926 43.1571 4.60903 42.6627ZM3.54279 47.2681C3.33474 47.7365 2.13847 47.5023 1.64436 47.3202C1.48833 47.2681 1.33229 47.3202 1.22827 47.4503C0.968208 47.1901 0.786167 46.8518 0.734155 46.4615C0.734155 46.3054 0.786167 46.1233 0.916196 46.0192C1.20226 45.8891 2.7106 46.3054 3.36075 46.9299C3.49078 47.086 3.56879 47.2161 3.54279 47.2681ZM3.75084 46.2274C3.69882 46.2014 3.62081 46.2014 3.54279 46.2014C2.81462 45.707 2.00844 45.3948 1.12424 45.3167C1.07223 45.0825 1.12424 44.8483 1.25427 44.6662C1.3583 44.5361 1.54034 44.4581 1.72238 44.4581C2.47655 44.432 4.16693 45.1346 4.86909 45.8111C5.07714 46.0192 5.12915 46.1233 5.12915 46.1493C4.86909 46.6957 3.75084 46.2274 3.75084 46.2274ZM6.19539 45.1085C5.88332 45.2386 5.51924 45.2386 5.20716 45.1346C4.40098 44.4841 2.94465 43.8336 2.00844 43.7555C1.93043 43.4693 1.87841 43.001 2.21649 42.7148C2.42454 42.5326 3.07468 42.7148 4.19294 43.2352C4.24495 43.2612 4.32297 43.2872 4.34897 43.3132C5.62326 43.9117 6.37743 44.6922 6.32542 44.9264C6.29941 45.0305 6.2474 45.0825 6.19539 45.1085Z" fill="#1A1A1A"/>
<path d="M8.04181 38.0579L7.05358 36.7569C6.63749 36.1845 5.93533 35.8983 5.23317 36.0023C5.15515 36.0023 5.07714 36.0284 4.99912 36.0544L4.16693 35.1437C4.55702 34.7534 4.79107 34.3631 4.66104 34.207C4.53101 34.0509 4.06291 34.155 3.54279 34.4672L2.91865 33.7647C3.20471 33.5045 3.36075 33.2183 3.28273 33.1142C3.17871 32.9841 2.86664 33.0882 2.50256 33.2963L2.16448 32.9321C2.08646 32.88 1.95643 32.854 1.85241 32.9321C1.72238 33.0101 1.69637 33.1663 1.74838 33.2963L2.00844 33.7127C1.67037 33.9989 1.51433 34.3111 1.59235 34.4412C1.67037 34.5713 1.98244 34.4672 2.34652 34.2851L2.84063 35.0917C2.37253 35.482 2.11247 35.8983 2.2425 36.0804C2.37253 36.2365 2.78862 36.1324 3.25673 35.8723L3.88087 36.913C3.82885 37.0171 3.77684 37.0952 3.72483 37.1992C3.46477 37.7977 3.51678 38.5002 3.90687 39.0466L6.29941 42.7674C6.32542 42.8194 6.37743 42.8454 6.42944 42.8714L8.06781 43.4439L8.69195 44.6668C8.74396 44.7448 8.82198 44.7969 8.92601 44.7969C9.03003 44.7969 9.10805 44.7448 9.16006 44.6668C10.0183 42.9495 10.4083 41.7266 8.04181 38.0579Z" fill="#1A1A1A"/>
<path d="M7.39167 42.7677L9.65418 45.3957L11.5266 50.6776C11.5266 50.6776 7.5217 49.871 7.5217 49.923C7.5217 49.949 6.84554 47.7634 7.41767 46.0201C7.5217 45.89 6.50747 44.7712 6.35143 43.6784C6.32543 43.5223 6.32543 43.3662 6.29942 43.2361C6.27341 42.8978 6.53347 42.5856 6.87155 42.5596C7.0796 42.5596 7.26164 42.6376 7.39167 42.7677Z" fill="#E4FAFC"/>
<path d="M11.6306 52.0295C11.4746 52.0295 11.3445 51.9255 11.2925 51.7954C10.4604 49.0373 9.44612 45.915 9.26408 45.6028C9.21207 45.4987 8.84799 45.0564 7.02758 42.8968C6.97556 42.8448 6.89755 42.8187 6.81953 42.8447C6.74151 42.8708 6.6895 42.9488 6.7155 43.0529C6.81953 43.8855 7.07959 45.0304 7.65172 45.8109C7.72973 45.889 7.75574 46.0191 7.70373 46.1232C7.70373 46.1492 7.10559 48.3348 7.80775 49.7919C7.88577 49.974 7.83376 50.1822 7.65172 50.2602C7.46967 50.3383 7.28763 50.2602 7.18361 50.1041C6.48145 48.621 6.87154 46.6956 7.00157 46.0972C6.50746 45.3686 6.16938 44.3799 6.01335 43.131C5.96133 42.7407 6.16938 42.3764 6.50746 42.1943C6.84553 42.0382 7.28763 42.1162 7.52169 42.4284C8.87399 44.0416 9.65417 44.9523 9.8102 45.1865C10.1223 45.6808 11.6306 50.5725 11.9167 51.5352C11.9687 51.7173 11.8647 51.9255 11.6826 51.9775C11.6826 52.0295 11.6566 52.0295 11.6306 52.0295Z" fill="#1A1A1A"/>
<path d="M7.49568 39.7746C7.39166 39.7746 7.26163 39.7225 7.20962 39.6185L6.14338 38.0573C6.03935 37.9012 6.09136 37.667 6.2474 37.5629C6.40343 37.4589 6.61148 37.5109 6.74151 37.667L7.80775 39.2282C7.91177 39.3843 7.88577 39.6185 7.70373 39.7225C7.62571 39.7486 7.5737 39.7486 7.49568 39.7746Z" fill="white"/>
<path d="M41.6934 134.407C41.5374 134.407 41.4073 134.303 41.3553 134.147C39.1708 127.017 37.3244 118.665 36.3362 113.201C34.9839 105.786 32.2533 103.678 32.2533 103.652C32.0972 103.548 32.0452 103.314 32.1753 103.158C32.2793 103.002 32.5133 102.949 32.6694 103.08C32.6694 103.08 32.6694 103.08 32.6954 103.08C32.8254 103.158 35.66 105.317 37.0644 113.071C38.0526 118.509 39.899 126.861 42.0835 133.938C42.1355 134.121 42.0575 134.303 41.8754 134.381C41.8754 134.381 41.8754 134.381 41.8494 134.381C41.7714 134.381 41.7194 134.407 41.6934 134.407Z" fill="#E4FAFC"/>
<path d="M57.4272 124.573L57.401 124.468C57.401 124.494 57.4272 124.52 57.4272 124.573Z" fill="#E4FAFC"/>
<path d="M52.1218 116.843C55.0864 118.977 56.0746 121.423 56.7248 124.701C55.8146 119.575 55.4245 114.449 55.5805 110.833V110.807C55.5025 111.223 55.1905 112.342 54.5923 112.68C54.3843 112.81 54.1242 112.81 53.9162 112.732C53.396 112.55 52.8759 112.316 52.3818 112.03C50.8475 111.275 49.2871 110.494 48.4809 111.457C48.2729 111.717 48.1689 112.056 48.2469 112.394C48.4289 114.033 51.2636 116.219 52.1218 116.843Z" fill="#E4FAFC"/>
<path d="M54.4103 140.755C56.1787 142.395 58.1811 144.242 58.5972 146.063C58.6752 146.532 58.7012 147 58.6752 147.494C58.6492 149.056 58.6232 151.007 61.3018 152.906C64.5006 155.17 67.2312 158.11 68.8175 160.998C69.1816 161.701 69.6497 162.638 70.1698 163.73C71.6522 166.879 73.6546 171.172 76.3852 174.346C76.4112 174.32 76.4373 174.32 76.4893 174.294C75.0849 171.146 62.238 142.291 59.4554 135.005C59.2994 134.589 59.1433 134.147 58.9873 133.704C59.1954 134.615 59.3254 136.254 58.8313 136.801C58.6752 136.957 58.4672 137.009 58.2591 136.957C57.505 136.853 56.4647 136.072 55.4765 135.317C53.9682 134.173 52.4078 132.976 51.1075 133.548C50.6134 133.704 50.2493 134.121 50.1453 134.641C49.9373 135.708 50.8995 137.269 53.058 139.455C53.4221 139.871 53.8902 140.287 54.4103 140.755Z" fill="#E4FAFC"/>
<path d="M48.1689 118.926C46.8946 117.807 45.1002 116.792 44.0599 117.026C43.7479 117.078 43.4618 117.286 43.3318 117.599C42.8377 118.639 43.5138 119.966 45.3082 121.553C46.2964 122.412 47.9868 123.115 49.0791 123.115C49.3651 123.141 49.6772 123.063 49.9113 122.854C50.1193 122.646 50.2233 122.36 50.1973 122.074C50.1973 121.189 49.4171 119.992 48.1689 118.926Z" fill="#E4FAFC"/>
<path d="M47.8308 149.107C51.1335 157.356 54.9824 165.369 59.3774 173.097C58.9873 172.343 56.4387 167.295 56.0226 165.057C55.8666 164.251 55.9966 163.6 56.3607 163.262C56.6728 163.002 57.1149 162.95 57.505 163.106C57.713 163.184 57.9471 163.262 58.1811 163.366C58.9353 163.652 59.7155 163.964 60.2876 163.6C60.6257 163.392 60.8077 162.976 60.8597 162.377C60.9897 160.27 58.4932 157.642 53.188 154.285C49.5212 151.97 47.6747 148.431 47.1286 147.234L46.9466 146.844C47.2066 147.572 47.5187 148.327 47.8308 149.107Z" fill="#E4FAFC"/>
<path d="M46.2444 147.052C46.2444 147.078 46.2707 147.104 46.2707 147.13C46.2707 147.13 46.2707 147.078 46.2444 147.052Z" fill="#E4FAFC"/>
<path d="M58.7272 173.41L58.7797 173.515C58.7797 173.489 58.7535 173.436 58.7272 173.41Z" fill="#E4FAFC"/>
<path d="M51.5496 159.516L51.5756 159.62L51.6016 159.698C51.6276 159.62 51.6016 159.568 51.5496 159.516Z" fill="#E4FAFC"/>
<path d="M163.757 194.674H129.797C129.596 194.674 129.462 194.548 129.462 194.36C129.462 194.171 129.596 194.046 129.797 194.046H163.791C163.992 194.046 164.126 194.171 164.126 194.36C164.126 194.548 163.958 194.674 163.757 194.674Z" fill="#1A1A1A"/>
<path d="M176.777 194.674H167.046C166.844 194.674 166.71 194.548 166.71 194.36C166.71 194.171 166.844 194.046 167.046 194.046H176.777C176.979 194.046 177.113 194.171 177.113 194.36C177.113 194.548 176.979 194.674 176.777 194.674Z" fill="#1A1A1A"/>
<path d="M123.421 194.674H81.8437C81.6423 194.674 81.5081 194.548 81.5081 194.36C81.5081 194.171 81.6423 194.046 81.8437 194.046H123.421C123.623 194.046 123.757 194.171 123.757 194.36C123.757 194.548 123.623 194.674 123.421 194.674Z" fill="#1A1A1A"/>
<path d="M128.748 49.5224L127.058 42.2155C127.058 42.2155 125.03 41.9554 124.848 40.3432C124.692 38.731 126.33 37.8469 126.33 37.8469L129.476 33.6084L133.948 32.2302L135.585 30.748C135.585 30.748 137.327 31.5801 138.367 34.0505C138.601 34.0505 139.277 34.0765 139.459 34.0765C139.667 34.0765 140.525 33.9985 140.551 34.4405C140.577 34.8826 139.459 36.5208 139.459 36.5208C139.459 36.5208 139.849 40.2132 138.393 42.2935C136.937 44.3737 136.469 44.5038 136.469 44.5038L137.301 46.298C137.301 46.298 135.975 48.9763 134.052 49.5484C132.128 50.1205 128.748 49.5224 128.748 49.5224Z" fill="#E4FAFC"/>
<path d="M139.667 180.708L138.237 186.897C138.237 186.897 139.173 188.899 141.305 188.665C143.437 188.431 144.945 186.559 146.738 186.689L148.688 181.228L139.667 180.708Z" fill="#E4FAFC"/>
<path d="M166.107 97.7059C166.029 97.6279 165.925 97.6019 165.847 97.6019L159.139 98.0439H159.113L153.186 98.928L151.652 92.6612C151.6 92.4792 151.418 92.3492 151.236 92.4012C151.106 92.4272 151.028 92.5312 150.976 92.6352L148.74 99.7601C147.492 99.9681 141.097 101.06 135.975 102.438C130.282 103.947 124.822 106.937 124.77 106.989C124.64 107.067 124.588 107.171 124.588 107.327L124.822 111.67L124.276 118.352L120.429 133.226L116.035 150.882L108.964 179.434C108.912 179.59 108.99 179.746 109.146 179.824C109.406 179.954 115.567 183.074 121.391 183.074H121.599C121.755 183.074 121.859 182.97 121.937 182.84L131.504 158.371L140.213 135.333L142.787 128.858L140.941 139.389L134.364 177.666C134.338 177.796 134.39 177.926 134.494 178.004C134.624 178.108 137.821 180.656 141.825 181.826C145.829 182.996 147.882 182.944 147.986 182.944C148.142 182.944 148.272 182.84 148.324 182.684L149.182 179.798L157.814 153.925V153.899C157.84 153.769 160.569 141.573 161.817 135.229C163.065 128.858 165.327 111.618 165.353 111.436V111.41L166.211 97.9919C166.211 97.8879 166.185 97.7839 166.107 97.7059Z" fill="#1A1A1A"/>
<path d="M123.106 168.279C123.184 167.655 122.795 166.381 121.911 164.327C121.625 163.625 121.235 163.209 120.793 163.027C120.455 162.897 120.065 162.923 119.753 163.105C118.635 163.651 118.999 164.951 119.207 165.705C119.233 165.783 119.233 165.835 119.259 165.913C119.389 166.433 119.337 166.979 119.129 167.473C118.999 167.837 118.921 168.201 118.895 168.591C118.895 169.293 119.545 170.932 119.753 171.452C119.883 171.79 120.611 173.558 121.001 173.844C121.209 174 121.443 174.104 121.703 174.104C121.781 174.104 121.833 174.104 121.911 174.078C122.275 174 122.613 173.766 122.795 173.454C123.08 172.986 122.846 172.18 122.561 171.218C122.509 171.036 122.457 170.88 122.431 170.75C122.275 170.099 122.509 169.657 122.743 169.189C122.95 168.929 123.054 168.617 123.106 168.279Z" fill="#E4FAFC"/>
<path d="M195.718 20.2683L197.226 18.9941L198.682 26.9511L197.096 28.3033L195.718 20.2683Z" fill="#1A1A1A"/>
<path d="M197.096 28.6412C197.044 28.6412 197.018 28.6412 196.966 28.6152C196.836 28.5632 196.758 28.4592 196.732 28.3552L195.328 20.3202C195.302 20.1902 195.354 20.0601 195.458 19.9821L196.992 18.708C197.096 18.63 197.226 18.604 197.33 18.656C197.46 18.708 197.538 18.812 197.564 18.916L199.02 26.899C199.046 27.029 198.994 27.159 198.89 27.237L197.33 28.5632C197.278 28.6152 197.2 28.6412 197.096 28.6412ZM196.082 20.3982L197.356 27.6271L198.292 26.821L196.992 19.6441L196.082 20.3982Z" fill="#1A1A1A"/>
<path d="M208.327 13.5334C208.223 13.3773 208.015 13.3253 207.833 13.4033L207.261 13.7674C206.845 13.3253 206.455 13.0913 206.273 13.2213C206.117 13.3513 206.221 13.7414 206.533 14.2094L205.441 14.8855C204.87 14.2874 204.324 13.9754 204.09 14.1574C203.882 14.3135 204.012 14.8855 204.402 15.5356L203.024 16.3937C202.894 16.3157 202.764 16.2377 202.634 16.1857C201.802 15.8476 200.84 15.9517 200.112 16.4717L197.018 18.682C196.914 18.76 196.862 18.89 196.888 19.046L197.824 24.2727C197.85 24.4027 197.928 24.5067 198.058 24.5327C198.11 24.5587 198.136 24.5587 198.188 24.5587C198.266 24.5587 198.344 24.5327 198.422 24.4807L203.232 20.6842C203.986 20.0862 204.35 19.1241 204.194 18.1879C204.168 18.0839 204.142 17.9799 204.116 17.8759L205.312 16.7318C205.857 17.2778 206.377 17.5379 206.585 17.3818C206.819 17.1998 206.637 16.6017 206.195 15.8996L207.131 15.0155C207.495 15.3796 207.885 15.5876 208.015 15.4836C208.171 15.3536 208.041 14.9375 207.755 14.4435L208.249 13.9754C208.379 13.8454 208.405 13.6634 208.327 13.5334Z" fill="#1A1A1A"/>
<path d="M121.625 182.763L119.935 187.262C119.935 187.262 118.869 189.03 117.439 188.588C116.009 188.146 113.175 186.325 111.875 186.715L113.669 181.385L118.271 182.555L121.625 182.763Z" fill="#E4FAFC"/>
<path d="M168.447 98.5124L165.847 84.8607L164.105 78.5159C164.105 78.5159 164.729 79.608 167.173 79.062C169.617 78.5159 179.574 69.8828 179.574 69.8828L182.719 66.6584C182.719 66.6584 180.276 67.5945 178.274 63.8241C176.272 60.0536 176.792 57.9473 176.792 57.9473L167.875 63.7721L166.497 61.1457L157.268 48.8202C157.268 48.8202 153.03 46.0379 148.558 46.1159C144.087 46.1939 141.695 46.948 141.695 46.948L137.353 46.2719C137.353 46.2719 135.611 48.9502 134.104 49.5223C132.596 50.0944 128.774 49.5223 128.774 49.5223C128.774 49.5223 126.694 51.1345 125.68 55.217L121.339 58.5454L116.477 64.1881C116.477 64.1881 112.135 70.5069 111.511 76.0976C110.888 81.6883 110.81 86.3949 112.629 90.9715C114.449 95.548 117.153 98.7984 123.99 99.1365L122.457 108.68L125.446 106.859C125.446 106.859 131.504 103.687 138.445 102.153C145.387 100.619 149 100.099 149 100.099L151.314 92.7657L152.926 99.3185C152.9 99.3445 165.327 97.0822 168.447 98.5124Z" fill="white"/>
<path d="M168.265 63.485L166.523 60.6246C164.287 56.9841 162.233 53.9418 160.439 51.5755C158.151 48.5331 154.746 46.5308 151.002 45.9848C147.778 45.5427 144.503 45.8288 141.409 46.7649C141.097 46.6349 140.759 46.5048 140.421 46.4268C139.303 46.1408 138.159 46.0368 137.015 46.1408C136.989 46.1408 136.989 46.1408 136.963 46.1408H136.937C136.937 46.1408 136.937 46.1408 136.911 46.1408C136.911 46.1408 136.885 46.1408 136.859 46.1668C136.859 46.1668 136.859 46.1668 136.833 46.1668L136.807 46.1928C136.807 46.1928 136.807 46.2188 136.781 46.2188V46.2448V46.2708C136.651 46.6349 136.443 46.9989 136.209 47.3109C135.637 48.091 134.857 48.7151 133.974 49.1052C131.738 50.1193 128.904 49.1052 128.878 49.1052H128.852H128.618H128.592H128.566H128.54H128.514C128.514 49.1052 128.488 49.1052 128.488 49.1312C128.358 49.2352 125.498 51.7575 125.03 57.2962C125.004 57.4262 125.082 57.5302 125.16 57.6082C125.264 57.6862 125.368 57.7122 125.498 57.6602L128.332 56.6721L128.046 60.0785C128.02 60.2606 128.15 60.4166 128.306 60.4426C128.358 60.4426 133.818 61.7947 137.275 64.031C137.327 64.057 137.405 64.083 137.457 64.083C137.587 64.083 137.691 64.031 137.743 63.927C137.847 63.771 137.795 63.563 137.639 63.459C134.52 61.4307 129.944 60.1565 128.748 59.8445L129.06 56.2041C129.086 56.074 129.034 55.97 128.93 55.892C128.826 55.814 128.722 55.788 128.592 55.84L125.758 56.8281C126.174 53.2917 127.656 51.1334 128.436 50.1973C128.696 50.8474 129.112 51.4455 129.632 51.9395C129.996 52.3036 130.62 52.8496 131.4 53.5517C132.882 54.8519 134.961 56.6721 136.599 58.5183L138.081 60.3386C138.523 60.9366 138.887 61.6127 139.147 62.3408C139.199 62.4968 139.329 62.6008 139.485 62.5748C139.511 62.5748 139.563 62.5748 139.589 62.5748C139.719 62.5488 139.797 62.4448 139.823 62.3148H139.849C139.927 62.3148 140.031 62.2888 140.083 62.2108L142.059 60.3646C142.111 60.4166 142.215 60.4686 142.293 60.4686C142.319 60.4686 142.345 60.4686 142.371 60.4686C142.553 60.4426 142.683 60.2606 142.657 60.0525C142.085 57.1402 141.201 54.3058 140.031 51.6015C140.031 51.5755 140.005 51.5495 140.005 51.4975C139.043 49.2352 138.133 47.467 137.665 46.6609C138.549 46.6349 139.433 46.7389 140.265 46.9469C141.175 47.2069 142.033 47.623 142.761 48.1951L140.967 50.2493C140.863 50.3533 140.863 50.4833 140.915 50.6134C140.967 50.7434 141.071 50.8214 141.227 50.8474L144.217 51.1594L145.621 57.5822C145.647 57.7382 145.803 57.8683 145.959 57.8683C145.985 57.8683 146.011 57.8683 146.037 57.8683C146.219 57.8163 146.348 57.6342 146.297 57.4522L144.815 50.7694C144.789 50.6134 144.659 50.5093 144.503 50.5093L141.981 50.3273L143.567 48.5331C143.697 48.4031 143.671 48.1691 143.541 48.039C143.177 47.727 142.813 47.467 142.397 47.2329C145.205 46.5048 148.116 46.3228 150.976 46.6869C154.564 47.2069 157.788 49.1312 159.945 52.0175C161.739 54.3838 163.767 57.4002 166.003 60.9886L167.745 63.849C167.823 63.953 167.927 64.031 168.057 64.031C168.109 64.031 168.187 64.005 168.239 63.979C168.343 63.849 168.369 63.641 168.265 63.485ZM133.688 54.7999C133.012 54.1758 132.388 53.6297 131.842 53.1357C131.062 52.4336 130.438 51.8875 130.1 51.5495C129.398 50.8214 129.138 50.3013 129.06 49.9893C129.892 50.2233 130.724 50.3273 131.582 50.3533C132.31 50.3533 133.012 50.2493 133.688 50.0153V54.7999ZM134.416 55.45V52.8496L135.481 53.5517L136.261 57.2442C135.663 56.6461 135.039 56.048 134.416 55.45ZM140.655 55.45L137.561 52.3816L137.431 51.2634L139.355 52.0435C139.823 53.1097 140.239 54.2538 140.655 55.45ZM138.991 51.1334L134.909 49.4692C135.819 48.9231 136.573 48.1691 137.093 47.2329C137.483 47.987 138.185 49.3652 138.991 51.1334Z" fill="#1A1A1A"/>
<path d="M148.272 76.6689C148.272 76.6689 149.13 78.4631 149.052 79.8933C148.974 81.3234 148.974 83.9498 148.974 83.9498L152.224 82.8576L154.824 81.6095L156.8 80.7514L157.736 80.8814C157.736 80.8814 158.178 79.4512 157.476 78.9051C157.476 78.9051 158.1 78.2551 157.84 77.553C157.58 76.8509 156.722 76.3568 156.722 76.3568C156.722 76.3568 157.216 75.6287 156.982 75.2387C156.748 74.8486 156.046 74.5106 156.046 74.5106L153.082 74.4326L155.448 72.6904C155.448 72.6904 157.164 72.6124 157.242 71.8843C157.32 71.1562 156.228 70.8962 155.63 70.8181C154.694 70.7141 153.758 70.9482 153.004 71.4682C152.094 72.0663 151.262 72.7684 150.534 73.5745C150.066 74.1205 148.272 76.6689 148.272 76.6689Z" fill="#E4FAFC"/>
<path d="M129.06 84.5219C128.332 83.1438 127.942 81.6096 127.916 80.0494C127.916 78.5412 128.072 77.033 128.41 75.5768L128.54 75.1348H128.072C127.292 75.1348 125.732 75.4988 125.342 76.981L125.29 77.215C124.926 78.6192 124.51 80.2314 123.626 80.7775C123.288 80.9595 122.95 81.1415 122.587 81.2975C121.157 81.9736 119.233 82.9097 118.947 84.2359C118.765 85.12 119.051 86.0301 119.701 86.6542C120.221 87.1483 120.923 87.4343 121.651 87.4083C121.937 87.4083 122.223 87.3823 122.509 87.3043C124.614 86.7842 128.748 85.12 128.93 85.068L129.294 84.912L129.06 84.5219Z" fill="#E4FAFC"/>
<path d="M120.091 59.8193C120.091 59.8193 118.583 61.3795 118.609 64.942C118.635 68.4784 120.091 72.5349 118.895 74.2251C117.699 75.9153 114.787 75.0052 113.487 76.1754C111.485 77.9436 111.018 81.116 111.018 81.116C111.018 81.116 111.303 75.4213 112.837 70.8707C114.371 66.3201 118.297 61.8216 118.297 61.8216L120.091 59.8193Z" fill="#E4FAFC"/>
<path d="M145.075 77.865L148.454 76.3828C148.454 76.3828 149.338 78.3591 149.208 81.4274C149.13 83.3257 148.714 85.2239 148.038 86.9921L145.075 88.3963C145.075 88.3963 145.803 84.2878 145.803 81.9475C145.803 80.5433 145.569 79.1652 145.075 77.865Z" fill="white"/>
<path d="M196.316 33.7898L197.798 32.3596L195.666 20.6061C195.848 20.6321 196.03 20.4761 196.056 20.2941C196.082 20.1121 195.926 19.93 195.744 19.904L192.105 19.54C190.883 19.41 189.635 19.748 188.647 20.4761L167.511 36C166.471 36.7541 165.769 37.8983 165.535 39.1724L164.885 42.8909L133.974 65.9818C129.45 69.3622 126.98 74.8489 127.448 80.4656C127.578 81.9478 127.89 83.4039 128.41 84.8081C128.462 84.9381 128.592 85.0421 128.748 85.0421C128.8 85.0421 128.826 85.0422 128.878 85.0161C129.06 84.9381 129.164 84.7301 129.086 84.5481V84.5221L148.454 76.3571L151.912 72.2746L154.616 70.8184L154.824 70.1163L172.866 55.7625L174.14 55.6845C174.14 55.6845 186.723 45.9853 187.763 45.0752C188.361 44.5291 188.725 43.775 188.829 42.9689C188.959 43.0469 189.115 43.0469 189.245 42.9429L196.784 36.9882C196.888 36.9102 196.94 36.7801 196.914 36.6501L196.316 33.7898Z" fill="#1A1A1A"/>
<path d="M148.844 55.7625L148.948 61.1972C148.974 61.9773 149.624 62.6014 150.404 62.6014C151.184 62.5754 151.808 61.9253 151.808 61.1452L151.652 53.6562L148.844 55.7625Z" fill="white"/>
<path d="M158.074 48.8719L158.178 54.3066C158.204 55.0867 158.853 55.7107 159.633 55.7107C160.413 55.6847 161.037 55.0347 161.037 54.2546L160.881 46.7656L158.074 48.8719Z" fill="white"/>
<path d="M153.446 52.3299L153.55 57.7646C153.576 58.5447 154.226 59.1687 155.006 59.1687C155.786 59.1427 156.41 58.4927 156.41 57.7126L156.254 50.2236L153.446 52.3299Z" fill="white"/>
<path d="M132.18 81.5836C131.998 81.5836 131.842 81.4535 131.816 81.2715C131.634 79.3993 132.232 77.5531 133.48 76.1489C134.494 74.9787 135.039 73.4706 134.987 71.9364L134.831 67.1258C134.831 66.9437 134.987 66.7617 135.169 66.7617C135.351 66.7617 135.533 66.9177 135.533 67.0998L135.689 71.9104C135.741 73.6266 135.143 75.3168 134 76.6169C132.882 77.8651 132.362 79.5293 132.518 81.1935C132.544 81.3755 132.414 81.5576 132.18 81.5836C132.206 81.5836 132.206 81.5836 132.18 81.5836C132.206 81.5836 132.206 81.5836 132.18 81.5836Z" fill="white"/>
<path d="M170.552 44.6073C170.344 44.6073 170.136 44.5813 169.954 44.4773C169.435 44.2692 169.045 43.8012 168.941 43.2291L168.629 41.5649C168.603 41.3829 168.707 41.2008 168.915 41.1488C169.123 41.0968 169.279 41.2268 169.331 41.4349L169.643 43.0991C169.695 43.4111 169.928 43.6972 170.24 43.8012C170.552 43.9052 170.89 43.8792 171.15 43.6711L188.777 30.4875C189.531 29.9154 190.597 29.9414 191.351 30.5395C191.819 30.9036 192.469 30.9036 192.963 30.5655C193.119 30.4615 193.353 30.4875 193.456 30.6435C193.56 30.7995 193.534 31.0336 193.379 31.1376C192.651 31.6577 191.637 31.6317 190.935 31.0856C190.441 30.6695 189.739 30.6695 189.245 31.0596L171.618 44.2432C171.254 44.5033 170.916 44.6073 170.552 44.6073Z" fill="white"/>
<path d="M136.885 192.228L136.287 194.152H158.879C158.879 194.152 158.749 193.19 158.541 192.228H136.885Z" fill="white"/>
<path d="M176.792 57.9473L179.47 56.2051C179.47 56.2051 179.548 58.8314 180.536 60.6516C181.186 61.7698 182.199 62.6279 183.395 63.0959C183.395 63.0959 181.628 64.7341 181.42 64.7861C181.212 64.8382 179.73 65.8523 179.73 65.8523C178.69 64.8122 177.936 63.512 177.572 62.0818C177.026 59.7415 176.792 57.9473 176.792 57.9473Z" fill="white"/>
<path d="M100.046 192.228L99.7345 194.178H121.391L120.871 192.228H100.046Z" fill="white"/>
<path d="M147.908 183.101C146.79 183.101 141.357 182.841 134.546 178.108C134.442 178.03 134.364 177.9 134.416 177.744L143.541 124.645C143.567 124.463 143.749 124.333 143.957 124.359C144.165 124.385 144.269 124.567 144.243 124.775L135.143 177.64C141.513 182.008 146.738 182.346 147.856 182.372C156.8 159.516 161.089 137.907 163.117 123.735C165.327 108.367 165.379 98.304 165.379 98.2C165.379 98.018 165.535 97.8619 165.717 97.8359C165.899 97.8359 166.081 97.992 166.081 98.2C166.081 98.304 166.003 108.419 163.819 123.839C161.791 138.063 157.476 159.854 148.428 182.841C148.376 182.971 148.246 183.049 148.116 183.075C148.038 183.101 147.96 183.127 147.908 183.101Z" fill="#1A1A1A"/>
<path d="M143.983 165.106C144.347 166.303 145.101 168.201 145.803 170.021C146.452 171.711 147.128 173.454 147.518 174.65C147.596 174.91 147.674 175.144 147.752 175.404C148.454 177.51 148.948 178.94 147.986 181.879L147.804 182.399C151.47 173.011 154.564 163.416 157.086 153.665C157.06 153.691 157.034 153.743 157.034 153.795L156.956 154.133C156.748 154.731 156.124 155.979 154.642 156.187C153.94 156.291 153.42 156.031 152.9 155.771C152.406 155.537 151.912 155.303 151.34 155.407C150.846 155.485 150.43 155.797 150.144 156.213C149.65 156.993 149.598 158.294 150.04 160.192C150.092 160.452 150.17 160.712 150.274 161.05C150.586 162.09 151.028 163.65 150.638 164.3C150.56 164.456 150.404 164.56 150.248 164.586C149.884 164.664 149.338 164.014 148.792 163.364C148.246 162.714 147.622 161.986 146.868 161.492C146.219 161.076 145.413 161.128 144.815 161.622C144.061 162.246 143.515 163.546 143.983 165.106Z" fill="#E4FAFC"/>
<path d="M148.195 183.074C148.168 183.074 148.168 183.074 148.195 183.074C148.168 183.101 148.195 183.074 148.195 183.074Z" fill="#E4FAFC"/>
<path d="M160.335 139.181C160.101 140.481 159.971 141.391 159.971 141.391V141.469C161.375 134.812 162.389 128.806 163.117 123.761C163.611 120.329 164.001 117.156 164.287 114.296C164.027 115.7 163.689 117.078 163.247 118.456C162.441 120.927 161.557 122.331 160.777 122.279C159.867 122.201 159.035 121.395 158.255 120.615C157.268 119.653 156.254 118.664 155.162 119.445C154.746 119.731 154.486 120.173 154.408 120.667C154.226 121.889 154.98 123.631 156.748 126.049C158.074 127.818 160.907 133.252 160.335 139.181Z" fill="#E4FAFC"/>
<path d="M120.845 183.204C116.113 183.204 109.406 180.006 109.094 179.85C108.938 179.772 108.86 179.616 108.912 179.46C109.042 178.966 121.417 128.441 123.392 121.784C125.342 115.232 124.562 107.483 124.562 107.405C124.536 107.223 124.692 107.041 124.874 107.015C125.056 106.989 125.238 107.145 125.264 107.327C125.264 107.405 126.07 115.284 124.068 121.966C122.171 128.337 110.68 175.221 109.666 179.33C111.018 179.954 117.257 182.71 121.365 182.476C122.561 179.356 136.807 142.327 143.047 125.867C143.879 123.709 144.529 121.94 145.023 120.666C145.543 119.288 145.881 118.43 145.985 118.066C146.037 117.884 146.245 117.78 146.4 117.858C146.4 117.858 146.4 117.858 146.426 117.858C146.608 117.936 146.712 118.118 146.634 118.3C146.504 118.664 146.193 119.548 145.673 120.9C145.179 122.174 144.529 123.917 143.697 126.101C137.197 143.211 122.067 182.554 121.911 182.944C121.859 183.074 121.755 183.152 121.625 183.178C121.391 183.204 121.131 183.204 120.845 183.204Z" fill="#1A1A1A"/>
<path d="M124.692 112.84L124.328 117.338C124.536 115.83 124.666 114.348 124.692 112.84Z" fill="#E4FAFC"/>
<path d="M124.718 110.135C124.692 108.653 124.588 107.665 124.588 107.457L124.718 110.135Z" fill="#E4FAFC"/>
<path d="M124.874 107.015C125.056 106.989 125.238 107.145 125.264 107.327C125.264 107.405 126.07 115.284 124.068 121.967C122.171 128.338 110.68 175.222 109.666 179.33C110.056 179.512 110.862 179.876 111.901 180.292C114.085 172.335 123.964 136.191 127.448 123.215C128.176 120.511 129.476 117.963 131.27 115.804C131.738 115.232 132.284 114.686 132.83 114.192C134.675 112.554 134.779 111.228 134.208 110.552C133.688 109.928 132.518 109.746 131.27 110.656C130.672 111.098 130.178 111.28 129.918 111.15C129.658 111.02 129.502 110.63 129.424 110.292C129.424 109.85 129.06 106.261 128.904 105.455L128.8 105.039L128.41 105.221C126.2 106.209 124.718 107.015 124.692 107.041L124.484 107.145V107.405C124.562 107.197 124.692 107.041 124.874 107.015Z" fill="#E4FAFC"/>
<path d="M123.132 122.773C123.236 122.383 123.34 122.045 123.418 121.785C123.652 121.004 123.86 120.172 124.016 119.366L123.132 122.773Z" fill="#E4FAFC"/>
<path d="M110.524 180.474C110.784 180.578 111.07 180.708 111.381 180.838L111.745 180.994C111.277 180.812 110.862 180.63 110.524 180.474Z" fill="#E4FAFC"/>
<path d="M108.938 179.616L108.912 179.72L109.042 179.772C108.964 179.746 108.938 179.668 108.938 179.616Z" fill="#E4FAFC"/>
<path d="M126.434 149.322C127.292 151.48 128.722 155.069 128.904 157.461C129.164 160.581 128.41 163.936 128.41 163.988L128.462 164.014C131.114 157.097 134.156 149.192 136.937 141.911C135.871 144.173 133.922 147.424 132.622 147.424H132.596C131.66 147.398 131.036 146.618 130.36 145.812C129.736 145.058 129.112 144.277 128.176 144.199C127.422 144.095 126.668 144.407 126.2 145.006C125.628 145.786 125.472 146.774 125.784 147.684C125.914 148.022 126.148 148.594 126.434 149.322Z" fill="#E4FAFC"/>
<path d="M143.489 127.505C143.437 127.505 143.411 127.505 143.359 127.479C143.177 127.401 143.099 127.193 143.151 127.011C143.775 125.399 146.115 118.04 147.232 114.504C147.596 113.386 147.752 112.866 147.778 112.762C147.804 112.658 148.714 110.057 152.354 108.783C152.536 108.705 152.744 108.809 152.796 108.991C152.848 109.173 152.77 109.381 152.588 109.433C152.588 109.433 152.588 109.433 152.562 109.433C149.234 110.603 148.428 112.944 148.402 112.97C148.376 113.048 148.168 113.724 147.856 114.686C146.738 118.222 144.399 125.581 143.775 127.219C143.775 127.401 143.645 127.505 143.489 127.505Z" fill="#E4FAFC"/>
<path d="M125.264 107.353C125.264 107.223 125.186 107.093 125.056 107.041C124.952 106.989 124.796 106.989 124.692 107.067L122.093 108.861C121.989 108.939 121.937 109.043 121.937 109.147C121.937 109.225 121.911 111.072 124.978 111.592H125.03C125.108 111.592 125.212 111.566 125.264 111.488C125.342 111.41 125.394 111.306 125.394 111.202L125.264 107.353Z" fill="#1A1A1A"/>
<path d="M168.837 98.4859C168.837 98.4079 167.771 91.3351 165.665 82.676C163.559 73.9909 160.829 66.2419 160.803 66.1639C160.751 65.9819 160.543 65.8779 160.361 65.9559C160.179 66.0079 160.075 66.2159 160.153 66.398C160.179 66.476 162.909 74.1989 164.989 82.832C166.731 90.0349 167.745 96.1196 168.057 97.9919C164.417 96.9257 155.11 98.5379 153.186 98.876L149.494 82.494C149.468 82.3119 149.26 82.1819 149.078 82.2079C148.896 82.2339 148.766 82.4419 148.792 82.624C148.792 82.624 148.792 82.624 148.792 82.65L150.95 92.2712C150.898 92.2972 150.872 92.3492 150.872 92.4012L148.766 99.8381C147.57 99.9681 142.111 100.696 134.052 103.115C127.11 105.221 124.094 107.093 122.821 108.133L124.354 99.344C124.38 99.162 124.276 98.98 124.068 98.928C123.886 98.902 123.704 99.006 123.652 99.214L121.937 109.095C121.911 109.251 122.015 109.433 122.171 109.485C122.197 109.511 122.249 109.511 122.301 109.511C122.431 109.511 122.535 109.433 122.613 109.329C122.613 109.303 124.146 106.859 134.26 103.765C143.281 101.06 149 100.488 149.078 100.488C149.234 100.462 149.338 100.358 149.39 100.228L151.262 93.6233L152.562 99.344C152.588 99.5001 152.744 99.6301 152.9 99.6041C152.926 99.6041 152.952 99.6041 152.978 99.6041C153.108 99.5781 165.197 97.2898 168.343 98.824C168.473 98.876 168.603 98.876 168.707 98.798C168.811 98.72 168.889 98.59 168.837 98.4859Z" fill="#1A1A1A"/>
<path d="M148.636 76.1753C148.532 76.0193 148.35 75.9413 148.168 76.0193L144.919 77.5535L128.618 84.3924C128.436 84.4704 128.358 84.6784 128.436 84.8604C128.514 85.0425 128.722 85.1205 128.904 85.0424L144.841 78.3596C146.193 83.5083 144.269 90.1651 143.983 91.0752C143.203 91.6473 137.483 95.7558 132.102 97.498C123.938 100.124 119.623 98.7202 117.439 97.0559C113.305 93.9356 109.744 86.3426 112.083 74.5111C113.227 68.6864 116.841 63.8238 119.649 60.7814C121.443 58.8312 123.418 57.063 125.576 55.5028C125.732 55.3988 125.784 55.1647 125.68 55.0087C125.576 54.8527 125.342 54.8007 125.186 54.9047C125.186 54.9047 125.186 54.9047 125.16 54.9047C122.976 56.4909 120.949 58.2851 119.129 60.2614C116.243 63.3558 112.551 68.3484 111.355 74.3291C108.938 86.4986 112.681 94.3256 116.971 97.576C118.375 98.6421 120.585 99.6043 123.99 99.6043C126.226 99.6043 128.956 99.1882 132.284 98.1221C138.159 96.2238 144.399 91.5953 144.451 91.5433C144.503 91.4912 144.555 91.4392 144.581 91.3612C144.867 90.4771 145.101 89.567 145.283 88.6309L148.142 87.2787C148.194 87.2527 148.22 87.2267 148.272 87.2007C148.376 87.0707 149.312 85.9006 149.416 81.792C149.546 77.8916 148.662 76.2534 148.636 76.1753ZM148.74 81.818C148.636 85.2245 147.96 86.4726 147.804 86.7327L145.491 87.8248C145.543 87.4868 145.621 87.1487 145.673 86.8107C146.037 84.4444 146.297 81.038 145.491 78.0996L148.142 76.8514C148.376 77.4495 148.818 79.0097 148.74 81.818Z" fill="#1A1A1A"/>
<path d="M136.287 40.9922C134.312 40.9922 133.818 39.12 133.792 39.094C133.74 38.912 133.844 38.7039 134.052 38.6519C134.234 38.5999 134.442 38.7039 134.493 38.912C134.493 38.912 134.493 38.912 134.493 38.938C134.597 39.25 134.753 39.536 134.987 39.7961C135.481 40.2901 136.157 40.4201 137.041 40.2121C137.223 40.1601 137.405 40.2901 137.457 40.4722C137.509 40.6542 137.379 40.8362 137.197 40.8882C136.911 40.9402 136.599 40.9922 136.287 40.9922Z" fill="#1A1A1A"/>
<path d="M140.941 34.3096C140.863 34.0495 140.655 33.8675 140.395 33.7895C140.057 33.7115 139.745 33.7375 139.407 33.8415C139.225 33.8935 139.017 33.9195 138.809 33.9455C138.133 32.5413 137.197 31.3712 136.235 30.7211C134.442 29.473 131.634 28.0688 127.89 30.123C126.486 30.8511 125.498 32.2033 125.238 33.7895C125.238 33.8415 125.212 33.8935 125.212 33.8935V33.9455C125.03 35.2977 125.16 36.6499 125.576 37.924C124.952 38.3921 124.12 39.4062 124.51 40.7324C124.822 41.7205 125.68 42.4226 126.694 42.5266L128.358 49.5995C128.384 49.7555 128.54 49.8595 128.696 49.8595C128.722 49.8595 128.748 49.8595 128.774 49.8595C128.956 49.8075 129.086 49.6255 129.034 49.4434L127.344 42.1105C127.318 41.9545 127.162 41.8245 127.006 41.8505C127.006 41.8505 125.602 41.8505 125.238 40.5503C124.848 39.1982 126.148 38.4181 126.226 38.3921H126.252C126.512 38.2361 126.85 38.184 127.136 38.2361C127.474 38.3661 127.734 38.6521 127.838 39.0162C128.332 40.2123 128.722 40.3943 128.982 40.3943H129.034C129.268 40.3683 129.476 40.1603 129.502 39.9003C129.528 39.7182 129.476 39.4842 129.32 38.9381C128.982 37.768 128.358 35.6097 129.424 34.5176C129.996 33.8935 130.984 33.7115 132.024 33.5035C133.48 33.2174 135.117 32.8794 135.897 31.2932C135.897 31.2932 135.897 31.2932 135.923 31.2932C136.781 31.8913 137.665 33.0094 138.289 34.3096C138.523 34.7776 139.095 34.6476 139.615 34.5436C139.823 34.4916 140.005 34.4656 140.213 34.4656C140.265 34.4916 140.317 34.5176 140.317 34.5176C140.395 34.7516 139.823 35.4537 139.615 35.7397C139.277 36.1818 139.095 36.3898 139.173 36.6499C139.537 38.054 139.433 39.2242 138.835 40.7844C138.315 42.2406 137.327 43.4627 136.001 44.2948C135.455 44.6589 134.857 44.8929 134.234 45.0489C134.234 45.0489 134.208 45.0489 134.182 45.0489L134.104 45.0749C134.104 45.0749 134.078 45.1009 134.052 45.1269C134.052 45.1269 134.052 45.1269 134.052 45.1529C134.052 45.1789 134.026 45.2049 134 45.2309C134 45.2569 133.974 45.2829 133.974 45.3089V45.4389C133.974 45.465 133.974 45.491 134 45.517L134.026 45.595C134.416 46.063 135.039 46.2971 135.637 46.219C136.287 46.115 136.677 46.219 136.729 46.5051V46.5311C136.729 46.5311 136.729 46.5311 136.729 46.5571V46.5831C136.729 46.5831 136.729 46.5831 136.729 46.6091C136.729 46.6351 136.729 46.6091 136.755 46.6351C136.755 46.6351 136.755 46.6351 136.755 46.6611L136.781 46.6871L136.807 46.7131C136.807 46.7131 136.833 46.7131 136.833 46.7391C136.833 46.7391 136.833 46.7391 136.859 46.7391C136.885 46.7391 136.885 46.7391 136.885 46.7391C136.885 46.7391 136.885 46.7391 136.911 46.7391C136.937 46.7391 136.937 46.7391 136.937 46.7391H137.015C137.041 46.7391 137.067 46.7391 137.093 46.7391C137.093 46.7391 137.093 46.7391 137.119 46.7391H137.145C137.145 46.7391 137.145 46.7391 137.171 46.7391C137.171 46.7391 137.197 46.7391 137.197 46.7131C137.197 46.7131 137.197 46.7131 137.223 46.6871C137.249 46.6611 137.249 46.6871 137.249 46.6611L137.275 46.6351C137.275 46.6351 137.275 46.6091 137.301 46.6091C137.301 46.6091 137.301 46.6091 137.301 46.5831C137.301 46.5831 137.327 46.5571 137.301 46.5571V46.5311V46.5051V46.3751C137.041 44.8669 136.963 44.5028 136.937 44.3728C138.029 43.4887 138.887 42.3186 139.381 40.9924C140.005 39.3282 140.135 38.028 139.745 36.5198C139.797 36.4158 139.953 36.2598 140.031 36.1298C140.577 35.5577 141.123 34.8556 140.941 34.3096Z" fill="#1A1A1A"/>
<path d="M154.486 70.7659C154.382 70.7659 154.278 70.7139 154.2 70.6359C154.07 70.4798 154.096 70.2718 154.252 70.1418L173.23 55.1379C173.386 55.0079 173.594 55.0339 173.724 55.1899C173.854 55.346 173.828 55.554 173.672 55.684L154.694 70.6879C154.642 70.7659 154.564 70.7919 154.486 70.7659Z" fill="#1A1A1A"/>
<path d="M172.84 49.0543C172.736 49.0543 172.632 49.0023 172.554 48.9243C172.424 48.7683 172.45 48.5603 172.606 48.4303L186.437 37.4309C186.593 37.3009 186.801 37.3269 186.931 37.4829C187.061 37.6389 187.035 37.847 186.879 37.977L173.074 48.9763C172.996 49.0283 172.918 49.0543 172.84 49.0543Z" fill="white"/>
<path d="M174.062 56.4129C173.932 56.4129 173.802 56.3349 173.75 56.2309C173.672 56.0749 173.724 55.8668 173.88 55.7628H173.906C174.426 55.5028 174.842 54.4887 174.4 52.5384C174.088 51.2123 173.49 49.9901 172.632 48.95C172.502 48.82 172.502 48.5859 172.658 48.4559C172.788 48.3259 173.022 48.3259 173.152 48.4559C174.114 49.574 174.79 50.9002 175.102 52.3564C175.752 55.2428 174.738 56.1269 174.27 56.3609C174.166 56.3869 174.114 56.4129 174.062 56.4129Z" fill="white"/>
<path d="M174.348 56.1789C174.244 56.1789 174.14 56.1268 174.088 56.0488C173.958 55.8928 173.984 55.6848 174.14 55.5548L187.373 45.0235C187.607 44.8414 187.789 44.6594 187.971 44.4254C188.309 43.9833 188.621 43.3333 188.231 41.513C187.919 40.1869 187.321 38.9647 186.463 37.9246C186.333 37.7946 186.333 37.5605 186.463 37.4305C186.593 37.3005 186.827 37.3005 186.957 37.4305C187.919 38.5487 188.595 39.8748 188.907 41.331C189.375 43.3333 189.011 44.1914 188.543 44.8154C188.335 45.1015 188.101 45.3355 187.815 45.5435L174.556 56.0748C174.504 56.1528 174.426 56.1789 174.348 56.1789Z" fill="white"/>
<path d="M161.661 63.6158C161.505 63.6158 161.375 63.5118 161.323 63.3818C160.439 60.4954 161.401 57.349 163.767 55.4508L172.606 48.4299C172.762 48.2999 172.97 48.3259 173.1 48.4819C173.23 48.638 173.204 48.846 173.048 48.976L164.209 55.9969C162.077 57.7131 161.193 60.5474 161.999 63.1478C162.051 63.3298 161.947 63.5378 161.765 63.5898C161.739 63.5898 161.713 63.6158 161.661 63.6158Z" fill="white"/>
<path d="M174.374 35.0637L169.409 38.6002C169.019 38.8862 168.473 38.7822 168.213 38.3922C167.927 38.0021 168.031 37.456 168.421 37.17L173.386 33.6336C173.776 33.3475 174.322 33.4515 174.582 33.8416C174.868 34.2316 174.79 34.7517 174.374 35.0637C174.4 35.0377 174.374 35.0637 174.374 35.0637Z" fill="white"/>
<path d="M182.433 29.1087L177.468 32.6451C177.078 32.9311 176.532 32.8271 176.246 32.4371C175.96 32.047 176.064 31.501 176.454 31.2149L181.42 27.6785C181.809 27.3925 182.355 27.4965 182.641 27.8865C182.927 28.2766 182.823 28.8226 182.433 29.1087C182.459 29.1087 182.433 29.1087 182.433 29.1087Z" fill="white"/>
<path d="M190.493 23.1809L185.527 26.7174C185.137 27.0034 184.591 26.8994 184.305 26.5093C184.019 26.1193 184.123 25.5732 184.513 25.2872L189.479 21.7508C189.869 21.4647 190.415 21.5687 190.675 21.9588C190.987 22.3488 190.883 22.8689 190.493 23.1809C190.519 23.1549 190.493 23.1809 190.493 23.1809Z" fill="white"/>
<path d="M176.87 54.1502C176.74 54.1502 176.61 54.0722 176.558 53.9682C176.48 53.8122 176.532 53.6041 176.688 53.5001H176.714C177.234 53.2401 177.65 52.226 177.208 50.2757C176.896 48.9496 176.298 47.7274 175.44 46.6873C175.31 46.5573 175.31 46.3232 175.44 46.1932C175.57 46.0632 175.804 46.0632 175.934 46.1932C176.896 47.3114 177.572 48.6375 177.884 50.0937C178.534 52.9801 177.52 53.8642 177.052 54.0982C176.974 54.1242 176.922 54.1242 176.87 54.1502Z" fill="white"/>
<path d="M179.938 51.7576C179.808 51.7576 179.678 51.6796 179.626 51.5756C179.548 51.4196 179.6 51.2116 179.756 51.1075H179.782C180.302 50.8475 180.718 49.8334 180.276 47.8831C179.964 46.557 179.366 45.3348 178.508 44.2947C178.378 44.1647 178.378 43.9307 178.534 43.8006C178.664 43.6706 178.872 43.6706 179.028 43.8006C179.99 44.9188 180.666 46.2449 180.978 47.7011C181.628 50.5875 180.614 51.4716 180.146 51.7056C180.068 51.7576 179.99 51.7576 179.938 51.7576Z" fill="white"/>
<path d="M183.031 49.3665C182.901 49.3665 182.771 49.2885 182.719 49.1845C182.641 49.0285 182.693 48.8205 182.849 48.7164H182.875C183.733 48.2484 183.603 46.4022 183.369 45.388C183.057 44.0619 182.459 42.8397 181.601 41.7996C181.472 41.6696 181.472 41.4355 181.601 41.3055C181.731 41.1755 181.965 41.1755 182.095 41.3055C183.057 42.4237 183.733 43.7498 184.045 45.206C184.409 46.7922 184.383 48.6904 183.213 49.3145C183.135 49.3405 183.083 49.3665 183.031 49.3665Z" fill="white"/>
<path d="M186.099 46.8431C185.969 46.8431 185.839 46.7651 185.787 46.6611C185.709 46.505 185.761 46.297 185.917 46.193H185.943C186.437 45.933 186.879 44.8928 186.437 42.8906C186.151 41.6424 185.579 40.4463 184.773 39.4582C184.643 39.3021 184.669 39.0941 184.825 38.9641C184.981 38.8341 185.189 38.8601 185.319 39.0161C186.203 40.1082 186.827 41.3824 187.139 42.7346C187.815 45.751 186.671 46.6091 186.281 46.8171C186.203 46.8431 186.151 46.8431 186.099 46.8431Z" fill="white"/>
<path d="M179.47 56.2313L179.99 53.709C179.99 53.709 178.742 50.3546 178.378 49.8345C178.04 49.3145 178.794 48.7164 179.236 48.9244C179.678 49.1325 180.718 51.7328 181.134 51.7588C181.42 51.7848 181.705 51.7588 181.991 51.7328L179.964 47.5723C179.964 47.5723 179.262 46.4021 179.886 46.3241C180.51 46.2461 181.498 47.5463 181.498 47.5463L180.796 46.2201C180.796 46.2201 180.406 45.076 180.796 45.076C181.186 45.076 183.811 47.7023 183.811 47.7023L183.109 46.3761C183.109 46.3761 181.524 45.466 182.095 44.7379C182.303 44.4779 185.475 46.3241 185.579 46.5841C185.683 46.8442 187.217 51.2647 187.217 51.2647C187.217 51.2647 186.385 55.2952 186.307 55.3212C186.229 55.3472 185.241 58.3636 185.241 58.3636L181.861 62.4721C181.861 62.4721 180.38 61.0419 180.016 59.7678C179.652 58.4936 179.47 56.2313 179.47 56.2313Z" fill="#E4FAFC"/>
<path d="M138.549 92.219C139.167 92.219 139.667 91.6602 139.667 90.9708C139.667 90.2815 139.167 89.7227 138.549 89.7227C137.932 89.7227 137.431 90.2815 137.431 90.9708C137.431 91.6602 137.932 92.219 138.549 92.219Z" fill="#1A1A1A"/>
<path d="M141.955 90.1389C142.572 90.1389 143.073 89.5801 143.073 88.8907C143.073 88.2014 142.572 87.6426 141.955 87.6426C141.337 87.6426 140.837 88.2014 140.837 88.8907C140.837 89.5801 141.337 90.1389 141.955 90.1389Z" fill="#1A1A1A"/>
<path d="M143.905 72.1965C144.522 72.1965 145.023 71.6377 145.023 70.9484C145.023 70.259 144.522 69.7002 143.905 69.7002C143.287 69.7002 142.787 70.259 142.787 70.9484C142.787 71.6377 143.287 72.1965 143.905 72.1965Z" fill="white"/>
<path d="M143.905 72.2754C143.229 72.2234 142.709 71.6513 142.735 70.9492C142.735 70.2211 143.255 69.623 143.905 69.623C144.555 69.623 145.075 70.2211 145.075 70.9492C145.101 71.6513 144.581 72.2234 143.905 72.2754ZM143.905 69.7531C143.333 69.7531 142.865 70.2991 142.865 70.9492C142.865 71.5993 143.333 72.1454 143.905 72.1454C144.477 72.1454 144.945 71.5993 144.945 70.9492C144.945 70.2991 144.477 69.7531 143.905 69.7531Z" fill="white"/>
<path d="M147.05 69.8039C147.668 69.8039 148.168 69.2451 148.168 68.5558C148.168 67.8664 147.668 67.3076 147.05 67.3076C146.433 67.3076 145.933 67.8664 145.933 68.5558C145.933 69.2451 146.433 69.8039 147.05 69.8039Z" fill="white"/>
<path d="M147.05 69.8818C146.374 69.8298 145.855 69.2577 145.881 68.5557C145.881 67.8276 146.4 67.2295 147.05 67.2295C147.778 67.3075 148.298 67.9836 148.194 68.7117C148.116 69.3098 147.648 69.8038 147.05 69.8818ZM147.05 67.3595C146.478 67.3595 146.011 67.9056 146.011 68.5557C146.011 69.2057 146.478 69.7518 147.05 69.7518C147.622 69.7518 148.09 69.2057 148.09 68.5557C148.09 67.9056 147.622 67.3595 147.05 67.3595Z" fill="white"/>
<path d="M159.217 194.099L158.905 192.175C158.671 190.771 157.606 189.679 156.228 189.367C155.786 189.263 155.214 189.133 154.538 189.003C153.68 188.821 152.666 188.639 151.652 188.379C151.938 188.405 152.224 188.431 152.51 188.431C154.122 188.431 155.604 187.989 155.864 187.001C155.916 186.767 155.994 185.986 154.694 185.492C154.044 185.232 153.004 185.206 151.652 185.362C153.108 184.686 154.382 183.88 154.72 182.97C154.876 182.528 154.798 182.034 154.512 181.67C154.226 181.254 153.758 181.02 153.264 181.02H153.238C151.548 181.02 149.156 183.36 147.674 184.998L148.454 182.918C148.532 182.736 148.428 182.528 148.246 182.45C148.064 182.372 147.856 182.476 147.778 182.658L146.427 186.376C145.959 186.376 144.971 186.506 143.541 187.443C142.397 188.197 140.941 188.431 139.875 188.067C139.277 187.885 138.809 187.443 138.627 186.845C138.627 186.845 138.627 186.845 138.627 186.819C139.433 183.464 140.057 180.864 140.083 180.838C140.135 180.656 140.005 180.448 139.823 180.422C139.641 180.37 139.433 180.5 139.407 180.682C139.407 180.734 137.951 186.741 136.573 192.201L136.001 194.125C135.975 194.229 136.001 194.359 136.053 194.437C136.131 194.515 136.235 194.567 136.339 194.567H158.931C159.035 194.567 159.139 194.515 159.191 194.437C159.217 194.307 159.243 194.203 159.217 194.099ZM154.434 186.142C154.928 186.324 155.214 186.584 155.162 186.819C155.11 187.001 154.85 187.287 154.226 187.495C153.732 187.651 152.874 187.807 151.548 187.651C150.274 187.495 149.052 187.183 147.856 186.767C148.454 186.61 149.234 186.428 150.092 186.272C152.172 185.908 153.68 185.856 154.434 186.142ZM153.212 181.696C153.524 181.696 153.784 181.826 153.94 182.06C154.096 182.242 154.122 182.476 154.07 182.71C153.914 183.126 153.212 184.036 150.118 185.206C149.208 185.57 148.298 185.856 147.648 186.064C149.104 184.348 151.704 181.696 153.212 181.696ZM136.755 193.813L137.119 192.591H158.255L158.463 193.813H136.755Z" fill="#1A1A1A"/>
<path d="M121.755 182.476C121.573 182.398 121.365 182.502 121.287 182.658L119.649 186.819V186.845C119.623 186.975 119.571 187.079 119.493 187.183C118.843 187.859 117.673 188.613 116.139 187.807C115.697 187.573 115.229 187.339 114.787 187.157C114.137 186.741 113.409 186.455 112.655 186.325C112.577 186.299 112.525 186.273 112.473 186.273L113.981 181.436C114.033 181.254 113.929 181.046 113.747 180.994C113.565 180.942 113.383 181.046 113.305 181.228L111.823 185.935C111.381 185.415 110.628 184.556 109.796 183.698C107.924 181.852 106.416 180.916 105.35 180.916C104.856 180.916 104.388 181.176 104.102 181.566C103.816 181.93 103.738 182.424 103.894 182.866C104.206 183.75 105.506 184.582 106.962 185.259C105.584 185.103 104.57 185.155 103.92 185.389C102.62 185.883 102.698 186.663 102.75 186.897C102.984 187.885 104.492 188.327 106.104 188.327C106.312 188.327 106.494 188.327 106.702 188.301C106.078 188.457 105.428 188.613 104.778 188.769C104.544 188.821 104.31 188.873 104.102 188.899C103.426 189.029 102.854 189.159 102.412 189.263C101.112 189.497 100.072 190.511 99.7865 191.811V191.837C99.7605 191.915 99.7345 191.993 99.7345 192.071L99.4225 193.996C99.3965 194.1 99.4485 194.204 99.5005 194.282C99.5785 194.36 99.6565 194.412 99.7605 194.412H121.417C121.521 194.412 121.625 194.36 121.703 194.282C121.755 194.204 121.781 194.074 121.755 193.97L121.183 192.071C121.183 192.045 121.183 192.019 121.183 192.019C121.209 191.967 121.209 191.889 121.183 191.837V191.759L120.949 190.563C120.897 190.303 120.871 190.017 120.819 189.757C120.689 188.873 120.533 187.937 120.377 186.923L121.989 182.84C122.015 182.736 121.911 182.554 121.755 182.476ZM104.596 182.71C104.518 182.502 104.544 182.242 104.726 182.06C104.882 181.826 105.142 181.696 105.428 181.696H105.454C106.936 181.696 109.562 184.348 111.044 186.065C110.394 185.857 109.484 185.571 108.574 185.207C105.454 184.036 104.726 183.126 104.596 182.71ZM103.452 186.819C103.4 186.585 103.686 186.325 104.18 186.143C104.622 185.987 105.09 185.935 105.558 185.961C106.546 185.987 107.534 186.091 108.522 186.273C109.38 186.429 110.186 186.611 110.758 186.767C109.562 187.183 108.314 187.495 107.066 187.651C104.726 187.937 103.556 187.261 103.452 186.819ZM100.15 193.814L100.358 192.591H120.559L120.923 193.814H100.15Z" fill="#1A1A1A"/>
<path d="M139.563 32.958L139.095 32.2559C138.939 32.0219 138.705 31.8659 138.445 31.8139C138.185 31.7619 137.899 31.8139 137.665 31.9439L137.327 32.1519C137.327 32.1519 134.961 33.5821 132.622 34.9603L127.968 38.1327C127.812 38.2367 127.76 38.4707 127.864 38.6267C127.916 38.7307 128.046 38.7827 128.15 38.7827C128.228 38.7827 128.28 38.7567 128.358 38.7307L132.544 35.8704C132.622 36.2864 132.856 36.6765 133.168 36.9625C133.454 37.1965 133.844 37.2746 134.208 37.2225C135.871 36.9885 137.093 35.7144 137.275 34.6742C137.327 34.1802 137.171 33.7121 136.807 33.3741L137.431 32.958L138.263 34.3362C138.341 34.4402 138.445 34.4922 138.575 34.4922C138.601 34.4922 138.627 34.4922 138.653 34.4922L139.017 34.3882C139.303 34.3102 139.563 34.1022 139.667 33.8161C139.745 33.5301 139.719 33.218 139.563 32.958Z" fill="#1A1A1A"/>
<path d="M187.529 51.4201C187.555 50.562 186.255 47.1816 185.579 46.2195C185.293 45.8034 182.823 44.2692 181.991 44.2952C181.809 44.2952 181.628 44.3733 181.55 44.5293C181.498 44.6073 181.446 44.7113 181.42 44.8153C181.264 44.7373 181.108 44.6853 180.926 44.6593C180.692 44.6593 180.458 44.7373 180.302 44.9193C180.12 45.1534 180.068 45.4914 180.12 45.7774C179.964 45.6994 179.808 45.6474 179.626 45.6734C179.288 45.7254 179.028 45.9855 178.976 46.3235C178.69 47.2856 180.562 50.172 181.472 51.4721C181.316 51.5241 181.134 51.4201 181.056 51.2641C180.978 51.1341 180.874 50.9781 180.796 50.7961C180.042 49.5219 179.236 48.1957 178.378 48.6638C178.196 48.7678 178.04 48.9498 177.988 49.1579C177.676 50.276 179.106 52.9283 179.574 53.7084L179.106 55.9447L166.159 64.4738C166.003 64.5778 165.951 64.8118 166.055 64.9678C166.107 65.0718 166.237 65.1238 166.341 65.1238C166.419 65.1238 166.471 65.0978 166.523 65.0718L176.402 58.571C176.558 59.9232 177.13 63.2256 178.846 65.2799C179.106 65.5919 179.366 65.8519 179.678 66.138C179.704 66.138 179.756 66.216 179.86 66.294C180.406 66.762 181.082 67.0741 181.783 67.1521L180.952 67.9322C180.12 68.5823 179.236 69.1803 178.352 69.7264C177.468 70.2725 176.584 70.4805 175.934 70.2725C175.492 70.1165 175.128 69.7784 174.972 69.3364C174.868 68.9723 174.816 68.5823 174.842 68.1922C174.816 67.1261 174.738 65.4879 173.048 65.4879H172.996C171.358 65.5139 170.76 68.1142 170.084 71.1566C169.799 72.4568 169.487 73.7829 169.097 75.0051C168.473 76.9033 167.667 77.8394 167.095 78.3075C166.783 78.5675 166.419 78.7495 166.029 78.8535C165.457 78.9056 164.859 78.6715 164.469 78.2555C164.339 78.1255 164.105 78.0995 163.975 78.2295C163.845 78.3595 163.819 78.5935 163.949 78.7235C164.495 79.2696 165.223 79.5816 166.003 79.5556H166.107C170.734 79.4256 179.106 71.0266 182.017 67.9582C182.225 67.7762 182.407 67.5681 182.589 67.3601C182.823 67.1261 182.979 66.9441 183.031 66.8661C184.045 66.034 184.331 64.6038 183.733 63.4336L184.227 63.0696C184.669 62.8876 185.033 62.6015 185.345 62.2635L185.371 62.2375C186.463 60.7553 185.865 58.571 185.683 57.9729C186.307 56.8028 187.503 52.1742 187.529 51.4201ZM177.13 58.181L179.106 56.8808C179.184 57.999 179.522 60.3652 181.03 62.1595C181.238 62.4195 181.498 62.6275 181.757 62.8356C182.095 63.0696 182.459 63.2516 182.875 63.3296L180.016 65.4879C179.808 65.3059 179.626 65.0978 179.47 64.8898C177.676 62.7575 177.208 59.0651 177.13 58.181ZM185.059 57.7909L181.887 62.0035C181.783 61.8994 181.68 61.7954 181.576 61.6914C179.912 59.7412 179.808 56.9328 179.782 56.3608C179.782 56.3347 179.808 56.3347 179.782 56.3087L180.302 53.7864C180.302 53.7084 180.302 53.6044 180.276 53.5264C179.548 52.3042 178.508 50.094 178.69 49.4179C178.716 49.3399 178.716 49.3399 178.742 49.3399C178.768 49.3399 178.924 49.3659 179.236 49.7559C179.6 50.224 179.912 50.718 180.198 51.2381C180.302 51.3941 180.38 51.5502 180.484 51.7062C180.848 52.3042 181.498 52.4083 182.225 51.9922C182.303 51.9402 182.381 51.8622 182.381 51.7582C182.407 51.6542 182.381 51.5502 182.329 51.4721C180.952 49.4959 179.548 47.0256 179.678 46.5575C179.678 46.5055 179.704 46.4535 179.73 46.4275C179.808 46.4275 180.302 46.5835 181.602 48.5078C182.355 49.6259 183.005 50.7701 183.005 50.7701C183.109 50.9521 183.317 51.0041 183.499 50.9001C183.681 50.7961 183.733 50.588 183.629 50.406C183.629 50.406 182.979 49.2099 182.199 48.0657C181.887 47.5977 181.55 47.1556 181.186 46.7135C181.186 46.6615 181.186 46.5835 181.16 46.5315C180.9 46.0635 180.77 45.5174 180.9 45.3874C181.108 45.3094 182.095 46.0895 183.239 47.7797L184.357 49.9119C184.357 49.938 184.383 49.964 184.409 49.99C184.409 49.99 184.409 49.99 184.409 50.016C184.435 50.042 184.435 50.042 184.461 50.068L184.539 50.094H184.565C184.591 50.094 184.617 50.094 184.617 50.094H184.643C184.669 50.094 184.669 50.094 184.695 50.094H184.721C184.747 50.094 184.773 50.094 184.799 50.068C184.799 50.068 184.825 50.068 184.851 50.042L184.877 50.016L184.903 49.99C184.903 49.99 184.903 49.964 184.929 49.964C184.929 49.964 184.929 49.938 184.955 49.938V49.9119V49.8859V49.8599V49.8339V49.7559C184.955 49.7299 184.955 49.7299 184.955 49.7039V49.6779L184.539 48.1697C184.357 47.5196 183.863 47.0516 183.369 46.6355C183.213 46.5055 183.057 46.3495 182.901 46.1935L182.693 45.9855C182.173 45.4914 181.991 45.2574 182.069 45.0233C182.667 45.1274 184.669 46.2975 184.929 46.6355C185.579 47.5717 186.775 50.7961 186.749 51.3941C186.801 52.0702 185.527 56.9328 185.059 57.7909Z" fill="#1A1A1A"/>
<path d="M168.837 98.5119C168.837 98.3299 168.681 98.1998 168.499 98.1738L165.795 97.9658C165.691 97.9658 165.613 97.9918 165.535 98.0698C165.457 98.1218 165.431 98.2259 165.405 98.3299L165.275 101.84C165.275 101.944 165.327 102.048 165.405 102.126C165.457 102.178 165.535 102.204 165.639 102.204C165.665 102.204 165.691 102.204 165.743 102.204C169.019 101.32 168.837 98.5379 168.837 98.5119Z" fill="#1A1A1A"/>
<path d="M195.718 32.8279C195.536 32.8279 195.406 32.6979 195.38 32.5419L193.405 21.8545C193.353 21.6725 193.482 21.4645 193.69 21.4385C193.898 21.4125 194.08 21.5165 194.106 21.7245C194.106 21.7245 194.106 21.7245 194.106 21.7505L196.082 32.4379C196.108 32.6199 195.978 32.8019 195.796 32.8539C195.77 32.8279 195.744 32.8279 195.718 32.8279Z" fill="white"/>
<path d="M196.862 27.3671C196.68 27.3671 196.55 27.2371 196.524 27.081L195.614 22.1924C195.588 22.0104 195.692 21.8284 195.9 21.7764C196.082 21.7504 196.264 21.8544 196.316 22.0624L197.226 26.951C197.252 27.1331 197.122 27.3151 196.94 27.3671C196.914 27.3411 196.888 27.3671 196.862 27.3671Z" fill="white"/>
<path d="M198.084 23.1806C197.902 23.1806 197.772 23.0506 197.72 22.8945L197.356 20.6063C197.33 20.4242 197.46 20.2422 197.642 20.2162C197.824 20.1902 198.006 20.3202 198.032 20.5022L198.396 22.7905C198.422 22.9725 198.292 23.1546 198.11 23.1806H198.084Z" fill="white"/>
<path d="M126.018 40.8371C125.836 40.8371 125.706 40.7071 125.654 40.5511C125.55 40.109 125.654 39.667 125.914 39.3029C126.174 38.9909 126.512 38.7828 126.902 38.7308C127.084 38.7048 127.266 38.8349 127.292 39.0429C127.318 39.2509 127.188 39.4069 126.98 39.4329C126.772 39.4589 126.59 39.5629 126.46 39.745C126.33 39.953 126.278 40.213 126.356 40.4471C126.382 40.6291 126.252 40.8371 126.07 40.8631L126.018 40.8371Z" fill="#1A1A1A"/>
<path d="M157.788 81.3232C158.151 80.9332 158.359 80.3871 158.333 79.8411C158.307 79.425 158.099 79.035 157.814 78.7489C158.099 78.4369 158.229 78.0208 158.203 77.6048C158.177 77.2147 157.944 76.6947 157.19 76.3046C157.398 75.9926 157.45 75.6025 157.346 75.2385C157.216 74.5624 156.618 74.0943 155.942 74.0943C155.76 74.0943 154.668 74.0943 153.836 74.0943L155.396 72.9762C155.89 72.9762 156.358 72.9242 156.852 72.8462C157.008 72.7942 157.112 72.6382 157.19 72.3781C157.19 72.3521 157.45 71.52 157.19 71.13C156.904 70.7139 155.214 70.3239 154.408 70.5059C153.602 70.6879 151.808 72.0401 151.08 72.6122C150.43 73.1322 148.298 76.1226 148.064 76.4606C147.96 76.5907 147.986 76.7987 148.142 76.9027C148.272 77.0067 148.48 76.9807 148.584 76.8247C149.208 75.9146 150.976 73.4963 151.47 73.1062C152.588 72.2481 153.992 71.26 154.564 71.13C155.214 70.974 156.462 71.312 156.696 71.494C156.722 71.754 156.67 72.0401 156.592 72.3001C156.358 72.3261 155.786 72.3781 155.318 72.4041C155.266 72.4041 155.188 72.4301 155.162 72.4561L152.718 74.1984C152.718 74.1984 152.692 74.1984 152.692 74.2244L152.666 74.2504L152.536 74.3024V74.3284C152.536 74.3284 152.536 74.3284 152.536 74.3544C152.536 74.3804 152.536 74.3804 152.536 74.3804V74.4064V74.4584V74.5364C152.536 74.5364 152.536 74.5364 152.536 74.5624V74.5884C152.536 74.5884 152.536 74.6144 152.562 74.6404C152.562 74.6404 152.562 74.6664 152.588 74.6664C152.614 74.6664 152.588 74.6664 152.614 74.6664L152.64 74.6924C152.64 74.6924 152.64 74.6924 152.666 74.6924C152.692 74.6924 152.692 74.7184 152.718 74.7184H152.744H152.796C152.822 74.7184 155.578 74.6924 155.89 74.6924C156.28 74.6924 156.644 74.9524 156.722 75.3425C156.8 75.6285 156.722 75.9406 156.566 76.0186C156.566 76.0186 156.54 76.0186 156.54 76.0446C155.812 75.9666 155.11 75.9406 154.382 75.9926C154.2 75.9926 154.07 76.1486 154.096 76.3306C154.096 76.5126 154.252 76.6427 154.434 76.6167C155.188 76.5907 156.384 76.5907 156.67 76.7207C157.06 76.8767 157.554 77.1887 157.606 77.6568C157.632 77.9428 157.528 78.2029 157.32 78.3849C156.774 78.1508 155.968 78.1248 155.24 78.0988H155.058C154.902 78.0728 154.746 78.1769 154.72 78.3589C154.72 78.3589 154.72 78.3589 154.72 78.3849C154.694 78.5409 154.824 78.6969 154.98 78.7229C155.032 78.7229 155.11 78.7229 155.24 78.7229C155.656 78.7229 156.904 78.7489 157.32 79.087C157.58 79.269 157.736 79.555 157.762 79.8671C157.762 80.1011 157.71 80.3351 157.606 80.5431C157.45 80.3871 157.242 80.2831 157.034 80.2311C156.28 80.0751 155.5 80.2831 154.928 80.8032C154.564 81.1152 154.148 81.4012 153.732 81.6613C152.978 82.1293 152.172 82.5194 151.314 82.8054L148.87 83.6375C148.714 83.6895 148.636 83.8716 148.688 84.0276C148.74 84.1576 148.844 84.2356 148.974 84.2356C149 84.2356 149.052 84.2356 149.078 84.2356L151.522 83.4035C152.406 83.0915 153.264 82.7014 154.07 82.1813C154.512 81.9213 154.954 81.6093 155.344 81.2712C155.76 80.9072 156.306 80.7512 156.852 80.8552C157.034 80.8812 157.19 81.0372 157.268 81.2192V81.2452C157.268 81.2452 157.268 81.2452 157.268 81.2712C157.268 81.2972 157.268 81.2712 157.268 81.2972L157.294 81.3232C157.294 81.3232 157.294 81.3232 157.32 81.3232C157.32 81.3232 157.346 81.3232 157.346 81.3492C157.346 81.3492 157.346 81.3492 157.372 81.3492C157.398 81.3492 157.398 81.3492 157.398 81.3492C157.398 81.3492 157.398 81.3492 157.424 81.3492H157.45H157.528H157.554H157.58H157.606C157.606 81.3492 157.606 81.3492 157.632 81.3492C157.632 81.3492 157.658 81.3492 157.658 81.3232C157.788 81.3492 157.788 81.3492 157.788 81.3232Z" fill="#1A1A1A"/>
<path d="M158.203 67.2816C158.177 67.0995 158.021 66.9955 157.84 67.0215C157.788 67.0215 157.762 67.0475 157.71 67.0735L156.462 67.9316C156.358 68.0097 156.306 68.1657 156.332 68.2957C156.332 68.3477 157.632 72.5342 154.746 73.9384C154.616 73.9904 154.538 74.1464 154.59 74.2764C154.616 74.4064 154.746 74.5105 154.876 74.5105L156.436 74.6145H156.462C156.54 74.6145 156.618 74.5885 156.67 74.5365C157.372 73.8604 157.892 73.0023 158.151 72.0662C158.697 70.1679 158.203 67.3856 158.203 67.2816Z" fill="#1A1A1A"/>
<path d="M157.892 81.0905C157.892 81.0645 157.866 81.0384 157.84 81.0124C157.814 80.9604 157.788 80.9084 157.736 80.8564C157.58 80.7524 156.826 80.2063 156.254 80.2323C155.708 80.2583 154.434 81.2205 154.018 81.5325L152.094 82.5466C151.964 82.6246 151.886 82.7807 151.938 82.9107L152.198 83.8208C152.198 83.8728 152.224 83.8988 152.25 83.9508C152.25 83.9508 152.25 83.9508 152.25 83.9768C152.406 84.1848 152.692 84.2888 152.952 84.2628C153.16 84.2628 153.368 84.2368 153.576 84.1848C154.252 84.0028 154.928 83.7428 155.552 83.4307C155.864 83.3787 158.385 82.0266 157.892 81.0905ZM155.292 82.9627C154.122 83.5868 153.212 83.7688 152.9 83.7428C152.9 83.7168 152.926 83.6648 152.926 83.6128C153.16 83.3007 153.81 82.7547 154.876 82.1826C155.552 81.8185 156.254 81.5585 157.008 81.4285C157.112 81.4285 157.216 81.4285 157.294 81.4285C157.164 81.6885 156.462 82.3386 155.292 82.9627Z" fill="#1A1A1A"/>
</g>
<defs>
<clipPath id="clip0_1637_2343">
<rect width="208.167" height="203" fill="white" transform="translate(0.416367)"/>
</clipPath>
</defs>
</svg>
