<svg width="253" height="191" viewBox="0 0 253 191" fill="none" xmlns="http://www.w3.org/2000/svg">
<g clip-path="url(#clip0_1644_3349)">
<path d="M209.357 176.099C229.443 176.099 245.726 159.81 245.726 139.716C245.726 119.622 229.443 103.333 209.357 103.333C189.272 103.333 172.989 119.622 172.989 139.716C172.989 159.81 189.272 176.099 209.357 176.099Z" fill="#E4FAFC"/>
<path d="M162.173 163.537C168.495 146.926 139.136 120.2 96.5993 103.842C54.0624 87.4841 14.455 87.6893 8.13372 104.3C1.81242 120.911 31.171 147.638 73.7078 163.995C116.245 180.353 155.852 180.148 162.173 163.537Z" fill="#E4FAFC"/>
<path d="M234.047 133.836L223.022 150.225C222.09 151.61 220.671 152.589 219.05 152.966L218.823 153.019L237.219 101.213C238.17 102.58 238.574 104.257 238.347 105.91L234.797 131.866C234.701 132.572 234.444 133.246 234.047 133.836Z" fill="#E4FAFC"/>
<path d="M218.822 153.381C218.721 153.381 218.623 153.338 218.554 153.259C218.466 153.161 218.44 153.022 218.484 152.897L236.88 101.092C236.925 100.964 237.038 100.873 237.171 100.855C237.307 100.837 237.437 100.895 237.514 101.006C238.521 102.452 238.944 104.211 238.704 105.96L235.154 131.916C235.05 132.672 234.771 133.407 234.345 134.039L223.32 150.428C222.334 151.894 220.846 152.921 219.13 153.319L218.903 153.372C218.877 153.378 218.85 153.381 218.822 153.381ZM237.306 102.044L219.389 152.501C220.748 152.084 221.921 151.216 222.724 150.023L233.749 133.634C234.113 133.093 234.352 132.464 234.441 131.817L237.992 105.861C238.172 104.537 237.93 103.206 237.306 102.044Z" fill="#1A1A1A"/>
<path d="M185.577 155.806H215.275C216.966 155.806 218.47 155.334 218.697 153.255C216.684 153.255 182.045 153.255 182.045 153.255C182.045 153.255 182.57 155.806 185.577 155.806Z" fill="#E4FAFC"/>
<path d="M215.275 156.168H185.577C182.315 156.168 181.699 153.356 181.693 153.328C181.671 153.221 181.698 153.11 181.766 153.026C181.834 152.942 181.937 152.893 182.045 152.893H218.697C218.799 152.893 218.897 152.936 218.965 153.013C219.033 153.09 219.066 153.192 219.055 153.294C218.741 156.168 216.132 156.168 215.275 156.168ZM182.546 153.616C182.835 154.275 183.622 155.444 185.577 155.444H215.275C217.074 155.444 217.995 154.892 218.275 153.616H182.546Z" fill="#1A1A1A"/>
<path d="M182.045 153.255H218.697L224.571 120.75H193.934L182.045 153.255Z" fill="white"/>
<path d="M218.698 153.617H182.045C181.928 153.617 181.818 153.559 181.75 153.462C181.683 153.365 181.667 153.241 181.708 153.13L193.597 120.625C193.649 120.482 193.784 120.388 193.934 120.388H224.571C224.678 120.388 224.779 120.435 224.848 120.518C224.916 120.6 224.945 120.709 224.925 120.814L219.052 153.319C219.02 153.492 218.871 153.617 218.698 153.617ZM182.561 152.893H218.397L224.14 121.111H194.185L182.561 152.893Z" fill="#1A1A1A"/>
<path d="M233.029 132.089L218.697 153.255L224.571 120.75L237.305 101.096L233.029 132.089Z" fill="#1A1A1A"/>
<path d="M218.698 153.617C218.652 153.617 218.605 153.608 218.561 153.59C218.404 153.525 218.313 153.358 218.344 153.19L224.217 120.685C224.226 120.637 224.244 120.592 224.27 120.552L237.004 100.898C237.096 100.755 237.274 100.697 237.431 100.756C237.589 100.816 237.685 100.977 237.662 101.145L233.386 132.138C233.378 132.193 233.358 132.246 233.327 132.292L218.995 153.458C218.926 153.56 218.814 153.617 218.698 153.617ZM224.912 120.886L219.355 151.641L232.685 131.955L236.728 102.65L224.912 120.886ZM233.029 132.089H233.033H233.029Z" fill="#1A1A1A"/>
<path d="M210.601 145.499L213.015 145.496C213.403 145.496 213.661 145.76 213.591 146.087L213.149 148.142C213.078 148.476 212.7 148.747 212.307 148.747H209.859C209.466 148.747 209.21 148.476 209.288 148.143L209.763 146.09C209.839 145.763 210.213 145.499 210.601 145.499ZM203.404 146.095L202.873 148.144C202.786 148.477 203.033 148.747 203.425 148.747H205.862C206.254 148.747 206.638 148.477 206.719 148.143L207.217 146.092C207.296 145.766 207.046 145.503 206.66 145.503L204.256 145.506C203.87 145.506 203.489 145.769 203.404 146.095ZM197.071 146.101L196.483 148.145C196.388 148.477 196.626 148.747 197.016 148.747H199.444C199.834 148.747 200.224 148.477 200.314 148.145L200.868 146.098C200.956 145.772 200.715 145.509 200.33 145.51L197.936 145.512C197.552 145.513 197.165 145.776 197.071 146.101ZM190.764 146.106L190.121 148.146C190.017 148.478 190.246 148.747 190.634 148.747H193.052C193.44 148.747 193.836 148.477 193.935 148.146L194.545 146.103C194.643 145.778 194.41 145.515 194.027 145.516L191.642 145.518C191.26 145.519 190.867 145.782 190.764 146.106ZM210.821 141.523L210.364 143.493C210.29 143.813 210.542 144.073 210.927 144.072L213.326 144.069C213.711 144.068 214.08 143.808 214.149 143.487L214.572 141.514C214.64 141.2 214.386 140.947 214.005 140.948L211.639 140.954C211.26 140.955 210.893 141.209 210.821 141.523ZM204.587 141.537L204.077 143.504C203.994 143.823 204.237 144.082 204.621 144.082L207.01 144.078C207.394 144.078 207.769 143.818 207.846 143.498L208.324 141.529C208.4 141.216 208.154 140.964 207.775 140.964L205.419 140.97C205.041 140.971 204.669 141.224 204.587 141.537ZM198.379 141.552L197.815 143.515C197.723 143.834 197.959 144.092 198.34 144.091L200.72 144.088C201.102 144.087 201.483 143.827 201.569 143.509L202.101 141.543C202.186 141.231 201.949 140.979 201.571 140.98L199.224 140.986C198.847 140.986 198.469 141.24 198.379 141.552ZM192.196 141.566L191.578 143.525C191.478 143.843 191.705 144.101 192.085 144.101L194.455 144.097C194.836 144.097 195.222 143.838 195.317 143.519L195.903 141.558C195.996 141.246 195.767 140.994 195.391 140.995L193.053 141.001C192.678 141.002 192.294 141.254 192.196 141.566ZM211.837 137.136L211.398 139.029C211.327 139.337 211.575 139.586 211.952 139.584L214.304 139.578C214.682 139.577 215.043 139.325 215.109 139.018L215.516 137.122C215.58 136.821 215.33 136.578 214.957 136.58L212.637 136.589C212.264 136.59 211.906 136.835 211.837 137.136ZM205.724 137.159L205.234 139.049C205.154 139.355 205.394 139.604 205.77 139.603L208.113 139.596C208.489 139.595 208.855 139.344 208.93 139.037L209.389 137.145C209.462 136.844 209.22 136.602 208.848 136.603L206.537 136.612C206.166 136.614 205.802 136.858 205.724 137.159ZM199.636 137.182L199.093 139.068C199.005 139.374 199.237 139.622 199.612 139.621L201.945 139.614C202.32 139.613 202.692 139.363 202.775 139.056L203.286 137.168C203.367 136.868 203.133 136.626 202.763 136.627L200.461 136.636C200.091 136.638 199.722 136.881 199.636 137.182ZM193.571 137.204L192.977 139.087C192.881 139.392 193.105 139.639 193.478 139.638L195.802 139.631C196.175 139.63 196.553 139.381 196.644 139.075L197.207 137.19C197.297 136.89 197.07 136.649 196.701 136.65L194.408 136.659C194.04 136.661 193.665 136.905 193.571 137.204ZM212.813 132.919L212.391 134.739C212.323 135.035 212.567 135.273 212.938 135.272L215.244 135.262C215.615 135.26 215.967 135.018 216.031 134.723L216.422 132.9C216.484 132.61 216.238 132.377 215.872 132.379L213.596 132.391C213.231 132.393 212.88 132.629 212.813 132.919ZM206.817 132.949L206.345 134.767C206.268 135.062 206.505 135.3 206.874 135.298L209.171 135.288C209.541 135.287 209.899 135.045 209.97 134.75L210.412 132.931C210.482 132.641 210.244 132.409 209.879 132.411L207.612 132.423C207.248 132.425 206.892 132.66 206.817 132.949ZM200.844 132.98L200.322 134.794C200.238 135.088 200.466 135.326 200.834 135.325L203.122 135.315C203.49 135.313 203.853 135.072 203.933 134.778L204.425 132.962C204.503 132.673 204.272 132.441 203.909 132.443L201.65 132.455C201.288 132.456 200.927 132.691 200.844 132.98ZM194.893 133.01L194.322 134.821C194.23 135.114 194.451 135.352 194.817 135.35L197.096 135.34C197.463 135.339 197.832 135.098 197.919 134.804L198.461 132.991C198.546 132.703 198.323 132.471 197.961 132.473L195.711 132.485C195.35 132.487 194.984 132.722 194.893 133.01ZM213.753 128.862L213.347 130.613C213.281 130.898 213.522 131.127 213.885 131.125L216.148 131.112C216.511 131.11 216.856 130.878 216.917 130.593L217.294 128.839C217.354 128.56 217.111 128.336 216.752 128.339L214.519 128.353C214.16 128.356 213.817 128.583 213.753 128.862ZM207.868 128.899L207.414 130.648C207.34 130.932 207.574 131.161 207.936 131.159L210.19 131.146C210.552 131.144 210.902 130.912 210.971 130.628L211.396 128.877C211.463 128.598 211.228 128.375 210.87 128.377L208.645 128.392C208.288 128.394 207.941 128.621 207.868 128.899ZM202.006 128.937L201.504 130.683C201.422 130.966 201.648 131.194 202.009 131.192L204.255 131.18C204.615 131.177 204.971 130.946 205.048 130.662L205.521 128.914C205.596 128.636 205.368 128.413 205.012 128.415L202.795 128.43C202.439 128.432 202.086 128.659 202.006 128.937ZM196.166 128.974L195.616 130.717C195.527 130.999 195.746 131.228 196.105 131.226L198.342 131.213C198.702 131.211 199.062 130.979 199.146 130.696L199.667 128.952C199.75 128.674 199.53 128.451 199.174 128.454L196.966 128.468C196.611 128.471 196.253 128.697 196.166 128.974ZM214.657 124.956L214.266 126.643C214.203 126.916 214.441 127.136 214.797 127.134L217.018 127.118C217.375 127.116 217.712 126.891 217.771 126.617L218.134 124.928C218.191 124.66 217.952 124.445 217.6 124.447L215.407 124.464C215.055 124.468 214.719 124.687 214.657 124.956ZM208.88 125L208.443 126.684C208.372 126.957 208.603 127.177 208.958 127.174L211.17 127.159C211.526 127.157 211.868 126.932 211.935 126.659L212.344 124.973C212.409 124.705 212.177 124.49 211.826 124.493L209.642 124.51C209.291 124.513 208.95 124.732 208.88 125ZM203.125 125.044L202.642 126.725C202.563 126.998 202.787 127.217 203.14 127.215L205.344 127.2C205.699 127.197 206.046 126.974 206.12 126.7L206.576 125.017C206.649 124.75 206.424 124.535 206.073 124.538L203.897 124.555C203.547 124.558 203.202 124.776 203.125 125.044ZM197.391 125.088L196.861 126.766C196.775 127.039 196.992 127.258 197.344 127.255L199.54 127.24C199.893 127.238 200.246 127.014 200.327 126.742L200.828 125.062C200.908 124.794 200.69 124.58 200.342 124.583L198.173 124.6C197.825 124.602 197.475 124.821 197.391 125.088Z" fill="#E4FAFC"/>
<path d="M154.053 158.489C156.818 151.204 134.76 135.928 104.785 124.369C74.8102 112.81 48.2697 109.346 45.5051 116.631C42.7404 123.916 64.7985 139.192 94.7731 150.75C124.748 162.309 151.288 165.774 154.053 158.489Z" fill="#1A1A1A"/>
<path d="M143.022 162.659C140.558 162.659 137.732 162.455 134.569 162.042C123.345 160.578 109.166 156.687 94.6425 151.088C80.1194 145.488 66.9842 138.847 57.6555 132.387C48.1987 125.839 43.7628 120.197 45.1652 116.501C46.5679 112.805 53.6061 111.587 64.9845 113.072C76.2085 114.536 90.3881 118.427 104.911 124.026C119.434 129.626 132.57 136.267 141.898 142.727C151.355 149.275 155.791 154.917 154.388 158.613C153.376 161.282 149.423 162.659 143.022 162.659ZM56.5256 113.184C50.5069 113.184 46.7314 114.41 45.8393 116.761C44.5863 120.063 49.0421 125.54 58.064 131.788C67.3472 138.215 80.4294 144.828 94.9005 150.408C109.372 155.988 123.492 159.864 134.662 161.321C145.516 162.737 152.461 161.656 153.714 158.354C154.967 155.051 150.512 149.574 141.49 143.327C132.207 136.899 119.124 130.286 104.653 124.706C90.1821 119.126 76.0609 115.251 64.8918 113.793C61.7648 113.385 58.9608 113.184 56.5256 113.184Z" fill="#1A1A1A"/>
<path d="M177.198 100.143C177.198 100.143 178.625 97.5935 178.787 95.8354C178.95 94.0774 180.284 94.3235 180.386 95.6665C180.488 97.0099 180.101 98.83 180.101 98.83" fill="#E4FAFC"/>
<path d="M177.197 100.505C177.137 100.505 177.077 100.49 177.021 100.459C176.847 100.36 176.786 100.14 176.883 99.9649C176.897 99.9402 178.274 97.4615 178.428 95.8021C178.536 94.6392 179.1 94.2256 179.595 94.2256C179.598 94.2256 179.6 94.2256 179.603 94.2256C180.118 94.2299 180.676 94.7168 180.746 95.6393C180.85 97.0189 180.47 98.8299 180.453 98.9064C180.412 99.1022 180.22 99.225 180.025 99.1852C179.83 99.1435 179.706 98.9506 179.748 98.7549C179.751 98.7371 180.122 96.9685 180.026 95.6948C179.988 95.1894 179.747 94.952 179.596 94.9509C179.596 94.9509 179.596 94.9509 179.595 94.9509C179.448 94.9509 179.208 95.1949 179.146 95.8698C178.978 97.6837 177.571 100.214 177.511 100.321C177.446 100.438 177.323 100.505 177.197 100.505Z" fill="#1A1A1A"/>
<path d="M192.959 97.2665C189.853 97.2632 185.586 99.2493 185.586 99.2493C185.586 99.2493 187.108 96.8866 191.283 94.9802C192.936 94.2255 192.331 92.9739 190.543 93.5495C187.758 94.4463 184.535 97.2726 184.161 97.7826C184.161 97.7826 185.933 94.5119 188.595 92.337C189.682 91.4485 189.2 90.0294 187.491 91.3445C183.423 94.4731 179.53 99.1529 170.28 105.156C170.063 105.297 169.776 105.478 169.432 105.69L175.763 111.797C177.096 110.258 177.832 109.34 177.846 109.33C180.078 107.053 184.678 102.208 191.589 102.569C193.382 102.823 193.659 101.545 192.324 101.16C189.737 100.413 186.858 101.005 186.858 101.005C186.858 101.005 188.376 99.3232 193.053 98.9067C194.659 98.7639 194.652 97.2683 192.959 97.2665Z" fill="#E4FAFC"/>
<path d="M175.763 112.159C175.67 112.159 175.581 112.123 175.514 112.059L169.183 105.952C169.102 105.874 169.062 105.763 169.074 105.652C169.086 105.54 169.148 105.44 169.243 105.381C169.585 105.17 169.868 104.991 170.085 104.851C176.294 100.822 180.086 97.3849 183.134 94.6231C184.636 93.2616 185.934 92.0857 187.272 91.057C188.611 90.0264 189.204 90.5698 189.354 90.7604C189.736 91.2469 189.503 92.0629 188.823 92.6182C187.655 93.5723 186.657 94.7511 185.913 95.7581C187.201 94.7812 188.894 93.7002 190.434 93.2047C191.628 92.8194 192.362 93.1648 192.558 93.6767C192.727 94.1164 192.533 94.808 191.432 95.3104C189.207 96.3265 187.75 97.481 186.89 98.3115C188.43 97.717 190.91 96.9039 192.952 96.9039C192.954 96.9039 192.957 96.9039 192.96 96.9039C194.062 96.905 194.579 97.4611 194.604 98.0113C194.627 98.5493 194.162 99.172 193.085 99.2681C190.775 99.4736 189.259 99.9974 188.334 100.455C189.431 100.377 190.964 100.39 192.425 100.811C193.306 101.065 193.601 101.646 193.503 102.11C193.399 102.601 192.821 103.109 191.539 102.928C184.953 102.589 180.416 107.222 178.235 109.45L178.109 109.578C178.094 109.596 178.06 109.637 178.008 109.7C177.752 110.011 177.073 110.836 176.035 112.035C175.97 112.11 175.878 112.155 175.779 112.159C175.774 112.159 175.768 112.159 175.763 112.159ZM170.017 105.752L175.739 111.272C176.632 110.235 177.219 109.521 177.452 109.238C177.55 109.12 177.58 109.083 177.602 109.062L177.72 108.941C179.975 106.638 184.673 101.843 191.607 102.207C192.441 102.323 192.77 102.085 192.797 101.958C192.82 101.85 192.654 101.632 192.225 101.508C189.751 100.794 186.959 101.355 186.93 101.36C186.778 101.392 186.622 101.32 186.545 101.185C186.467 101.049 186.486 100.878 186.591 100.762C186.657 100.689 188.258 98.9697 193.022 98.5456C193.628 98.4916 193.89 98.219 193.883 98.0429C193.874 97.8424 193.547 97.6293 192.958 97.6285C192.956 97.6285 192.953 97.6285 192.951 97.6285C189.96 97.6285 185.779 99.5584 185.737 99.5776C185.593 99.6454 185.419 99.6088 185.313 99.4863C185.208 99.3645 185.196 99.1872 185.283 99.0517C185.348 98.9516 186.911 96.5777 191.133 94.6496C191.75 94.3683 191.927 94.0468 191.884 93.9369C191.832 93.8006 191.418 93.6488 190.653 93.8942C187.931 94.7707 184.781 97.5484 184.451 97.9972C184.338 98.1502 184.127 98.19 183.967 98.0874C183.807 97.9849 183.753 97.7757 183.844 97.6082C183.917 97.4723 185.681 94.2494 188.367 92.0549C188.795 91.7058 188.869 91.3125 188.787 91.2088C188.734 91.1411 188.381 91.1157 187.709 91.6319C186.395 92.6436 185.107 93.8101 183.616 95.1611C180.55 97.9403 176.733 101.399 170.475 105.46C170.346 105.544 170.193 105.642 170.017 105.752Z" fill="#1A1A1A"/>
<path d="M207.859 128.202C205.013 126.717 204.881 124.004 202.838 122.431C202.838 122.431 204.73 122.986 206.248 123.117C207.497 123.225 208.012 121.979 206.144 121.524C202.854 120.722 201.935 119.657 196.767 117.75C192.804 116.288 186.751 117.406 186.751 117.406C186.751 117.406 185.748 117.591 185.187 117.713C182.832 118.221 180.518 118.667 178.245 118.99L179.933 128.467C182.196 127.366 184.485 126.09 186.796 124.623L186.795 124.645C186.795 124.645 187.031 124.478 187.4 124.231C187.696 124.039 187.991 123.853 188.288 123.656C188.298 123.649 188.308 123.641 188.318 123.634C189.279 123.028 190.498 122.324 191.372 122.043C193.667 121.305 195.279 126.043 196.311 128.75C197.342 131.458 198.817 130.129 198.713 128.938C198.61 127.748 198.572 128.043 197.935 125.301C200.511 127.473 203.063 129.243 206.679 130.049C208.935 130.551 209.582 129.045 207.859 128.202Z" fill="#E4FAFC"/>
<path d="M197.724 130.699C197.246 130.699 196.548 130.387 195.973 128.879L195.771 128.344C194.849 125.897 193.307 121.8 191.481 122.387C190.804 122.605 189.776 123.142 188.509 123.941C188.287 124.09 188.089 124.217 187.89 124.345L187.595 124.535C187.237 124.775 187.004 124.94 187.002 124.941C186.965 124.967 186.924 124.986 186.881 124.996C184.643 126.412 182.359 127.689 180.089 128.793C179.987 128.843 179.869 128.841 179.768 128.79C179.668 128.738 179.597 128.642 179.577 128.531L177.889 119.053C177.872 118.956 177.894 118.857 177.952 118.777C178.01 118.697 178.096 118.644 178.194 118.63C180.239 118.34 182.436 117.935 185.11 117.358C185.671 117.237 186.644 117.057 186.685 117.049C186.936 117.003 192.881 115.93 196.891 117.409C199.267 118.286 200.767 118.994 201.973 119.563C203.426 120.249 204.477 120.744 206.229 121.171C207.45 121.468 207.799 122.103 207.719 122.598C207.625 123.175 206.997 123.547 206.217 123.478C205.487 123.415 204.683 123.259 204.03 123.11C204.439 123.619 204.766 124.171 205.087 124.713C205.777 125.876 206.49 127.078 208.021 127.878C209.118 128.416 209.312 129.17 209.144 129.652C208.948 130.216 208.164 130.751 206.6 130.402C203.38 129.684 200.982 128.232 198.534 126.264C198.633 126.668 198.709 126.967 198.77 127.206C198.958 127.941 199.003 128.116 199.072 128.906C199.143 129.722 198.651 130.513 197.976 130.669C197.902 130.687 197.817 130.699 197.724 130.699ZM191.855 121.601C194.003 121.601 195.456 125.46 196.446 128.088L196.647 128.62C197.064 129.714 197.522 130.033 197.814 129.964C198.13 129.89 198.392 129.408 198.354 128.97C198.29 128.239 198.257 128.109 198.073 127.387C197.967 126.974 197.814 126.378 197.583 125.383C197.548 125.231 197.613 125.073 197.746 124.991C197.878 124.91 198.048 124.923 198.166 125.023C200.834 127.272 203.316 128.927 206.757 129.694C207.845 129.936 208.381 129.651 208.463 129.414C208.537 129.202 208.329 128.836 207.701 128.528C207.698 128.527 207.695 128.525 207.693 128.524C205.977 127.629 205.21 126.335 204.468 125.085C203.94 124.194 203.44 123.352 202.619 122.719C202.481 122.613 202.438 122.424 202.517 122.268C202.595 122.112 202.773 122.035 202.939 122.084C202.958 122.089 204.816 122.629 206.28 122.756C206.719 122.794 206.985 122.621 207.008 122.482C207.031 122.342 206.793 122.055 206.06 121.876C204.237 121.432 203.103 120.897 201.668 120.22C200.474 119.657 198.989 118.956 196.643 118.09C192.816 116.678 186.876 117.751 186.816 117.762C186.815 117.762 185.82 117.946 185.262 118.067C182.732 118.614 180.623 119.006 178.666 119.295L180.204 127.931C182.344 126.87 184.495 125.655 186.603 124.316C186.631 124.299 186.661 124.285 186.692 124.275C186.796 124.203 186.973 124.081 187.201 123.929L187.503 123.734C187.698 123.609 187.892 123.484 188.088 123.353C188.091 123.352 188.124 123.329 188.126 123.327C189.463 122.484 190.518 121.936 191.262 121.697C191.465 121.631 191.663 121.601 191.855 121.601Z" fill="#1A1A1A"/>
<path d="M183.681 118.029C165.583 121.739 148.501 120.953 134.784 87.9238L110.307 109.734C118.016 122.445 149.243 147.845 186.04 125.088C182.837 123.987 183.325 119.781 183.681 118.029Z" fill="white"/>
<path d="M156.035 134.601C151.967 134.601 147.892 134.109 143.814 133.124C125.516 128.704 113.694 116.015 109.999 109.923C109.908 109.773 109.937 109.579 110.068 109.463L134.545 87.6527C134.632 87.5755 134.75 87.5443 134.865 87.5708C134.978 87.5969 135.072 87.6766 135.117 87.7843C149.184 121.655 166.785 121.122 183.609 117.674C183.728 117.651 183.851 117.687 183.936 117.773C184.022 117.86 184.059 117.983 184.034 118.103C183.696 119.764 183.225 123.737 186.157 124.746C186.289 124.791 186.383 124.909 186.399 125.048C186.414 125.187 186.348 125.324 186.229 125.397C176.323 131.523 166.208 134.601 156.035 134.601ZM110.774 109.803C114.586 115.899 126.17 128.116 143.983 132.419C157.864 135.773 171.748 133.324 185.262 125.14C182.774 123.778 182.92 120.393 183.23 118.49C175.254 120.09 166.015 121.097 157.438 117.082C148.398 112.849 140.94 103.507 134.647 88.5303L110.774 109.803Z" fill="#1A1A1A"/>
<path d="M95.1197 150.794C115.137 158.49 133.615 162.58 144.5 162.283C145.346 122.117 138.229 59.5013 106.073 65.7293C72.603 79.2777 72.8778 134.392 72.6683 140.753C79.3306 144.218 86.928 147.645 95.1197 150.794Z" fill="white"/>
<path d="M81.5961 92.1172C76.9003 110.859 82.8391 117.939 77.5909 126.546C76.4939 128.345 76.6872 132.701 78.1434 136.403C79.7085 140.382 82.8391 143.159 89.1004 148.249C79.1564 143.899 72.6679 140.752 72.6679 140.752C72.6679 140.752 72.6185 111.692 81.5961 92.1172Z" fill="#E4FAFC"/>
<path d="M107.423 69.5818C101.346 69.0265 93.0594 74.3018 85.233 84.76C86.1447 82.9276 87.3351 81.0843 88.6586 79.336C92.816 73.8429 98.2828 69.2849 100.518 68.934C103.464 68.4715 107.423 69.5818 107.423 69.5818Z" fill="#E4FAFC"/>
<path d="M86.7286 96.2883C86.1519 96.2883 85.5706 96.2343 84.9907 96.1248C83.3873 95.8221 81.8954 95.1051 80.6761 94.0513C80.5253 93.9208 80.508 93.6918 80.6382 93.5402C80.7681 93.3883 80.9956 93.3717 81.1467 93.5018C82.2694 94.4726 83.6448 95.133 85.1237 95.4125C87.2987 95.8232 89.4942 95.39 91.3075 94.1938C93.1171 93.0005 94.3289 91.1891 94.7205 89.0943C95.4879 84.9876 92.8131 80.9201 88.6302 79.8345C88.4372 79.7845 88.3215 79.5865 88.3712 79.393C88.421 79.199 88.6175 79.0827 88.8105 79.1327C93.3591 80.3133 96.2665 84.748 95.4291 89.2284C95.0011 91.519 93.6783 93.4975 91.7031 94.8002C90.2173 95.7797 88.4964 96.2883 86.7286 96.2883Z" fill="#E4FAFC"/>
<path d="M104.109 66.5271C108.503 63.9099 112.185 65.6857 121.873 73.9617C122.023 71.4399 121.647 69.2428 120.035 67.7124C118.422 66.1816 111.513 61.3217 104.109 66.5271Z" fill="#E4FAFC"/>
<path d="M101.842 153.633C101.833 153.633 101.823 153.633 101.814 153.632C101.615 153.617 101.467 153.443 101.482 153.243C101.669 150.789 100.895 148.409 99.3016 146.541C97.7079 144.673 95.4861 143.54 93.045 143.351C89.9901 143.115 87.0369 144.42 85.1385 146.84C85.0155 146.997 84.7891 147.025 84.6322 146.9C84.4757 146.776 84.449 146.548 84.5723 146.391C86.6196 143.781 89.8112 142.375 93.0998 142.629C95.7331 142.832 98.1299 144.054 99.849 146.069C101.568 148.084 102.403 150.652 102.201 153.299C102.187 153.489 102.029 153.633 101.842 153.633Z" fill="#E4FAFC"/>
<path d="M138.084 97.1152C141.675 105.723 144.576 114.191 146.51 117.939C149.434 123.609 153.277 125.991 157.973 128.906C162.669 131.822 168.469 127.518 179.933 128.468C166.536 133.765 156.454 135.848 143.333 132.932C143.057 126.407 140.433 103.501 138.084 97.1152Z" fill="#1A1A1A"/>
<path d="M143.377 162.659C131.992 162.659 113.63 158.297 94.9906 151.131C86.9759 148.05 79.4099 144.666 72.502 141.074C72.3787 141.009 72.3026 140.879 72.3077 140.74C72.3163 140.465 72.3246 140.099 72.3347 139.649C73.2143 100.179 85.1483 73.8067 105.939 65.3912C105.96 65.3825 105.983 65.376 106.005 65.3716C113.925 63.8383 120.827 66.3532 126.524 72.8454C131.451 78.4604 135.495 87.0699 138.543 98.4343C144.955 122.344 145.097 151.055 144.861 162.289C144.857 162.483 144.703 162.639 144.51 162.644C144.141 162.654 143.762 162.659 143.377 162.659ZM95.2484 150.454C114.242 157.756 132.927 162.13 144.147 161.927C144.372 150.49 144.169 122.201 137.846 98.6231C134.828 87.3675 130.836 78.8559 125.983 73.3254C120.474 67.0478 113.811 64.6089 106.176 66.077C78.5347 77.2932 73.5608 116.993 73.0552 139.665C73.0477 140.003 73.0415 140.294 73.0347 140.534C79.8647 144.076 87.3369 147.412 95.2484 150.454Z" fill="#1A1A1A"/>
<path d="M82.5052 98.7227C82.4962 107.908 86.3423 121.315 92.8416 131.898C95.9783 137.005 99.7329 141.455 103.97 144.455C131.878 164.213 173.257 115.209 177.846 109.329C178.115 109.055 178.419 108.743 178.757 108.407C177.496 105.185 175.001 103.822 173.114 103.243C172.227 103.865 171.287 104.502 170.28 105.155C166.53 107.589 143.033 121.395 132.961 120.259C126.642 119.546 123.352 111.081 119.854 98.7807" fill="white"/>
<path d="M126.299 147.965C121.429 147.965 117.467 143.983 117.467 139.088C117.467 134.193 121.429 130.211 126.299 130.211C131.169 130.211 135.13 134.193 135.13 139.088C135.13 143.983 131.169 147.965 126.299 147.965ZM126.299 130.936C121.827 130.936 118.189 134.593 118.189 139.088C118.189 143.583 121.827 147.24 126.299 147.24C130.771 147.24 134.409 143.583 134.409 139.088C134.409 134.593 130.771 130.936 126.299 130.936Z" fill="#E4FAFC"/>
<path d="M118.597 88.9907C117.968 88.9907 117.32 88.9084 116.664 88.742C114.544 88.2037 112.591 86.8458 111.167 84.9185C109.743 82.9915 109.013 80.7205 109.113 78.5242C109.213 76.3003 110.149 74.4179 111.748 73.2238C113.348 72.0298 115.41 71.6724 117.558 72.2176C119.679 72.7559 121.631 74.1138 123.055 76.0411C124.48 77.9681 125.21 80.2395 125.11 82.4354C125.009 84.6593 124.073 86.5417 122.474 87.7357C121.363 88.5651 120.028 88.9907 118.597 88.9907ZM115.628 72.6946C114.349 72.6946 113.162 73.0716 112.179 73.806C110.757 74.8677 109.924 76.5551 109.833 78.5571C109.741 80.5871 110.421 82.6928 111.746 84.486C113.072 86.2793 114.881 87.5414 116.841 88.0388C118.774 88.5296 120.622 88.2149 122.044 87.1536C123.466 86.0918 124.299 84.4045 124.39 82.4024C124.482 80.3725 123.802 78.2668 122.476 76.4732C121.151 74.6796 119.342 73.4181 117.381 72.9204C116.786 72.7693 116.198 72.6946 115.628 72.6946Z" fill="#E4FAFC"/>
<path d="M207.599 128.495C207.572 128.495 207.546 128.492 207.518 128.486C204.46 127.79 201.205 125.319 201.068 125.214C200.91 125.093 200.879 124.865 201 124.706C201.121 124.546 201.347 124.515 201.505 124.637C201.537 124.662 204.773 127.118 207.678 127.779C207.872 127.824 207.994 128.017 207.95 128.213C207.912 128.381 207.763 128.495 207.599 128.495Z" fill="#1A1A1A"/>
<path d="M202.152 123.71C202.152 123.71 204.062 124.68 205.342 125.845L202.152 123.71Z" fill="#E4FAFC"/>
<path d="M205.342 126.208C205.256 126.208 205.169 126.177 205.1 126.114C203.872 124.996 202.008 124.043 201.989 124.034C201.811 123.943 201.74 123.725 201.83 123.547C201.92 123.368 202.138 123.296 202.315 123.387C202.394 123.427 204.283 124.392 205.584 125.576C205.732 125.711 205.743 125.94 205.609 126.089C205.538 126.167 205.441 126.208 205.342 126.208Z" fill="#1A1A1A"/>
<path d="M153.898 133.711C153.809 133.711 153.72 133.678 153.65 133.612C151.93 131.969 150.983 129.751 150.983 127.366C150.983 122.615 154.829 118.749 159.556 118.749C162.249 118.749 164.733 119.984 166.37 122.137C166.491 122.296 166.461 122.523 166.302 122.645C166.144 122.766 165.918 122.736 165.797 122.577C164.297 120.605 162.022 119.474 159.555 119.474C155.226 119.474 151.704 123.014 151.704 127.366C151.704 129.55 152.571 131.581 154.146 133.087C154.29 133.224 154.296 133.454 154.159 133.599C154.089 133.674 153.993 133.711 153.898 133.711Z" fill="#E4FAFC"/>
<path d="M124.826 113.914C126.186 126.845 128.605 124.45 131.933 122.733C134.688 121.311 134.565 123.988 136.929 124.016C138.597 124.036 140.138 121.953 141.627 121.143C143.115 120.334 144.033 122.237 147.424 119.48C148.934 118.252 151.377 117.559 152.658 117.423C153.94 117.287 155.693 116.052 157.031 114.876C159.319 112.864 171.422 104.69 171.422 104.69C171.422 104.69 154.236 114.707 146.353 117.221C141.733 118.694 130.626 124.465 124.826 113.914Z" fill="#E4FAFC"/>
<path d="M91.7979 130.623C91.6905 130.623 91.5841 130.575 91.513 130.483C91.3908 130.325 91.4189 130.097 91.5761 129.974C93.6501 128.351 94.8398 125.905 94.8398 123.266C94.8398 118.579 91.0471 114.767 86.3852 114.767C86.0004 114.767 85.6131 114.793 85.2341 114.845C85.0372 114.872 84.8547 114.733 84.828 114.535C84.8014 114.336 84.9398 114.154 85.1367 114.127C85.5482 114.071 85.9683 114.042 86.3852 114.042C91.4449 114.042 95.5611 118.18 95.5611 123.266C95.5611 126.13 94.27 128.784 92.0193 130.546C91.953 130.598 91.8751 130.623 91.7979 130.623Z" fill="#E4FAFC"/>
<path d="M125.931 76.6182C124.756 76.6182 122.628 74.9142 121.673 74.0953C121.589 74.0228 121.542 73.9151 121.547 73.8039C121.625 71.9776 121.133 70.1083 120.043 68.0885C119.966 67.9453 119.993 67.768 120.109 67.655C120.226 67.5415 120.402 67.5201 120.543 67.6028C120.715 67.7046 124.78 70.1424 126.423 74.436C126.685 75.1226 126.969 76.0817 126.4 76.4859C126.272 76.5773 126.113 76.6182 125.931 76.6182ZM122.273 73.6563C124.061 75.1661 125.695 76.0789 125.984 75.8943C125.984 75.894 126.127 75.6845 125.749 74.6967C124.717 71.9965 122.604 70.0332 121.297 69.0168C121.989 70.6183 122.31 72.1476 122.273 73.6563Z" fill="#1A1A1A"/>
<path d="M121.657 75.1885L121.696 76.4394C121.696 76.4394 122.57 76.9201 123.165 76.5888L124.044 75.5358L122.185 74.0967L121.657 75.1885Z" fill="#1A1A1A"/>
<path d="M122.67 77.0688C122.111 77.0688 121.6 76.7994 121.523 76.7578C121.411 76.6961 121.34 76.5794 121.336 76.4511L121.296 75.2001C121.294 75.1414 121.307 75.0831 121.332 75.0301L121.861 73.9383C121.909 73.8401 121.997 73.769 122.103 73.744C122.208 73.719 122.32 73.7433 122.406 73.8096L124.264 75.2487C124.342 75.3092 124.392 75.3988 124.403 75.497C124.413 75.5952 124.384 75.6935 124.321 75.7689L123.442 76.8219C123.413 76.856 123.379 76.8846 123.34 76.906C123.126 77.0253 122.894 77.0688 122.67 77.0688ZM122.05 76.2039C122.294 76.301 122.675 76.4047 122.939 76.2967L123.526 75.5923L122.316 74.6553L122.021 75.2668L122.05 76.2039Z" fill="#1A1A1A"/>
<path d="M135.132 97.1846C135.132 97.1846 129.221 96.2428 127.025 88.2655C125.082 81.2057 123.681 77.1338 122.239 74.8643C127.127 77.9509 129.062 82.4849 130.399 85.9575C131.737 89.4313 131.977 94.4554 135.132 97.1846Z" fill="#1A1A1A"/>
<path d="M125.94 92.9468C125.94 92.9468 120.799 92.933 121.66 84.7016C122.192 79.6195 122.957 77.156 122.243 74.5605C125.21 78.3968 125.112 81.6197 125.063 84.38C124.996 88.1043 125.065 89.5332 125.94 92.9468Z" fill="#1A1A1A"/>
<path d="M182.305 127.587C182.256 127.587 182.205 127.576 182.158 127.555C178.318 125.817 179.467 121.037 179.478 120.989C179.527 120.795 179.721 120.677 179.916 120.726C180.109 120.775 180.226 120.971 180.178 121.165C180.135 121.338 179.168 125.406 182.454 126.893C182.635 126.976 182.717 127.19 182.635 127.373C182.574 127.507 182.443 127.587 182.305 127.587Z" fill="#1A1A1A"/>
<path d="M175.923 111.625C175.779 111.625 175.643 111.538 175.587 111.395C174.53 108.699 171.596 106.991 171.566 106.974C171.393 106.875 171.333 106.653 171.432 106.48C171.53 106.306 171.75 106.245 171.924 106.344C172.053 106.419 175.109 108.198 176.259 111.13C176.332 111.316 176.241 111.527 176.055 111.6C176.012 111.617 175.967 111.625 175.923 111.625Z" fill="#1A1A1A"/>
<path d="M132.845 104.061C133.457 103.983 133.842 103.028 133.703 101.926C133.565 100.825 132.957 99.9956 132.345 100.073C131.732 100.151 131.348 101.107 131.487 102.208C131.625 103.309 132.233 104.138 132.845 104.061Z" fill="#E4FAFC"/>
<path d="M132.772 104.429C131.997 104.429 131.291 103.507 131.133 102.254C130.967 100.934 131.482 99.819 132.304 99.7146C133.131 99.6123 133.9 100.562 134.066 101.882C134.14 102.475 134.079 103.054 133.895 103.514C133.681 104.044 133.326 104.366 132.895 104.421C132.854 104.427 132.812 104.429 132.772 104.429ZM132.429 100.432C132.417 100.432 132.406 100.432 132.394 100.434C132.04 100.479 131.731 101.228 131.848 102.163C131.966 103.099 132.45 103.744 132.804 103.702C132.962 103.682 133.116 103.514 133.225 103.242C133.363 102.901 133.408 102.438 133.349 101.973C133.237 101.068 132.78 100.432 132.429 100.432Z" fill="#1A1A1A"/>
<path d="M134.58 116.056C135.195 116.01 135.629 115.077 135.548 113.97C135.468 112.863 134.904 112.002 134.288 112.047C133.673 112.092 133.239 113.026 133.32 114.133C133.4 115.24 133.964 116.101 134.58 116.056Z" fill="#E4FAFC"/>
<path d="M134.538 116.421C134.132 116.421 133.749 116.177 133.455 115.727C133.183 115.313 133.01 114.757 132.967 114.161C132.87 112.834 133.442 111.748 134.268 111.687C135.105 111.621 135.818 112.618 135.914 113.944C136.011 115.271 135.439 116.358 134.612 116.418C134.588 116.42 134.563 116.421 134.538 116.421ZM134.342 112.409C134.335 112.409 134.328 112.409 134.321 112.41C133.965 112.436 133.618 113.167 133.686 114.108C133.72 114.576 133.855 115.02 134.057 115.328C134.217 115.573 134.406 115.71 134.56 115.695C134.916 115.669 135.263 114.937 135.195 113.997C135.128 113.075 134.694 112.409 134.342 112.409Z" fill="#1A1A1A"/>
<path d="M138.17 153.074C138.785 153.029 139.219 152.095 139.138 150.988C139.058 149.881 138.494 149.021 137.879 149.066C137.263 149.111 136.83 150.045 136.91 151.152C136.99 152.259 137.554 153.119 138.17 153.074Z" fill="#E4FAFC"/>
<path d="M138.132 153.441C137.336 153.441 136.652 152.469 136.558 151.181C136.461 149.854 137.034 148.768 137.86 148.707C138.283 148.676 138.705 148.92 139.018 149.398C139.289 149.812 139.462 150.368 139.506 150.965C139.602 152.291 139.03 153.378 138.204 153.439C138.18 153.44 138.156 153.441 138.132 153.441ZM137.932 149.429C137.925 149.429 137.919 149.429 137.912 149.43C137.556 149.456 137.209 150.188 137.277 151.128C137.345 152.068 137.781 152.736 138.151 152.715C138.507 152.689 138.854 151.957 138.786 151.017C138.752 150.549 138.617 150.105 138.416 149.797C138.262 149.562 138.086 149.429 137.932 149.429Z" fill="#1A1A1A"/>
<path d="M153.697 133.104C153.697 133.104 145.699 138.441 138.993 139.203C132.286 139.965 134.082 142.485 131.455 143.529C128.828 144.574 123.793 144.133 119.799 142.433C115.806 140.733 110.688 141.229 109.495 142.511C108.302 143.794 108.248 146.728 112.672 148.203C117.095 149.678 124.884 149.083 134.079 145.427C143.275 141.771 149.44 136.594 153.697 133.104Z" fill="#1A1A1A"/>
<path d="M118.946 149.27C114.695 149.27 110.699 148.391 106.993 146.634C101.513 144.036 96.5853 139.233 92.3457 132.356C89.2739 127.373 86.6766 121.42 84.8345 115.142C84.2784 113.247 83.7973 111.339 83.4035 109.472C82.577 105.551 82.1417 101.834 82.1446 98.7227C82.0302 94.0901 83.4021 90.136 86.1133 87.297C88.7859 84.4982 92.6249 82.9188 96.9225 82.8496C96.9243 82.8496 96.9264 82.8496 96.9282 82.8496C97.1248 82.8496 97.2856 83.008 97.2889 83.2063C97.2921 83.4064 97.1331 83.5713 96.934 83.5746C92.8304 83.6409 89.1725 85.1409 86.6341 87.799C84.0592 90.4952 82.7562 94.2695 82.8662 98.714C82.8633 101.785 83.2935 105.45 84.1096 109.322C84.4991 111.171 84.9759 113.06 85.5266 114.937C87.351 121.154 89.9212 127.045 92.9588 131.974C97.1241 138.73 101.949 143.442 107.301 145.979C119.621 151.818 134.822 147.809 152.484 134.064C165.079 124.262 174.771 112.598 177.441 109.257C177.549 109.122 177.58 109.083 177.604 109.061L177.708 108.955C177.9 108.759 178.108 108.546 178.333 108.32C177.136 105.479 174.912 104.209 173.175 103.642C172.274 104.272 171.389 104.868 170.476 105.46C170.231 105.619 146.03 120.688 134.236 120.689C133.778 120.689 133.34 120.666 132.921 120.619C125.73 119.808 122.025 110.159 119.093 99.8525C119.038 99.6601 119.149 99.4596 119.34 99.4045C119.534 99.349 119.732 99.4611 119.786 99.6535C123.701 113.417 127.531 119.282 133.002 119.899C142.779 121.002 165.932 107.546 170.085 104.851C171.04 104.232 171.964 103.608 172.909 102.946C173 102.883 173.114 102.864 173.22 102.897C175.174 103.496 177.778 104.915 179.094 108.275C179.146 108.41 179.114 108.563 179.011 108.665C178.723 108.951 178.46 109.22 178.222 109.463L178.11 109.577C178.094 109.596 178.058 109.642 178.003 109.71C175.321 113.067 165.583 124.786 152.925 134.637C145.061 140.757 137.527 145.016 130.529 147.296C126.492 148.612 122.623 149.27 118.946 149.27Z" fill="#1A1A1A"/>
<path d="M118.956 99.1277C118.956 99.1277 118.261 95.2919 119.301 94.8935C120.751 94.3381 123.79 95.7265 122.961 101.279C122.132 106.832 123.03 106.092 123.951 112.756C120.912 107.943 119.877 102.922 118.956 99.1277Z" fill="#1A1A1A"/>
<path d="M112.303 121.124C107.433 121.124 103.472 117.142 103.472 112.247C103.472 107.352 107.433 103.37 112.303 103.37C117.173 103.37 121.135 107.352 121.135 112.247C121.135 117.142 117.173 121.124 112.303 121.124ZM112.303 104.095C107.832 104.095 104.193 107.752 104.193 112.247C104.193 116.742 107.832 120.399 112.303 120.399C116.775 120.399 120.414 116.742 120.414 112.247C120.414 107.752 116.775 104.095 112.303 104.095Z" fill="#E4FAFC"/>
<path d="M108.919 87.2368C106.89 85.6959 104.653 84.6001 102.365 83.9443L108.919 87.2368Z" fill="white"/>
<path d="M108.919 87.5994C108.843 87.5994 108.767 87.5754 108.702 87.5261C106.753 86.0461 104.588 84.9586 102.267 84.2931C102.075 84.2383 101.964 84.0375 102.019 83.845C102.073 83.6522 102.274 83.5413 102.464 83.596C104.872 84.2862 107.116 85.4139 109.136 86.948C109.295 87.0687 109.326 87.296 109.206 87.4558C109.136 87.5497 109.028 87.5994 108.919 87.5994Z" fill="#1A1A1A"/>
<path d="M140.418 46.5216C141.347 43.83 141.045 41.2805 139.744 40.827C138.444 40.3735 136.636 42.1879 135.708 44.8794C134.779 47.571 135.08 50.1205 136.381 50.574C137.682 51.0275 139.489 49.2131 140.418 46.5216Z" fill="white"/>
<path d="M136.798 51.0081C136.614 51.0081 136.434 50.978 136.261 50.9178C135.494 50.6507 134.992 49.8311 134.848 48.6102C134.715 47.4814 134.898 46.1149 135.365 44.7624C136.374 41.8379 138.349 39.9583 139.861 40.4861C141.372 41.0132 141.766 43.717 140.756 46.6416C140.29 47.994 139.592 49.1815 138.792 49.9848C138.122 50.6576 137.432 51.0081 136.798 51.0081ZM139.326 41.1227C138.338 41.1227 136.892 42.5491 136.046 44.9998C135.615 46.2508 135.443 47.5025 135.564 48.5247C135.673 49.4414 136.012 50.0638 136.497 50.2327C136.982 50.4006 137.632 50.1243 138.281 49.4719C139.006 48.7444 139.643 47.6551 140.075 46.4041C141.01 43.6938 140.596 41.5102 139.624 41.1709C139.531 41.1386 139.431 41.1227 139.326 41.1227Z" fill="#1A1A1A"/>
<path d="M105.858 65.463C105.858 65.463 114.398 60.2569 116.953 48.8041C118.811 40.4759 125.324 52.231 125.324 52.231L119.529 69.6352C114.822 67.109 110.922 64.3523 105.858 65.463Z" fill="#E4FAFC"/>
<path d="M119.946 68.8804C119.908 68.8804 119.869 68.8743 119.832 68.8619C119.643 68.7989 119.541 68.5937 119.603 68.4038L124.929 52.2773C123.841 50.5174 120.896 46.4811 118.914 46.787C118.079 46.9168 117.445 47.8578 117.028 49.5844C114.122 61.6147 103.552 67.2115 103.445 67.2666C103.268 67.358 103.051 67.2887 102.959 67.1108C102.868 66.9328 102.937 66.7142 103.115 66.6225C103.218 66.5688 113.501 61.1137 116.327 49.4133C116.819 47.3739 117.653 46.2491 118.804 46.0704C121.674 45.6253 125.236 51.3856 125.633 52.0435C125.687 52.1341 125.7 52.2447 125.667 52.3455L120.288 68.6321C120.238 68.784 120.097 68.8804 119.946 68.8804Z" fill="#1A1A1A"/>
<path d="M121.96 54.5652C122.478 55.1554 123.756 56.7518 127.496 57.4112C131.608 58.1361 132.83 51.8727 134.551 50.6493C136.199 50.4691 137.244 49.332 136.443 47.695C134.931 44.6073 136.157 43.6699 136.872 41.4141C139.621 32.7506 123.646 23.7692 116.461 35.2036L114.951 46.7909" fill="#E4FAFC"/>
<path d="M128.161 57.8341C127.928 57.8341 127.687 57.813 127.434 57.7684C123.697 57.1098 122.329 55.5395 121.745 54.8685L121.69 54.8051C121.558 54.655 121.572 54.4259 121.721 54.2933C121.871 54.1613 122.098 54.1751 122.23 54.3252L122.287 54.3908C122.822 55.0037 124.072 56.4396 127.558 57.054C130.075 57.498 131.412 55.0364 132.592 52.8643C133.193 51.7569 133.713 50.8007 134.343 50.353C134.393 50.3175 134.451 50.2954 134.512 50.2885C135.319 50.2004 135.936 49.8673 136.206 49.3746C136.433 48.9592 136.403 48.434 136.119 47.8547C134.877 45.3173 135.404 44.0776 136.013 42.6421C136.189 42.2271 136.371 41.7982 136.528 41.3034C137.847 37.1475 134.617 33.1376 130.746 31.3245C126.69 29.425 120.616 29.342 116.808 35.3296L115.309 46.8372C115.283 47.0355 115.102 47.1725 114.904 47.1497C114.707 47.1236 114.567 46.9416 114.594 46.743L116.104 35.1556C116.111 35.1034 116.129 35.0534 116.157 35.0092C120.212 28.555 126.715 28.6359 131.051 30.6669C135.209 32.6138 138.662 36.9681 137.217 41.5231C137.049 42.0509 136.86 42.496 136.678 42.9263C136.093 44.3016 135.671 45.2955 136.767 47.5339C137.263 48.5456 137.08 49.2829 136.839 49.7233C136.467 50.403 135.688 50.8637 134.692 50.9964C134.22 51.381 133.737 52.2713 133.226 53.2112C132.095 55.2905 130.712 57.8341 128.161 57.8341Z" fill="#1A1A1A"/>
<path d="M122.65 41.8973C122.27 40.613 121.206 38.5602 118.749 39.9884C117.061 40.9693 117.505 43.5285 118.196 45.2637C119.404 48.2985 122.734 57.5492 103.556 61.2289C84.4714 64.8907 79.512 87.6823 62.7665 87.0736C49.6766 86.5977 42.2127 82.6904 37.1693 75.5972C29.3854 64.6497 32.3812 52.2746 45.7447 50.6079C51.6057 49.8768 55.9065 50.0533 64.3316 41.0299C68.9466 36.0866 79.1174 36.9424 85.6012 37.6982C95.1312 38.8089 96.2607 35.7977 104.385 29.9239C112.257 24.2321 118.472 21.5942 127.588 23.1214C144.232 25.9097 143.359 35.9709 137.012 37.9237C130.431 39.9485 126.836 35.1912 124.699 41.5678C123.853 44.0918 122.961 43.112 122.65 41.8973Z" fill="#1A1A1A"/>
<path d="M133.602 45.9805C134.563 43.1948 134.251 40.5561 132.905 40.0868C131.559 39.6175 129.688 41.4954 128.727 44.2811C127.766 47.0669 128.078 49.7056 129.424 50.1749C130.77 50.6442 132.64 48.7663 133.602 45.9805Z" fill="white"/>
<path d="M129.856 50.6105C129.667 50.6105 129.482 50.58 129.304 50.518C128.515 50.2433 127.999 49.3987 127.85 48.1401C127.712 46.9736 127.902 45.561 128.385 44.1632C128.867 42.7651 129.588 41.5381 130.415 40.7076C131.307 39.8119 132.232 39.4697 133.021 39.7452C134.579 40.2886 134.982 43.0798 133.94 46.1C133.458 47.4981 132.737 48.7252 131.911 49.5553C131.219 50.2491 130.508 50.6105 129.856 50.6105ZM132.474 40.3796C132.017 40.3796 131.47 40.6732 130.925 41.2209C130.173 41.9753 129.513 43.1044 129.066 44.401C128.619 45.6977 128.441 46.995 128.566 48.0549C128.679 49.0086 129.034 49.6568 129.54 49.8333C130.047 50.0095 130.724 49.7217 131.4 49.0427C132.151 48.2884 132.811 47.1592 133.259 45.863C134.229 43.0508 133.797 40.7838 132.784 40.4307C132.687 40.3963 132.583 40.3796 132.474 40.3796Z" fill="#1A1A1A"/>
<path d="M131.71 45.7359C130.55 45.7359 129.93 44.9547 129.899 44.9141C129.777 44.7561 129.805 44.5284 129.963 44.4056C130.12 44.2827 130.345 44.3113 130.467 44.4672C130.497 44.5045 131.132 45.2744 132.349 44.9112C132.54 44.8532 132.741 44.9638 132.798 45.1552C132.854 45.3469 132.745 45.5488 132.555 45.6061C132.248 45.6982 131.966 45.7359 131.71 45.7359Z" fill="#1A1A1A"/>
<path d="M132.067 46.1561C132.26 45.7398 132.137 45.2711 131.791 45.1091C131.445 44.9471 131.008 45.1533 130.815 45.5695C130.622 45.9858 130.746 46.4546 131.092 46.6165C131.438 46.7785 131.874 46.5724 132.067 46.1561Z" fill="#1A1A1A"/>
<path d="M130.897 54.6881C129.637 54.6881 128.562 54.0092 128.499 53.9679C128.331 53.8602 128.282 53.6362 128.389 53.468C128.496 53.2998 128.719 53.2501 128.887 53.3574C128.905 53.369 130.758 54.5312 132.177 53.5916C132.344 53.481 132.567 53.5278 132.677 53.6949C132.787 53.862 132.741 54.0871 132.574 54.197C132.025 54.5602 131.444 54.6881 130.897 54.6881Z" fill="#1A1A1A"/>
<path d="M64.1477 41.2607C64.1477 41.2607 58.6232 49.3127 49.5075 50.2382C39.4618 51.2578 37.1696 53.9399 34.7754 57.2719C40.8524 52.3667 44.2921 53.0253 50.8887 51.8114C57.4262 50.6083 62.3063 47.0914 64.1477 41.2607Z" fill="#E4FAFC"/>
<path d="M119.715 41.4805C119.715 41.4805 120.751 42.3135 121.235 44.396L119.715 41.4805Z" fill="#1A1A1A"/>
<path d="M121.234 44.7582C121.071 44.7582 120.922 44.6451 120.884 44.478C120.439 42.5623 119.498 41.7699 119.489 41.7623C119.335 41.6357 119.312 41.4081 119.436 41.253C119.562 41.0975 119.786 41.0732 119.941 41.1975C119.987 41.2348 121.08 42.1338 121.586 44.3135C121.631 44.5085 121.511 44.7035 121.317 44.7488C121.289 44.7553 121.261 44.7582 121.234 44.7582Z" fill="#1A1A1A"/>
<path d="M119.474 43.9108C119.474 43.9108 119.681 42.9042 120.406 42.5225L119.474 43.9108Z" fill="#1A1A1A"/>
<path d="M119.474 44.2728C119.45 44.2728 119.424 44.2703 119.4 44.2652C119.205 44.2242 119.08 44.0332 119.121 43.8375C119.13 43.7896 119.373 42.6579 120.239 42.2016C120.415 42.1088 120.634 42.1773 120.726 42.3542C120.819 42.5314 120.75 42.7507 120.574 42.8435C120.012 43.1393 119.829 43.9767 119.827 43.985C119.79 44.1557 119.641 44.2728 119.474 44.2728Z" fill="#1A1A1A"/>
<path d="M124.191 76.2109C124.191 76.2109 127.332 81.9147 128.649 85.785C129.895 89.4436 131.74 93.4237 133.057 94.2386C131.791 91.1321 130.98 87.2618 130.169 85.3776C129.359 83.4933 127.231 78.1463 124.191 76.2109Z" fill="#E4FAFC"/>
<path d="M122.8 22.5653C122.8 22.5653 115.618 22.1024 105.398 29.5066C95.1774 36.9108 94.5326 38.484 89.2843 38.0211C96.4663 40.0572 103.096 33.5788 104.569 32.1905C106.042 30.8025 113.04 24.6014 122.8 22.5653Z" fill="#E4FAFC"/>
<path d="M128.969 43.7521C128.931 43.7521 128.891 43.7456 128.852 43.7325L123.742 41.9741C123.554 41.9092 123.453 41.7029 123.518 41.5137C123.583 41.3245 123.787 41.2237 123.976 41.2879L129.086 43.0463C129.275 43.1112 129.375 43.3175 129.311 43.5067C129.259 43.6571 129.119 43.7521 128.969 43.7521Z" fill="#1A1A1A"/>
<path d="M134.079 44.9552C133.885 44.9552 133.725 44.7997 133.719 44.6033C133.713 44.4032 133.87 44.2361 134.069 44.2303L135.634 44.1839C135.819 44.1762 136 44.335 136.005 44.5355C136.011 44.7356 135.854 44.9027 135.655 44.9085L134.09 44.9549C134.086 44.9552 134.083 44.9552 134.079 44.9552Z" fill="#1A1A1A"/>
<path d="M63.4232 87.4476C63.2021 87.4476 62.9792 87.4437 62.7538 87.4353C50.2519 86.9808 42.2707 83.3946 36.8761 75.8074C32.6506 69.8647 31.4522 63.2834 33.6697 58.2024C35.5908 53.8006 39.8635 50.9758 45.7007 50.2475C46.1529 50.191 46.5961 50.1399 47.0325 50.0895C52.2566 49.4877 56.3829 49.0125 64.0683 40.7807C69.0858 35.4072 80.6887 36.76 85.6427 37.3371C93.1416 38.21 95.3054 36.5073 100.046 32.7748C101.226 31.8461 102.562 30.7938 104.174 29.6284C111.853 24.0761 118.157 21.1729 127.646 22.7628C140.131 24.8544 141.466 30.5669 141.578 32.2677C141.757 34.9813 139.964 37.3933 137.117 38.269C134.448 39.0908 132.248 38.8251 130.48 38.612C127.747 38.2825 126.241 38.1005 125.04 41.6822C124.629 42.9093 124.148 43.5063 123.569 43.5063C123.559 43.5063 123.549 43.5063 123.538 43.5059C123.003 43.4864 122.541 42.9212 122.302 41.9936C122.12 41.3796 121.69 40.3066 120.849 39.9698C120.319 39.7574 119.672 39.8691 118.929 40.3015C117.136 41.3433 118.283 44.5053 118.531 45.1284C119.075 46.4968 120.522 50.1319 118.565 53.7252C116.551 57.4241 111.524 60.0684 103.623 61.5844C94.4377 63.3468 88.6143 69.5439 82.9823 75.5366C77.231 81.6576 71.7894 87.4476 63.4232 87.4476ZM77.3421 37.4759C72.6005 37.4759 67.4327 38.2382 64.5949 41.2773C56.7284 49.7034 52.2732 50.2163 47.1147 50.8105C46.6805 50.8605 46.2395 50.9112 45.7894 50.9674C40.2144 51.6623 36.1447 54.3353 34.33 58.4938C32.2156 63.3385 33.3866 69.6534 37.4628 75.3862C42.7147 82.7726 50.5231 86.2656 62.7798 86.7111C71.1976 87.0214 76.6702 81.1991 82.4583 75.0393C88.1689 68.9625 94.0742 62.6791 103.488 60.8724C111.167 59.3993 116.027 56.8775 117.933 53.3776C119.522 50.4588 118.73 47.58 117.861 45.3985C117.031 43.3124 116.781 40.7133 118.568 39.6744C119.513 39.1249 120.371 38.9987 121.116 39.2967C122.243 39.7476 122.777 41.0548 122.996 41.7935C122.997 41.7979 122.999 41.8019 123 41.8066C123.174 42.4877 123.454 42.7781 123.565 42.782C123.574 42.782 123.916 42.7686 124.357 41.4513C125.745 37.3121 127.871 37.5684 130.566 37.8928C132.266 38.098 134.382 38.3531 136.906 37.5763C139.426 36.801 141.015 34.6869 140.859 32.3155C140.647 29.0872 137.034 25.0704 127.528 23.478C118.284 21.9287 112.12 24.7768 104.595 30.2174C102.996 31.3738 101.665 32.4214 100.491 33.3457C95.7385 37.0877 93.353 38.9657 85.5597 38.0574C83.5976 37.8286 80.5683 37.4759 77.3421 37.4759Z" fill="#1A1A1A"/>
<path d="M99.1364 69.4883C99.1364 69.4883 105.995 65.464 113.749 74.8858C121.243 83.9912 121.873 73.9611 121.873 73.9611C110.232 61.4827 104.027 65.1964 99.1364 69.4883Z" fill="white"/>
<path d="M118.935 79.0726C117.451 79.0726 115.654 77.7691 113.472 75.1175C106.02 66.0632 99.5875 69.6453 99.3174 69.8023C99.1573 69.8958 98.9517 69.8512 98.8436 69.6994C98.7354 69.5478 98.7595 69.3383 98.8995 69.2158C103.965 64.7706 110.355 61.0855 122.137 73.7139C122.205 73.7868 122.24 73.885 122.234 73.9847C122.223 74.1573 121.942 78.2168 119.679 78.9559C119.44 79.0335 119.193 79.0726 118.935 79.0726ZM102.909 68.2972C105.735 68.2972 109.776 69.4898 114.028 74.6553C116.311 77.4302 118.188 78.6797 119.455 78.2661C120.88 77.8017 121.399 75.2306 121.502 74.0931C111.338 63.2536 105.591 64.8608 100.882 68.5082C101.453 68.3868 102.136 68.2972 102.909 68.2972Z" fill="#1A1A1A"/>
<path d="M122.823 55.0163C122.823 55.0163 122.085 53.7951 121.373 54.0097C120.682 54.2177 121.131 56.9252 123.168 58.6256L124.032 56.4739C124.031 56.4742 123.341 56.127 122.823 55.0163Z" fill="#1A1A1A"/>
<path d="M135.132 97.547C135.114 97.547 135.095 97.5455 135.076 97.5426C134.825 97.5027 128.909 96.4711 126.677 88.3622C124.663 81.0439 123.289 77.1899 121.936 75.0596C121.845 74.9164 121.865 74.7293 121.984 74.609C122.103 74.4883 122.29 74.4676 122.432 74.5575C127.266 77.6104 129.253 81.9751 130.736 85.8269C131.144 86.8854 131.444 88.057 131.762 89.2971C132.49 92.1357 133.242 95.0708 135.368 96.9097C135.49 97.0156 135.528 97.1896 135.46 97.3367C135.4 97.4665 135.271 97.547 135.132 97.547ZM123.309 76.0481C124.469 78.4028 125.707 82.1205 127.372 88.169C128.876 93.6332 132.108 95.6907 133.913 96.433C132.344 94.4745 131.67 91.8436 131.063 89.4783C130.751 88.2593 130.455 87.108 130.063 86.0887C128.76 82.7037 127.059 78.9128 123.309 76.0481Z" fill="#1A1A1A"/>
<path d="M123.887 77.3311C123.887 77.3311 123.583 81.9144 123.38 84.206C123.183 86.4346 124.394 89.6042 125.61 91.081C125.002 88.2293 124.799 86.5995 125.103 84.0531C125.407 81.5069 124.799 78.6552 123.887 77.3311Z" fill="#E4FAFC"/>
<path d="M125.94 93.3094C125.94 93.3094 125.939 93.3094 125.939 93.3094C125.868 93.3094 124.178 93.2873 122.824 91.7713C121.478 90.2645 120.966 87.8731 121.301 84.6636C121.453 83.2144 121.623 81.9812 121.773 80.893C122.142 78.2135 122.386 76.4435 121.895 74.6571C121.849 74.4904 121.927 74.3142 122.081 74.2366C122.234 74.1594 122.421 74.2015 122.527 74.3381C125.534 78.2258 125.474 81.5825 125.425 84.2794L125.423 84.3867C125.358 87.9819 125.412 89.4318 126.289 92.8563C126.317 92.965 126.293 93.0806 126.224 93.1691C126.156 93.2579 126.051 93.3094 125.94 93.3094ZM122.867 76.0897C122.969 77.4961 122.762 79.0015 122.488 80.9927C122.339 82.0755 122.169 83.3025 122.019 84.7394C121.705 87.7365 122.157 89.9393 123.361 91.287C124.093 92.1077 124.943 92.4093 125.461 92.5199C124.686 89.3695 124.639 87.8579 124.702 84.3733L124.704 84.266C124.747 81.8764 124.795 79.206 122.867 76.0897Z" fill="#1A1A1A"/>
<path d="M168.561 56.214C178.779 56.214 187.062 47.9277 187.062 37.7061C187.062 27.4845 178.779 19.1982 168.561 19.1982C158.344 19.1982 150.061 27.4845 150.061 37.7061C150.061 47.9277 158.344 56.214 168.561 56.214Z" fill="#E4FAFC"/>
<path d="M193.169 111.168C193.261 111.226 193.38 111.239 193.489 111.191C193.557 111.161 200.385 108.272 207.818 111.216C207.996 111.286 208.199 111.197 208.272 111.016C208.345 110.835 208.26 110.629 208.082 110.56C200.376 107.508 193.294 110.515 193.224 110.545C193.046 110.622 192.962 110.829 193.035 111.008C193.063 111.077 193.11 111.131 193.169 111.168Z" fill="#1A1A1A"/>
<path d="M197.132 113.768C197.193 113.806 197.266 113.826 197.344 113.819C197.388 113.815 201.828 113.469 205.507 116.599C205.652 116.723 205.873 116.702 205.999 116.553C206.124 116.403 206.107 116.181 205.961 116.057C202.058 112.736 197.488 113.1 197.295 113.118C197.103 113.135 196.959 113.305 196.972 113.499C196.98 113.615 197.043 113.712 197.132 113.768Z" fill="#1A1A1A"/>
<path d="M180.515 29.9364L155.146 34.446C153.794 34.6865 152.891 35.9782 153.13 37.3308L153.968 42.0831C154.207 43.436 155.496 44.3376 156.849 44.0974L158.22 43.8538L159.084 48.7529L161.533 43.265L182.218 39.5881C183.571 39.3475 184.473 38.0563 184.235 36.7033L183.397 31.951C183.158 30.5978 181.868 29.6958 180.515 29.9364Z" fill="white"/>
<path d="M159.148 49.1106C159.113 49.1169 159.076 49.118 159.039 49.1138C158.881 49.0944 158.754 48.9735 158.726 48.8163L157.925 44.2753L156.912 44.4555C155.364 44.7304 153.883 43.6947 153.61 42.1462L152.771 37.3943C152.499 35.8481 153.533 34.3666 155.077 34.0886C155.079 34.0882 155.081 34.0879 155.083 34.0874L180.453 29.5777C182 29.3027 183.481 30.3384 183.755 31.8866L184.593 36.6389C184.725 37.3886 184.558 38.1458 184.121 38.7703C183.686 39.3931 183.035 39.81 182.288 39.9446C182.285 39.9449 182.283 39.9453 182.281 39.9457L161.786 43.5888L159.416 48.9007C159.366 49.013 159.264 49.0896 159.148 49.1106ZM155.205 34.8047C154.055 35.0118 153.285 36.1151 153.487 37.2671L154.326 42.0191C154.529 43.1722 155.632 43.9437 156.786 43.739L158.157 43.4951C158.252 43.4779 158.35 43.4995 158.429 43.5548C158.508 43.61 158.561 43.6942 158.578 43.7895L159.236 47.5198L161.201 43.1161C161.251 43.006 161.351 42.9273 161.469 42.906C161.47 42.9059 161.47 42.9059 161.47 42.9059L182.155 39.2289C182.709 39.1413 183.2 38.819 183.525 38.3535C183.851 37.8879 183.976 37.3244 183.877 36.7656L183.039 32.0133C182.835 30.8602 181.732 30.0887 180.579 30.2933L155.209 34.8039C155.208 34.8041 155.207 34.8044 155.205 34.8047Z" fill="#1A1A1A"/>
<path d="M164.469 38.8116C164.993 38.7173 165.341 38.2164 165.248 37.6927C165.154 37.1691 164.654 36.821 164.131 36.9153C163.607 37.0095 163.259 37.5104 163.352 38.0341C163.446 38.5578 163.946 38.9059 164.469 38.8116Z" fill="#1A1A1A"/>
<path d="M168.863 38.0333C169.386 37.939 169.734 37.4381 169.641 36.9144C169.547 36.3908 169.047 36.0427 168.524 36.1369C168 36.2312 167.652 36.7321 167.746 37.2558C167.839 37.7794 168.339 38.1275 168.863 38.0333Z" fill="#1A1A1A"/>
<path d="M173.256 37.255C173.779 37.1607 174.128 36.6598 174.034 36.1361C173.941 35.6125 173.44 35.2644 172.917 35.3586C172.394 35.4529 172.045 35.9538 172.139 36.4775C172.232 37.0011 172.732 37.3492 173.256 37.255Z" fill="#1A1A1A"/>
<path d="M208.33 57.9591C215.796 57.9591 221.849 51.9038 221.849 44.4342C221.849 36.9645 215.796 30.9092 208.33 30.9092C200.863 30.9092 194.81 36.9645 194.81 44.4342C194.81 51.9038 200.863 57.9591 208.33 57.9591Z" fill="#E4FAFC"/>
<path d="M217.762 50.1305L201.917 53.0793C201.303 53.1936 200.712 52.7865 200.598 52.1701L198.623 41.4721C198.509 40.8557 198.915 40.263 199.53 40.1487L215.374 37.2C215.989 37.0857 216.58 37.4928 216.693 38.1092L218.669 48.8072C218.782 49.4236 218.376 50.0162 217.762 50.1305Z" fill="white"/>
<path d="M217.833 50.4941C217.831 50.4944 217.83 50.4946 217.829 50.4948L201.985 53.4436C201.171 53.5951 200.386 53.0538 200.235 52.2377L198.26 41.5392C198.11 40.7242 198.648 39.9379 199.46 39.7849C199.461 39.7847 199.462 39.7845 199.463 39.7843L215.307 36.8355C215.701 36.762 216.1 36.8471 216.431 37.0746C216.762 37.3026 216.984 37.6457 217.057 38.041L219.032 48.739C219.105 49.1344 219.02 49.5349 218.793 49.8664C218.566 50.1976 218.226 50.4201 217.833 50.4941ZM199.596 40.5132C199.183 40.591 198.911 40.9903 198.987 41.4042L200.962 52.1027C200.999 52.3034 201.112 52.4779 201.279 52.5933C201.448 52.709 201.65 52.7519 201.85 52.715L217.695 49.7662C217.695 49.766 217.696 49.7659 217.696 49.7658C217.896 49.7282 218.069 49.6153 218.184 49.4473C218.3 49.2789 218.342 49.0756 218.305 48.8749L216.33 38.1764C216.293 37.9756 216.18 37.8012 216.012 37.6859C215.844 37.5701 215.642 37.5271 215.442 37.5645L199.598 40.5129C199.597 40.513 199.596 40.5132 199.596 40.5132Z" fill="#1A1A1A"/>
<path d="M208.742 45.6412C208.356 45.7139 207.946 45.6633 207.571 45.4788L198.952 41.2376C198.769 41.1473 198.693 40.9253 198.783 40.7417C198.873 40.5582 199.094 40.4827 199.277 40.5722L207.897 44.8134C208.35 45.0363 208.884 44.9365 209.227 44.5659L215.76 37.5062C215.898 37.3565 216.132 37.3475 216.281 37.4863C216.431 37.6254 216.439 37.8598 216.301 38.0099L209.768 45.0699C209.486 45.3751 209.125 45.569 208.742 45.6412Z" fill="#1A1A1A"/>
<path d="M201.301 52.7177C201.189 52.7387 201.07 52.7083 200.981 52.6253C200.831 52.4861 200.823 52.2517 200.961 52.1015L205.998 46.6565C206.137 46.5064 206.371 46.4982 206.52 46.6366C206.67 46.7758 206.678 47.0102 206.539 47.1604L201.503 52.6057C201.447 52.666 201.376 52.7035 201.301 52.7177Z" fill="#1A1A1A"/>
<path d="M218.214 49.5753C218.139 49.5895 218.058 49.5802 217.984 49.5437L211.337 46.273C211.154 46.1827 211.079 45.9606 211.169 45.7769C211.259 45.5933 211.48 45.5178 211.663 45.6073L218.309 48.878C218.493 48.9683 218.568 49.1904 218.478 49.374C218.425 49.4832 218.325 49.5544 218.214 49.5753Z" fill="#1A1A1A"/>
<path d="M216.078 95.3363C225.466 95.3363 233.076 87.7229 233.076 78.3313C233.076 68.9396 225.466 61.3262 216.078 61.3262C206.69 61.3262 199.079 68.9396 199.079 78.3313C199.079 87.7229 206.69 95.3363 216.078 95.3363Z" fill="#E4FAFC"/>
<path d="M184.927 79.1842C191.259 79.1842 196.391 74.0495 196.391 67.7156C196.391 61.3817 191.259 56.2471 184.927 56.2471C178.596 56.2471 173.463 61.3817 173.463 67.7156C173.463 74.0495 178.596 79.1842 184.927 79.1842Z" fill="#E4FAFC"/>
<path d="M195.996 28.8193C201.367 28.8193 205.721 24.4637 205.721 19.0908C205.721 13.7179 201.367 9.3623 195.996 9.3623C190.625 9.3623 186.271 13.7179 186.271 19.0908C186.271 24.4637 190.625 28.8193 195.996 28.8193Z" fill="#E4FAFC"/>
<path d="M192.276 71.9777L179.554 74.3661C178.936 74.4822 178.344 74.079 178.229 73.4658L176.668 65.0823C176.554 64.4692 176.962 63.878 177.579 63.7622L190.301 61.3738C190.918 61.2581 191.511 61.6613 191.625 62.2745L193.186 70.658C193.3 71.2707 192.893 71.8619 192.276 71.9777Z" fill="white"/>
<path d="M192.346 72.3396C192.345 72.3398 192.344 72.34 192.343 72.3402L179.621 74.7286C179.225 74.803 178.825 74.7196 178.493 74.4942C178.161 74.2683 177.938 73.9277 177.865 73.534L176.304 65.1509C176.231 64.7573 176.316 64.3587 176.544 64.028C176.771 63.6981 177.113 63.4755 177.508 63.4005C177.509 63.4003 177.51 63.4 177.511 63.3998L190.233 61.0114C191.05 60.858 191.839 61.3938 191.99 62.2059L193.551 70.5894C193.702 71.4001 193.162 72.1845 192.346 72.3396ZM177.645 64.125C177.231 64.2036 176.957 64.602 177.033 65.0138L178.594 73.3973C178.631 73.597 178.744 73.7702 178.913 73.8845C179.082 73.9992 179.285 74.0412 179.486 74.0034L192.208 71.615C192.209 71.6149 192.209 71.6147 192.21 71.6147C192.624 71.5359 192.898 71.1375 192.822 70.7258L191.261 62.3423C191.184 61.9299 190.783 61.6577 190.368 61.7358L177.646 64.1246C177.646 64.1248 177.645 64.1249 177.645 64.125Z" fill="#1A1A1A"/>
<path d="M191.985 64.2243C191.985 64.2244 191.985 64.2244 191.984 64.2245L183.692 65.7802C183.073 65.8963 182.442 65.6131 182.121 65.0754L181.437 63.9279C181.271 63.6496 180.945 63.5031 180.624 63.5633C180.423 63.6012 180.229 63.4695 180.192 63.2695C180.155 63.07 180.287 62.8771 180.488 62.839C180.489 62.8389 180.489 62.8388 180.489 62.8388C181.115 62.7215 181.752 63.0073 182.076 63.5508L182.759 64.6981C182.922 64.9713 183.242 65.1148 183.557 65.0558L191.849 63.5001C192.051 63.4622 192.244 63.5938 192.281 63.7938C192.319 63.9937 192.186 64.1862 191.985 64.2243Z" fill="#1A1A1A"/>
<path d="M217.394 65.4183L206.655 67.3697C205.823 67.521 205.271 68.3218 205.422 69.1585L209.289 90.6134C209.44 91.4501 210.237 92.0055 211.069 91.8543L226.136 89.1163C226.968 88.965 227.52 88.1642 227.369 87.3275L224.287 70.2248L217.394 65.4183Z" fill="white"/>
<path d="M226.205 89.4746C226.204 89.4749 226.202 89.4752 226.2 89.4755L211.133 92.2134C210.635 92.304 210.132 92.1941 209.716 91.904C209.3 91.614 209.022 91.1785 208.931 90.678L205.064 69.2229C204.974 68.7224 205.083 68.2164 205.371 67.7982C205.659 67.3816 206.09 67.102 206.586 67.0106C206.587 67.0104 206.589 67.0101 206.591 67.0098L217.329 65.0584C217.424 65.041 217.522 65.0624 217.601 65.1176L224.494 69.9244C224.573 69.9797 224.627 70.0641 224.645 70.1597L227.727 87.2623C227.818 87.7628 227.709 88.2688 227.42 88.6871C227.132 89.1037 226.701 89.3833 226.205 89.4746ZM206.717 67.7295C206.411 67.7857 206.146 67.958 205.968 68.215C205.791 68.4724 205.724 68.7846 205.779 69.0931L209.647 90.5482C209.702 90.8568 209.874 91.1253 210.13 91.3036C210.387 91.4823 210.697 91.55 211.004 91.4942L226.071 88.7563C226.072 88.7561 226.073 88.7559 226.074 88.7558C226.38 88.6996 226.646 88.5273 226.823 88.2702C227.001 88.0128 227.068 87.7006 227.012 87.3921L223.956 70.4387L217.31 65.8045L206.72 67.729C206.719 67.7292 206.718 67.7293 206.717 67.7295Z" fill="#1A1A1A"/>
<path d="M221.541 75.0133C221.541 75.0133 221.541 75.0133 221.54 75.0134L210.662 76.9864C210.465 77.0223 210.276 76.8904 210.24 76.6922C210.204 76.4944 210.335 76.3045 210.532 76.2684C210.532 76.2684 210.532 76.2683 210.532 76.2682L221.41 74.2952C221.608 74.2593 221.797 74.3912 221.833 74.5894C221.869 74.7872 221.738 74.977 221.541 75.0133Z" fill="#1A1A1A"/>
<path d="M222.111 78.1676C222.111 78.1676 222.111 78.1676 222.111 78.1677L211.232 80.1407C211.035 80.1766 210.846 80.0447 210.81 79.8465C210.774 79.6487 210.905 79.4588 211.102 79.4227C211.102 79.4227 211.102 79.4226 211.102 79.4225L221.981 77.4495C222.178 77.4136 222.367 77.5455 222.403 77.7437C222.438 77.9416 222.308 78.1314 222.111 78.1676Z" fill="#1A1A1A"/>
<path d="M222.681 81.3219C222.681 81.3219 222.681 81.3219 222.68 81.322L211.802 83.295C211.605 83.3309 211.416 83.199 211.38 83.0008C211.344 82.803 211.475 82.6131 211.672 82.577C211.672 82.577 211.672 82.5769 211.672 82.5768L222.551 80.6038C222.748 80.5679 222.937 80.6998 222.973 80.898C223.009 81.0958 222.878 81.2856 222.681 81.3219Z" fill="#1A1A1A"/>
<path d="M219.994 85.0678C219.994 85.0678 219.994 85.0678 219.993 85.0679L212.372 86.4503C212.175 86.4862 211.986 86.3543 211.95 86.1561C211.914 85.9582 212.045 85.7684 212.242 85.7322C212.242 85.7322 212.242 85.7321 212.243 85.7321L219.864 84.3497C220.061 84.3138 220.25 84.4457 220.286 84.6439C220.322 84.8421 220.191 85.0316 219.994 85.0678Z" fill="#1A1A1A"/>
<path d="M217.377 65.4123L218.164 69.7776C218.315 70.6142 219.111 71.1696 219.944 71.0183L224.285 70.2292L217.377 65.4123Z" fill="white"/>
<path d="M224.351 70.5883C224.35 70.5884 224.35 70.5884 224.35 70.5885L220.008 71.3775C219.51 71.468 219.007 71.3582 218.591 71.0681C218.175 70.7781 217.896 70.3428 217.806 69.842L217.019 65.4767C216.993 65.3315 217.056 65.1842 217.18 65.1047C217.304 65.0246 217.463 65.0277 217.583 65.1117L224.491 69.9291C224.612 70.0134 224.671 70.1624 224.639 70.3067C224.609 70.4508 224.495 70.5617 224.351 70.5883ZM217.891 66.2148L218.521 69.7122C218.577 70.0206 218.749 70.2891 219.005 70.4678C219.261 70.6465 219.571 70.7142 219.879 70.6584L223.357 70.0264L217.891 66.2148Z" fill="#1A1A1A"/>
<path d="M203.883 22.5841C203.883 22.5841 203.882 22.5842 203.882 22.5843L191.005 24.7382C190.913 24.7537 190.817 24.7323 190.741 24.6783C190.665 24.6239 190.614 24.5421 190.599 24.4499L189.117 15.512C189.085 15.3214 189.215 15.1401 189.408 15.1072C189.408 15.1071 189.409 15.107 189.409 15.107C189.602 15.0747 189.784 15.2039 189.816 15.3952L191.24 23.9865L203.767 21.891C203.96 21.8587 204.142 21.9879 204.174 22.1793C204.206 22.3702 204.075 22.5511 203.883 22.5841Z" fill="#1A1A1A"/>
<path d="M195.12 18.013L192.255 18.4922L193.159 23.9452L196.024 23.466L195.12 18.013Z" fill="white"/>
<path d="M196.083 23.8123C196.082 23.8124 196.082 23.8125 196.081 23.8126L193.216 24.2918C193.023 24.3241 192.841 24.1949 192.809 24.0034L191.905 18.5505C191.874 18.3595 192.004 18.1785 192.196 18.1456C192.197 18.1455 192.197 18.1454 192.198 18.1453L195.062 17.6661C195.155 17.6506 195.25 17.6722 195.327 17.7261C195.403 17.7801 195.454 17.8622 195.47 17.9541L196.374 23.4074C196.389 23.4993 196.367 23.5936 196.312 23.6697C196.257 23.7454 196.175 23.7965 196.083 23.8123ZM193.451 23.5398L195.617 23.1774L194.828 18.4178L192.662 18.7801L193.451 23.5398Z" fill="#1A1A1A"/>
<path d="M197.791 15.7249L194.925 16.2041L196.127 23.4505L198.992 22.9713L197.791 15.7249Z" fill="white"/>
<path d="M199.051 23.3171C199.051 23.3171 199.05 23.3173 199.049 23.3173L196.184 23.7965C196.092 23.812 195.996 23.7906 195.92 23.7365C195.844 23.6826 195.792 23.6004 195.777 23.5085L194.576 16.2623C194.544 16.0712 194.674 15.8902 194.867 15.8573C194.867 15.8572 194.867 15.8572 194.868 15.857L197.733 15.3778C197.826 15.3623 197.921 15.3839 197.997 15.4378C198.074 15.4918 198.125 15.574 198.14 15.6659L199.342 22.9124C199.374 23.1031 199.243 23.2841 199.051 23.3171ZM196.419 23.0445L198.585 22.6821L197.499 16.1294L195.333 16.4918L196.419 23.0445Z" fill="#1A1A1A"/>
<path d="M201.248 18.8333L198.384 19.3125L198.991 22.9722L201.855 22.493L201.248 18.8333Z" fill="white"/>
<path d="M201.914 22.8395C201.913 22.8396 201.913 22.8397 201.912 22.8398L199.048 23.319C198.855 23.3513 198.673 23.2221 198.641 23.0307L198.034 19.371C198.003 19.18 198.133 18.9991 198.325 18.9661C198.326 18.9661 198.326 18.9659 198.327 18.9659L201.191 18.4867C201.284 18.4712 201.379 18.4927 201.455 18.5467C201.531 18.6006 201.583 18.6828 201.598 18.7746L202.205 22.4346C202.22 22.5265 202.198 22.6209 202.143 22.697C202.088 22.7723 202.006 22.8238 201.914 22.8395ZM199.283 22.5668L201.448 22.2045L200.956 19.2379L198.791 19.6003L199.283 22.5668Z" fill="#1A1A1A"/>
</g>
<defs>
<clipPath id="clip0_1644_3349">
<rect width="253" height="190.062" fill="white"/>
</clipPath>
</defs>
</svg>
